<svg width="24" height="25" viewBox="0 0 24 25" fill="none" xmlns="http://www.w3.org/2000/svg">
<path d="M3.67981 11.8333H2.92981H3.67981ZM3.67981 13.5L3.15157 14.0324C3.44398 14.3225 3.91565 14.3225 4.20805 14.0324L3.67981 13.5ZM5.88787 12.3657C6.18191 12.074 6.18377 11.5991 5.89203 11.3051C5.60029 11.011 5.12542 11.0092 4.83138 11.3009L5.88787 12.3657ZM2.52824 11.3009C2.2342 11.0092 1.75933 11.011 1.46759 11.3051C1.17585 11.5991 1.17772 12.074 1.47176 12.3657L2.52824 11.3009ZM18.6156 7.89279C18.8325 8.24565 19.2944 8.35585 19.6473 8.13892C20.0001 7.92199 20.1103 7.46007 19.8934 7.10721L18.6156 7.89279ZM12.0789 2.75C7.03155 2.75 2.92981 6.8112 2.92981 11.8333H4.42981C4.42981 7.65072 7.84884 4.25 12.0789 4.25V2.75ZM2.92981 11.8333L2.92981 13.5H4.42981L4.42981 11.8333H2.92981ZM4.20805 14.0324L5.88787 12.3657L4.83138 11.3009L3.15157 12.9676L4.20805 14.0324ZM4.20805 12.9676L2.52824 11.3009L1.47176 12.3657L3.15157 14.0324L4.20805 12.9676ZM19.8934 7.10721C18.287 4.49427 15.3873 2.75 12.0789 2.75V4.25C14.8484 4.25 17.2727 5.70845 18.6156 7.89279L19.8934 7.10721Z" fill="#FAFAFA"/>
<path d="M20.3139 11.5L20.8411 10.9666C20.549 10.6778 20.0788 10.6778 19.7867 10.9666L20.3139 11.5ZM18.1004 12.6333C17.8058 12.9244 17.8031 13.3993 18.0942 13.6939C18.3854 13.9885 18.8603 13.9913 19.1549 13.7001L18.1004 12.6333ZM21.4729 13.7001C21.7675 13.9913 22.2424 13.9885 22.5335 13.6939C22.8247 13.3993 22.822 12.9244 22.5274 12.6332L21.4729 13.7001ZM5.31794 17.1061C5.1004 16.7536 4.6383 16.6442 4.28581 16.8618C3.93331 17.0793 3.82391 17.5414 4.04144 17.8939L5.31794 17.1061ZM11.8827 22.25C16.9451 22.25 21.0639 18.1915 21.0639 13.1667H19.5639C19.5639 17.3466 16.1332 20.75 11.8827 20.75V22.25ZM21.0639 13.1667V11.5H19.5639V13.1667H21.0639ZM19.7867 10.9666L18.1004 12.6333L19.1549 13.7001L20.8411 12.0334L19.7867 10.9666ZM19.7867 12.0334L21.4729 13.7001L22.5274 12.6332L20.8411 10.9666L19.7867 12.0334ZM4.04144 17.8939C5.65405 20.507 8.56403 22.25 11.8827 22.25V20.75C9.10023 20.75 6.66584 19.2903 5.31794 17.1061L4.04144 17.8939Z" fill="#FAFAFA"/>
</svg>
