<svg width="48" height="48" viewBox="0 0 48 48" fill="none" xmlns="http://www.w3.org/2000/svg">
<g clip-path="url(#clip0_581_10226)">
<path d="M47.9981 31.9961H45.7031V34.2911H47.9981V31.9961Z" fill="#FAFAFA"/>
<path d="M45.705 20.5805H36.57V11.4305H38.85V9.15047H36.57V6.85547H11.43V9.15047H9.135V11.4305H6.855V13.7105H4.575V16.0055H2.28V18.2855H0V25.1405H2.28V22.8605H13.71V27.4355H15.99V31.9955H18.285V36.5705H20.565V41.1455H22.86V22.8605H31.995V27.4355H29.715V31.9955H27.42V36.5705H25.14V41.1455H22.86V43.4255H20.565V45.7205H22.86V48.0005H25.14V45.7205H27.42V43.4255H29.715V41.1455H31.995V38.8655H34.29V36.5705H36.57V34.2905H38.85V31.9955H41.145V29.7155H43.425V27.4355H45.705V25.1405H48V18.2855H45.705V20.5805ZM31.995 20.5805H15.99V18.2855H13.71V9.15047H22.86V11.4305H25.14V13.7105H27.42V16.0055H29.715V18.2855H31.995V20.5805Z" fill="#FAFAFA"/>
<path d="M45.7058 38.8633H43.4258V41.1433H45.7058V38.8633Z" fill="#FAFAFA"/>
<path d="M45.7058 16.0039H43.4258V18.2839H45.7058V16.0039Z" fill="#FAFAFA"/>
<path d="M43.4245 41.1445H41.1445V43.4245H43.4245V41.1445Z" fill="#FAFAFA"/>
<path d="M43.4245 36.5703H41.1445V38.8653H43.4245V36.5703Z" fill="#FAFAFA"/>
<path d="M43.4245 13.7109H41.1445V16.0059H43.4245V13.7109Z" fill="#FAFAFA"/>
<path d="M41.1466 4.57625H38.8516V6.85625H41.1466V9.15125H43.4266V6.85625H45.7066V4.57625H43.4266V2.28125H41.1466V4.57625Z" fill="#FAFAFA"/>
<path d="M41.1466 38.8633H38.8516V41.1433H41.1466V38.8633Z" fill="#FAFAFA"/>
<path d="M41.1466 11.4297H38.8516V13.7097H41.1466V11.4297Z" fill="#FAFAFA"/>
<path d="M36.5691 45.7188H34.2891V47.9988H36.5691V45.7188Z" fill="#FAFAFA"/>
<path d="M36.5691 0H34.2891V2.28H36.5691V0Z" fill="#FAFAFA"/>
<path d="M22.8614 11.4297H20.5664V13.7097H22.8614V11.4297Z" fill="#FAFAFA"/>
<path d="M22.8614 2.28125H20.5664V4.57625H22.8614V2.28125Z" fill="#FAFAFA"/>
<path d="M20.5652 41.1445H18.2852V43.4245H20.5652V41.1445Z" fill="#FAFAFA"/>
<path d="M20.5652 13.7109H18.2852V16.0059H20.5652V13.7109Z" fill="#FAFAFA"/>
<path d="M18.2833 38.8633H15.9883V41.1433H18.2833V38.8633Z" fill="#FAFAFA"/>
<path d="M18.2833 16.0039H15.9883V18.2839H18.2833V16.0039Z" fill="#FAFAFA"/>
<path d="M15.9909 43.4258H13.7109V45.7208H15.9909V43.4258Z" fill="#FAFAFA"/>
<path d="M15.9909 36.5703H13.7109V38.8653H15.9909V36.5703Z" fill="#FAFAFA"/>
<path d="M13.7097 34.2891H11.4297V36.5691H13.7097V34.2891Z" fill="#FAFAFA"/>
<path d="M11.4317 31.9961H9.13672V34.2911H11.4317V31.9961Z" fill="#FAFAFA"/>
<path d="M9.13547 29.7148H6.85547V31.9948H9.13547V29.7148Z" fill="#FAFAFA"/>
<path d="M9.13547 4.57422H6.85547V6.85422H9.13547V4.57422Z" fill="#FAFAFA"/>
<path d="M4.57625 36.5703V38.8653H2.28125V41.1453H4.57625V43.4253H6.85625V41.1453H9.13625V38.8653H6.85625V36.5703H4.57625Z" fill="#FAFAFA"/>
<path d="M6.85422 27.4336H4.57422V29.7136H6.85422V27.4336Z" fill="#FAFAFA"/>
<path d="M6.85422 6.85547H4.57422V9.15047H6.85422V6.85547Z" fill="#FAFAFA"/>
<path d="M6.85422 2.28125H4.57422V4.57625H6.85422V2.28125Z" fill="#FAFAFA"/>
<path d="M4.57625 25.1406H2.28125V27.4356H4.57625V25.1406Z" fill="#FAFAFA"/>
<path d="M4.57625 4.57422H2.28125V6.85422H4.57625V4.57422Z" fill="#FAFAFA"/>
<path d="M2.28 31.9961H0V34.2911H2.28V31.9961Z" fill="#FAFAFA"/>
</g>
<defs>
<clipPath id="clip0_581_10226">
<rect width="48" height="48" fill="white"/>
</clipPath>
</defs>
</svg>
