<svg width="72" height="72" viewBox="0 0 72 72" fill="none" xmlns="http://www.w3.org/2000/svg">
<g clip-path="url(#clip0_581_7357)">
<path d="M72.0001 3.44141H68.5801V37.7089H72.0001V3.44141Z" fill="#FAFAFA"/>
<path d="M68.5791 0H30.8691V3.4425H68.5791V0Z" fill="#FAFAFA"/>
<path d="M68.5795 37.7109H54.877V41.1534H68.5795V37.7109Z" fill="#FAFAFA"/>
<path d="M58.297 24.0078H54.877V30.8703H58.297V24.0078Z" fill="#FAFAFA"/>
<path d="M58.297 13.7266H54.877V17.1466H58.297V13.7266Z" fill="#FAFAFA"/>
<path d="M54.878 41.1523H51.4355V44.5723H54.878V41.1523Z" fill="#FAFAFA"/>
<path d="M51.4356 44.5742H48.0156V48.0167H51.4356V44.5742Z" fill="#FAFAFA"/>
<path d="M48.0148 34.2908V37.7108H51.4348V34.2908H54.8773V30.8708H51.4348V24.0083H54.8773V20.5658H51.4348V13.7258H54.8773V10.2833H51.4348V6.86328H48.0148V10.2833H44.5723V13.7258H48.0148V20.5658H44.5723V24.0083H48.0148V30.8708H44.5723V34.2908H48.0148Z" fill="#FAFAFA"/>
<path d="M41.1524 41.1523H37.7324V51.4348H48.0149V48.0148H41.1524V41.1523Z" fill="#FAFAFA"/>
<path d="M44.5723 27.4258H41.1523V30.8683H44.5723V27.4258Z" fill="#FAFAFA"/>
<path d="M44.5723 13.7266H41.1523V20.5666H44.5723V13.7266Z" fill="#FAFAFA"/>
<path d="M41.1516 68.5781H34.2891V71.9981H41.1516V68.5781Z" fill="#FAFAFA"/>
<path d="M34.2902 65.1367H27.4277V68.5792H34.2902V65.1367Z" fill="#FAFAFA"/>
<path d="M30.8702 58.2969H27.4277V61.7169H30.8702V58.2969Z" fill="#FAFAFA"/>
<path d="M30.8702 3.44141H27.4277V24.0064H30.8702V3.44141Z" fill="#FAFAFA"/>
<path d="M10.3047 61.7188V65.1388H17.1447V72.0012H20.5872V65.1388H27.4272V61.7188H10.3047Z" fill="#FAFAFA"/>
<path d="M27.4278 51.4336H24.0078V54.8536H27.4278V51.4336Z" fill="#FAFAFA"/>
<path d="M27.4278 44.5742H24.0078V48.0167H27.4278V44.5742Z" fill="#FAFAFA"/>
<path d="M24.007 54.8555H17.1445V58.298H24.007V54.8555Z" fill="#FAFAFA"/>
<path d="M13.7247 44.5742H10.3047V48.0167H13.7247V44.5742Z" fill="#FAFAFA"/>
<path d="M10.3058 58.2969H6.86328V61.7169H10.3058V58.2969Z" fill="#FAFAFA"/>
<path d="M10.3059 65.1367H3.44336V68.5792H10.3059V65.1367Z" fill="#FAFAFA"/>
<path d="M6.86336 41.1508H10.3059V37.7083H27.4284V41.1508H30.8709V58.2958H34.2909V34.2883H30.8709V30.8683H27.4284V27.4258H10.3059V30.8683H6.86336V34.2883H3.44336V58.2958H6.86336V41.1508Z" fill="#FAFAFA"/>
<path d="M3.4425 68.5781H0V71.9981H3.4425V68.5781Z" fill="#FAFAFA"/>
</g>
<defs>
<clipPath id="clip0_581_7357">
<rect width="72" height="72" fill="white"/>
</clipPath>
</defs>
</svg>
