<svg width="48" height="48" viewBox="0 0 48 48" fill="none" xmlns="http://www.w3.org/2000/svg">
<path d="M27.43 9.14141H32.005V11.4214H34.285V13.7164H36.58V18.2914H38.86V29.7064H36.58V34.2814H34.285V36.5764H32.005V38.8564H27.43V41.1364H16V43.4314H32.005V41.1364H36.58V38.8564H38.86V36.5764H41.155V34.2814H43.435V29.7064H45.715V18.2914H43.435V13.7164H41.155V11.4214H38.86V9.14141H36.58V6.86141H32.005V4.56641H16V6.86141H27.43V9.14141Z" fill="#FAFAFA"/>
<path d="M36.5802 18.293H34.2852V29.708H36.5802V18.293Z" fill="#FAFAFA"/>
<path d="M34.2839 29.707H32.0039V32.002H34.2839V29.707Z" fill="#FAFAFA"/>
<path d="M34.2839 15.9961H32.0039V18.2911H34.2839V15.9961Z" fill="#FAFAFA"/>
<path d="M32.0027 32H29.7227V34.28H32.0027V32Z" fill="#FAFAFA"/>
<path d="M32.0027 13.7148H29.7227V15.9948H32.0027V13.7148Z" fill="#FAFAFA"/>
<path d="M29.7247 34.2812H27.4297V36.5763H29.7247V34.2812Z" fill="#FAFAFA"/>
<path d="M29.7247 11.4219H27.4297V13.7169H29.7247V11.4219Z" fill="#FAFAFA"/>
<path d="M27.43 36.5781H16V38.8581H27.43V36.5781Z" fill="#FAFAFA"/>
<path d="M27.4284 25.1445H25.1484V29.7045H27.4284V25.1445Z" fill="#FAFAFA"/>
<path d="M27.4284 18.293H25.1484V20.573H27.4284V18.293Z" fill="#FAFAFA"/>
<path d="M27.43 9.14062H16V11.4206H27.43V9.14062Z" fill="#FAFAFA"/>
<path d="M20.573 31.9998V34.2798H22.853V31.9998H25.148V29.7048H22.853V25.1448H25.148V22.8498H22.853V18.2898H25.148V15.9948H22.853V13.7148H20.573V15.9948H18.293V18.2898H20.573V22.8498H18.293V25.1448H20.573V29.7048H18.293V31.9998H20.573Z" fill="#FAFAFA"/>
<path d="M18.295 27.4258H16V29.7058H18.295V27.4258Z" fill="#FAFAFA"/>
<path d="M18.295 18.293H16V22.853H18.295V18.293Z" fill="#FAFAFA"/>
<path d="M15.9975 38.8555H11.4375V41.1355H15.9975V38.8555Z" fill="#FAFAFA"/>
<path d="M15.9987 34.2812H13.7188V36.5763H15.9987V34.2812Z" fill="#FAFAFA"/>
<path d="M15.9987 11.4219H13.7188V13.7169H15.9987V11.4219Z" fill="#FAFAFA"/>
<path d="M15.9975 6.86328H11.4375V9.14328H15.9975V6.86328Z" fill="#FAFAFA"/>
<path d="M13.7175 32H11.4375V34.28H13.7175V32Z" fill="#FAFAFA"/>
<path d="M13.7175 13.7148H11.4375V15.9948H13.7175V13.7148Z" fill="#FAFAFA"/>
<path d="M11.4395 36.5781H9.14453V38.8581H11.4395V36.5781Z" fill="#FAFAFA"/>
<path d="M11.4395 29.707H9.14453V32.002H11.4395V29.707Z" fill="#FAFAFA"/>
<path d="M11.4395 15.9961H9.14453V18.2911H11.4395V15.9961Z" fill="#FAFAFA"/>
<path d="M11.4395 9.14062H9.14453V11.4206H11.4395V9.14062Z" fill="#FAFAFA"/>
<path d="M9.14328 34.2812H6.86328V36.5763H9.14328V34.2812Z" fill="#FAFAFA"/>
<path d="M9.14328 18.293H6.86328V29.708H9.14328V18.293Z" fill="#FAFAFA"/>
<path d="M9.14328 11.4219H6.86328V13.7169H9.14328V11.4219Z" fill="#FAFAFA"/>
<path d="M6.86531 29.707H4.57031V34.282H6.86531V29.707Z" fill="#FAFAFA"/>
<path d="M6.86531 13.7148H4.57031V18.2898H6.86531V13.7148Z" fill="#FAFAFA"/>
<path d="M4.56906 18.293H2.28906V29.708H4.56906V18.293Z" fill="#FAFAFA"/>
</svg>
