<svg width="225" height="37" viewBox="0 0 225 37" fill="none" xmlns="http://www.w3.org/2000/svg">
<path d="M16 1H13.2507C11.8194 1 10.4567 1.61338 9.50773 2.68482L2.25706 10.8711C1.44715 11.7855 1 12.9647 1 14.1862V31C1 33.7614 3.23858 36 6 36L16 36" stroke="#FAFAFA" stroke-width="0.5"/>
<path d="M16 1.25H209V0.75H16V1.25ZM209 35.75H16V36.25H209V35.75Z" fill="#FAFAFA"/>
<path d="M26 12.8H28.352L30.688 20.288L33.056 12.8H35.392L37.744 20.256L40.08 12.8H42.416L38.912 24H36.56L34.224 16.512L31.856 24H29.52L26 12.8ZM43.929 24L49.545 12.8H52.041L57.689 24H55.193L53.865 21.36H47.737L46.409 24H43.929ZM48.761 19.312H52.825L50.793 15.28L48.761 19.312ZM63.2361 24V14.864H59.2681V12.8H69.4121V14.864H65.4761V24H63.2361ZM74.9011 18.416C74.9011 20.576 76.5331 22.096 78.8051 22.096C80.4211 22.096 81.6851 21.344 82.3091 20.128H84.6771C83.9891 22.64 81.6851 24.24 78.8051 24.24C75.3011 24.24 72.6611 21.744 72.6611 18.416C72.6611 15.04 75.2851 12.56 78.8051 12.56C81.6851 12.56 83.9731 14.16 84.6771 16.672H82.3091C81.7011 15.44 80.4371 14.704 78.8051 14.704C76.5171 14.704 74.9011 16.208 74.9011 18.416ZM88.8265 24V12.8H91.0665V17.36H97.1945V12.8H99.4345V24H97.1945V19.424H91.0665V24H88.8265ZM113.836 24V14.864H109.868V12.8H120.012V14.864H116.076V24H113.836ZM131.688 24L129.208 20.736H126.168V24H123.928V12.8H129.688C132.088 12.8 134.072 14.384 134.072 16.768C134.072 18.336 133.048 19.648 131.656 20.304L134.472 24H131.688ZM131.832 16.768C131.832 15.664 130.936 14.864 129.688 14.864H126.168V18.64H129.688C130.92 18.64 131.832 17.824 131.832 16.768ZM136.74 24L142.356 12.8H144.852L150.5 24H148.004L146.676 21.36H140.548L139.22 24H136.74ZM141.572 19.312H145.636L143.604 15.28L141.572 19.312ZM156.038 12.8V24H153.798V12.8H156.038ZM160.624 24V12.8H162.864V21.856H169.52V24H160.624ZM174.122 24V12.8H183.37V14.864H176.362V17.36H183.114V19.424H176.362V21.92H183.37V24H174.122ZM195.738 24L193.258 20.736H190.218V24H187.978V12.8H193.738C196.138 12.8 198.122 14.384 198.122 16.768C198.122 18.336 197.098 19.648 195.706 20.304L198.522 24H195.738ZM195.882 16.768C195.882 15.664 194.986 14.864 193.738 14.864H190.218V18.64H193.738C194.97 18.64 195.882 17.824 195.882 16.768Z" fill="#FAFAFA"/>
<path d="M209 36H211.749C213.181 36 214.543 35.3866 215.492 34.3152L222.743 26.1289C223.553 25.2145 224 24.0353 224 22.8138V6.00001C224 3.23858 221.761 1 219 1L209 1" stroke="#FAFAFA" stroke-width="0.5"/>
</svg>
