<svg width="116" height="115" viewBox="0 0 116 115" fill="none" xmlns="http://www.w3.org/2000/svg">
<path d="M107.291 52.0375V62.9984H101.828V68.4609H112.753V46.5391H101.828V52.0375H107.291Z" fill="#FAFAFA"/>
<path d="M101.827 84.8828H96.3281V90.3453H101.827V84.8828Z" fill="#FAFAFA"/>
<path d="M101.827 68.4609H96.3281V79.4219H101.827V68.4609Z" fill="#FAFAFA"/>
<path d="M101.827 35.6133H96.3281V46.5383H101.827V35.6133Z" fill="#FAFAFA"/>
<path d="M101.827 24.6523H96.3281V30.1148H101.827V24.6523Z" fill="#FAFAFA"/>
<path d="M96.3297 90.3477H90.8672V95.8461H96.3297V90.3477Z" fill="#FAFAFA"/>
<path d="M96.3297 79.4219H90.8672V84.8844H96.3297V79.4219Z" fill="#FAFAFA"/>
<path d="M96.3297 30.1133H90.8672V35.6117H96.3297V30.1133Z" fill="#FAFAFA"/>
<path d="M96.3297 19.1914H90.8672V24.6539H96.3297V19.1914Z" fill="#FAFAFA"/>
<path d="M90.8656 95.8438H85.3672V101.306H90.8656V95.8438Z" fill="#FAFAFA"/>
<path d="M90.8656 46.5391H85.3672V68.4609H90.8656V46.5391Z" fill="#FAFAFA"/>
<path d="M90.8656 13.6914H85.3672V19.1898H90.8656V13.6914Z" fill="#FAFAFA"/>
<path d="M85.3688 90.3477H79.9062V95.8461H85.3688V90.3477Z" fill="#FAFAFA"/>
<path d="M85.3688 68.4609H79.9062V79.4219H85.3688V68.4609Z" fill="#FAFAFA"/>
<path d="M85.3688 35.6133H79.9062V46.5383H85.3688V35.6133Z" fill="#FAFAFA"/>
<path d="M85.3688 19.1914H79.9062V24.6539H85.3688V19.1914Z" fill="#FAFAFA"/>
<path d="M79.9062 95.8438H68.9453V101.306H79.9062V95.8438Z" fill="#FAFAFA"/>
<path d="M79.9062 79.4219H68.9453V84.8844H79.9062V79.4219Z" fill="#FAFAFA"/>
<path d="M79.9062 30.1133H68.9453V35.6117H79.9062V30.1133Z" fill="#FAFAFA"/>
<path d="M79.9062 13.6914H68.9453V19.1898H79.9062V13.6914Z" fill="#FAFAFA"/>
<path d="M63.482 106.807H52.5211V101.309H47.0586V112.27H68.9445V101.309H63.482V106.807Z" fill="#FAFAFA"/>
<path d="M68.9445 84.8828H47.0586V90.3453H68.9445V84.8828Z" fill="#FAFAFA"/>
<path d="M52.5211 68.4609H63.482V62.9984H68.9445V52.0375H63.482V46.5391H52.5211V52.0375H47.0586V62.9984H52.5211V68.4609Z" fill="#FAFAFA"/>
<path d="M68.9445 24.6523H47.0586V30.1148H68.9445V24.6523Z" fill="#FAFAFA"/>
<path d="M52.5211 8.22891H63.482V13.6914H68.9445V2.73047H47.0586V13.6914H52.5211V8.22891Z" fill="#FAFAFA"/>
<path d="M47.0586 95.8438H36.0977V101.306H47.0586V95.8438Z" fill="#FAFAFA"/>
<path d="M47.0586 79.4219H36.0977V84.8844H47.0586V79.4219Z" fill="#FAFAFA"/>
<path d="M47.0586 30.1133H36.0977V35.6117H47.0586V30.1133Z" fill="#FAFAFA"/>
<path d="M47.0586 13.6914H36.0977V19.1898H47.0586V13.6914Z" fill="#FAFAFA"/>
<path d="M36.0953 90.3477H30.6328V95.8461H36.0953V90.3477Z" fill="#FAFAFA"/>
<path d="M36.0953 68.4609H30.6328V79.4219H36.0953V68.4609Z" fill="#FAFAFA"/>
<path d="M36.0953 35.6133H30.6328V46.5383H36.0953V35.6133Z" fill="#FAFAFA"/>
<path d="M36.0953 19.1914H30.6328V24.6539H36.0953V19.1914Z" fill="#FAFAFA"/>
<path d="M30.6352 95.8438H25.1367V101.306H30.6352V95.8438Z" fill="#FAFAFA"/>
<path d="M30.6352 46.5391H25.1367V68.4609H30.6352V46.5391Z" fill="#FAFAFA"/>
<path d="M30.6352 13.6914H25.1367V19.1898H30.6352V13.6914Z" fill="#FAFAFA"/>
<path d="M25.1344 90.3477H19.6719V95.8461H25.1344V90.3477Z" fill="#FAFAFA"/>
<path d="M25.1344 79.4219H19.6719V84.8844H25.1344V79.4219Z" fill="#FAFAFA"/>
<path d="M25.1344 30.1133H19.6719V35.6117H25.1344V30.1133Z" fill="#FAFAFA"/>
<path d="M25.1344 19.1914H19.6719V24.6539H25.1344V19.1914Z" fill="#FAFAFA"/>
<path d="M19.6734 84.8828H14.2109V90.3453H19.6734V84.8828Z" fill="#FAFAFA"/>
<path d="M19.6734 68.4609H14.2109V79.4219H19.6734V68.4609Z" fill="#FAFAFA"/>
<path d="M19.6734 35.6133H14.2109V46.5383H19.6734V35.6133Z" fill="#FAFAFA"/>
<path d="M19.6734 24.6523H14.2109V30.1148H19.6734V24.6523Z" fill="#FAFAFA"/>
<path d="M14.2109 62.9984H8.7125V52.0375H14.2109V46.5391H3.25V68.4609H14.2109V62.9984Z" fill="#FAFAFA"/>
</svg>
