<svg width="72" height="72" viewBox="0 0 72 72" fill="none" xmlns="http://www.w3.org/2000/svg">
<path d="M61.7289 6.8625H65.1489V3.42H68.5689V0H48.0039V3.42H61.7289V6.8625Z" fill="#FAFAFA"/>
<path d="M61.7277 6.86328H58.2852V10.2833H61.7277V6.86328Z" fill="#FAFAFA"/>
<path d="M58.2833 10.2812H54.8633V13.7237H58.2833V10.2812Z" fill="#FAFAFA"/>
<path d="M54.8653 13.7266H51.4453V17.1466H54.8653V13.7266Z" fill="#FAFAFA"/>
<path d="M51.4464 17.1445H48.0039V24.007H51.4464V17.1445Z" fill="#FAFAFA"/>
<path d="M51.4464 6.86328H48.0039V10.2833H51.4464V6.86328Z" fill="#FAFAFA"/>
<path d="M48.002 24.0078H44.582V27.4278H48.002V24.0078Z" fill="#FAFAFA"/>
<path d="M48.002 10.2812H44.582V13.7237H48.002V10.2812Z" fill="#FAFAFA"/>
<path d="M48.0031 3.42188H41.1406V6.86437H48.0031V3.42188Z" fill="#FAFAFA"/>
<path d="M44.5831 13.7266H41.1406V17.1466H44.5831V13.7266Z" fill="#FAFAFA"/>
<path d="M44.5813 27.4258H37.7188V30.8683H44.5813V27.4258Z" fill="#FAFAFA"/>
<path d="M41.1388 17.1445H37.7188V20.5645H41.1388V17.1445Z" fill="#FAFAFA"/>
<path d="M41.1388 6.86328H37.7188V10.2833H41.1388V6.86328Z" fill="#FAFAFA"/>
<path d="M6.87219 71.9986H37.7197V68.5786H41.1397V54.8536H37.7197V58.2961H20.5747V54.8536H13.7234V51.4336H6.87219V54.8536H3.42969V68.5786H6.87219V71.9986ZM10.2922 58.2961H13.7234V65.1361H20.5859V68.5786H13.7234V65.1361H10.2922V58.2961Z" fill="#FAFAFA"/>
<path d="M37.7208 20.5664H34.3008V24.0089H37.7208V20.5664Z" fill="#FAFAFA"/>
<path d="M37.7208 10.2812H34.3008V13.7237H37.7208V10.2812Z" fill="#FAFAFA"/>
<path d="M37.718 51.4336H30.8555V54.8536H37.718V51.4336Z" fill="#FAFAFA"/>
<path d="M37.7181 30.8703H30.8556V27.4278H27.4356V24.0078H24.0156V34.2903H37.7181V30.8703Z" fill="#FAFAFA"/>
<path d="M34.298 24.0078H30.8555V27.4278H34.298V24.0078Z" fill="#FAFAFA"/>
<path d="M34.298 13.7266H30.8555V17.1466H34.298V13.7266Z" fill="#FAFAFA"/>
<path d="M30.8575 17.1445H27.4375V24.007H30.8575V17.1445Z" fill="#FAFAFA"/>
<path d="M17.1555 44.5716H27.438V51.4341H30.858V44.5716H34.3005V41.1516H24.018V34.2891H20.5755V41.1516H10.293V44.5716H13.713V51.4341H17.1555V44.5716Z" fill="#FAFAFA"/>
</svg>
