<svg width="159" height="90" viewBox="0 0 159 90" fill="none" xmlns="http://www.w3.org/2000/svg">
<rect x="43.6484" y="86.8945" width="3.11765" height="3.10345" fill="#FAFAFA"/>
<rect width="3.11765" height="3.10345" transform="matrix(-1 0 0 1 115.352 86.8945)" fill="#FAFAFA"/>
<rect x="40.5312" y="83.793" width="3.11765" height="3.10345" fill="#FAFAFA"/>
<rect width="3.11765" height="3.10345" transform="matrix(-1 0 0 1 118.469 83.793)" fill="#FAFAFA"/>
<rect x="37.4141" y="83.793" width="3.11765" height="3.10345" fill="#FAFAFA"/>
<rect width="3.11765" height="3.10345" transform="matrix(-1 0 0 1 121.586 83.793)" fill="#FAFAFA"/>
<rect x="34.2969" y="83.793" width="3.11765" height="3.10345" fill="#FAFAFA"/>
<rect width="3.11765" height="3.10345" transform="matrix(-1 0 0 1 124.703 83.793)" fill="#FAFAFA"/>
<rect x="31.1758" y="80.6875" width="3.11765" height="3.10345" fill="#FAFAFA"/>
<rect width="3.11765" height="3.10345" transform="matrix(-1 0 0 1 127.824 80.6875)" fill="#FAFAFA"/>
<rect x="31.1758" y="77.5859" width="3.11765" height="3.10345" fill="#FAFAFA"/>
<rect width="3.11765" height="3.10345" transform="matrix(-1 0 0 1 127.824 77.5859)" fill="#FAFAFA"/>
<rect x="31.1758" y="74.4844" width="3.11765" height="3.10345" fill="#FAFAFA"/>
<rect width="3.11765" height="3.10345" transform="matrix(-1 0 0 1 127.824 74.4844)" fill="#FAFAFA"/>
<rect x="31.1758" y="71.3789" width="3.11765" height="3.10345" fill="#FAFAFA"/>
<rect width="3.11765" height="3.10345" transform="matrix(-1 0 0 1 127.824 71.3789)" fill="#FAFAFA"/>
<rect x="31.1758" y="68.2773" width="3.11765" height="3.10345" fill="#FAFAFA"/>
<rect width="3.11765" height="3.10345" transform="matrix(-1 0 0 1 127.824 68.2773)" fill="#FAFAFA"/>
<rect x="31.1758" y="65.1719" width="3.11765" height="3.10345" fill="#FAFAFA"/>
<rect width="3.11765" height="3.10345" transform="matrix(-1 0 0 1 127.824 65.1719)" fill="#FAFAFA"/>
<rect x="31.1758" y="62.0703" width="3.11765" height="3.10345" fill="#FAFAFA"/>
<rect width="3.11765" height="3.10345" transform="matrix(-1 0 0 1 127.824 62.0703)" fill="#FAFAFA"/>
<rect x="28.0586" y="68.2773" width="3.11765" height="3.10345" fill="#FAFAFA"/>
<rect width="3.11765" height="3.10345" transform="matrix(-1 0 0 1 130.941 68.2773)" fill="#FAFAFA"/>
<rect x="28.0586" y="65.1719" width="3.11765" height="3.10345" fill="#FAFAFA"/>
<rect width="3.11765" height="3.10345" transform="matrix(-1 0 0 1 130.941 65.1719)" fill="#FAFAFA"/>
<rect x="28.0586" y="62.0703" width="3.11765" height="3.10345" fill="#FAFAFA"/>
<rect width="3.11765" height="3.10345" transform="matrix(-1 0 0 1 130.941 62.0703)" fill="#FAFAFA"/>
<rect x="24.9414" y="62.0703" width="3.11765" height="3.10345" fill="#FAFAFA"/>
<rect width="3.11765" height="3.10345" transform="matrix(-1 0 0 1 134.059 62.0703)" fill="#FAFAFA"/>
<rect x="24.9414" y="58.9648" width="3.11765" height="3.10345" fill="#FAFAFA"/>
<rect width="3.11765" height="3.10345" transform="matrix(-1 0 0 1 134.059 58.9648)" fill="#FAFAFA"/>
<rect x="24.9414" y="55.8633" width="3.11765" height="3.10345" fill="#FAFAFA"/>
<rect width="3.11765" height="3.10345" transform="matrix(-1 0 0 1 134.059 55.8633)" fill="#FAFAFA"/>
<rect x="28.0586" y="55.8633" width="3.11765" height="3.10345" fill="#FAFAFA"/>
<rect width="3.11765" height="3.10345" transform="matrix(-1 0 0 1 130.941 55.8633)" fill="#FAFAFA"/>
<rect x="31.1758" y="58.9648" width="3.11765" height="3.10345" fill="#FAFAFA"/>
<rect width="3.11765" height="3.10345" transform="matrix(-1 0 0 1 127.824 58.9648)" fill="#FAFAFA"/>
<rect x="31.1758" y="52.7578" width="3.11765" height="3.10345" fill="#FAFAFA"/>
<rect width="3.11765" height="3.10345" transform="matrix(-1 0 0 1 127.824 52.7578)" fill="#FAFAFA"/>
<rect x="34.2969" y="58.9648" width="3.11765" height="3.10345" fill="#FAFAFA"/>
<rect width="3.11765" height="3.10345" transform="matrix(-1 0 0 1 124.703 58.9648)" fill="#FAFAFA"/>
<rect x="34.2969" y="52.7578" width="3.11765" height="3.10345" fill="#FAFAFA"/>
<rect width="3.11765" height="3.10345" transform="matrix(-1 0 0 1 124.703 52.7578)" fill="#FAFAFA"/>
<rect x="34.2969" y="49.6562" width="3.11765" height="3.10345" fill="#FAFAFA"/>
<rect width="3.11765" height="3.10345" transform="matrix(-1 0 0 1 124.703 49.6562)" fill="#FAFAFA"/>
<rect x="37.4141" y="58.9648" width="3.11765" height="3.10345" fill="#FAFAFA"/>
<rect width="3.11765" height="3.10345" transform="matrix(-1 0 0 1 121.586 58.9648)" fill="#FAFAFA"/>
<rect x="37.4141" y="52.7578" width="3.11765" height="3.10345" fill="#FAFAFA"/>
<rect width="3.11765" height="3.10345" transform="matrix(-1 0 0 1 121.586 52.7578)" fill="#FAFAFA"/>
<rect x="37.4141" y="49.6562" width="3.11765" height="3.10345" fill="#FAFAFA"/>
<rect width="3.11765" height="3.10345" transform="matrix(-1 0 0 1 121.586 49.6562)" fill="#FAFAFA"/>
<rect x="40.5312" y="49.6562" width="3.11765" height="3.10345" fill="#FAFAFA"/>
<rect width="3.11765" height="3.10345" transform="matrix(-1 0 0 1 118.469 49.6562)" fill="#FAFAFA"/>
<rect x="43.6484" y="49.6562" width="3.11765" height="3.10345" fill="#FAFAFA"/>
<rect width="3.11765" height="3.10345" transform="matrix(-1 0 0 1 115.352 49.6562)" fill="#FAFAFA"/>
<rect x="46.7656" y="49.6562" width="3.11765" height="3.10345" fill="#FAFAFA"/>
<rect width="3.11765" height="3.10345" transform="matrix(-1 0 0 1 112.234 49.6562)" fill="#FAFAFA"/>
<rect x="49.8828" y="49.6562" width="3.11765" height="3.10345" fill="#FAFAFA"/>
<rect width="3.11765" height="3.10345" transform="matrix(-1 0 0 1 109.117 49.6562)" fill="#FAFAFA"/>
<rect x="53" y="49.6562" width="3.11765" height="3.10345" fill="#FAFAFA"/>
<rect width="3.11765" height="3.10345" transform="matrix(-1 0 0 1 106 49.6562)" fill="#FAFAFA"/>
<rect x="56.1172" y="49.6562" width="3.11765" height="3.10345" fill="#FAFAFA"/>
<rect width="3.11765" height="3.10345" transform="matrix(-1 0 0 1 102.883 49.6562)" fill="#FAFAFA"/>
<rect x="59.2344" y="49.6562" width="3.11765" height="3.10345" fill="#FAFAFA"/>
<rect width="3.11765" height="3.10345" transform="matrix(-1 0 0 1 99.7656 49.6562)" fill="#FAFAFA"/>
<rect x="59.2344" y="46.5508" width="3.11765" height="3.10345" fill="#FAFAFA"/>
<rect width="3.11765" height="3.10345" transform="matrix(-1 0 0 1 99.7656 46.5508)" fill="#FAFAFA"/>
<rect x="62.3516" y="43.4492" width="3.11765" height="3.10345" fill="#FAFAFA"/>
<rect width="3.11765" height="3.10345" transform="matrix(-1 0 0 1 96.6484 43.4492)" fill="#FAFAFA"/>
<rect x="62.3516" y="40.3438" width="3.11765" height="3.10345" fill="#FAFAFA"/>
<rect width="3.11765" height="3.10345" transform="matrix(-1 0 0 1 96.6484 40.3438)" fill="#FAFAFA"/>
<rect x="59.2344" y="40.3438" width="3.11765" height="3.10345" fill="#FAFAFA"/>
<rect width="3.11765" height="3.10345" transform="matrix(-1 0 0 1 99.7656 40.3438)" fill="#FAFAFA"/>
<rect x="56.1172" y="40.3438" width="3.11765" height="3.10345" fill="#FAFAFA"/>
<rect width="3.11765" height="3.10345" transform="matrix(-1 0 0 1 102.883 40.3438)" fill="#FAFAFA"/>
<rect x="56.1172" y="43.4492" width="3.11765" height="3.10345" fill="#FAFAFA"/>
<rect width="3.11765" height="3.10345" transform="matrix(-1 0 0 1 102.883 43.4492)" fill="#FAFAFA"/>
<rect x="53" y="43.4492" width="3.11765" height="3.10345" fill="#FAFAFA"/>
<rect width="3.11765" height="3.10345" transform="matrix(-1 0 0 1 106 43.4492)" fill="#FAFAFA"/>
<rect x="49.8828" y="43.4492" width="3.11765" height="3.10345" fill="#FAFAFA"/>
<rect width="3.11765" height="3.10345" transform="matrix(-1 0 0 1 109.117 43.4492)" fill="#FAFAFA"/>
<rect x="46.7656" y="46.5508" width="3.11765" height="3.10345" fill="#FAFAFA"/>
<rect width="3.11765" height="3.10345" transform="matrix(-1 0 0 1 112.234 46.5508)" fill="#FAFAFA"/>
<rect x="46.7656" y="40.3438" width="3.11765" height="3.10345" fill="#FAFAFA"/>
<rect width="3.11765" height="3.10345" transform="matrix(-1 0 0 1 112.234 40.3438)" fill="#FAFAFA"/>
<rect x="43.6484" y="46.5508" width="3.11765" height="3.10345" fill="#FAFAFA"/>
<rect width="3.11765" height="3.10345" transform="matrix(-1 0 0 1 115.352 46.5508)" fill="#FAFAFA"/>
<rect x="43.6484" y="40.3438" width="3.11765" height="3.10345" fill="#FAFAFA"/>
<rect width="3.11765" height="3.10345" transform="matrix(-1 0 0 1 115.352 40.3438)" fill="#FAFAFA"/>
<rect x="40.5312" y="46.5508" width="3.11765" height="3.10345" fill="#FAFAFA"/>
<rect width="3.11765" height="3.10345" transform="matrix(-1 0 0 1 118.469 46.5508)" fill="#FAFAFA"/>
<rect x="37.4141" y="40.3438" width="3.11765" height="3.10345" fill="#FAFAFA"/>
<rect width="3.11765" height="3.10345" transform="matrix(-1 0 0 1 121.586 40.3438)" fill="#FAFAFA"/>
<rect x="40.5312" y="40.3438" width="3.11765" height="3.10345" fill="#FAFAFA"/>
<rect width="3.11765" height="3.10345" transform="matrix(-1 0 0 1 118.469 40.3438)" fill="#FAFAFA"/>
<rect x="40.5312" y="37.2422" width="3.11765" height="3.10345" fill="#FAFAFA"/>
<rect width="3.11765" height="3.10345" transform="matrix(-1 0 0 1 118.469 37.2422)" fill="#FAFAFA"/>
<rect x="40.5312" y="34.1367" width="3.11765" height="3.10345" fill="#FAFAFA"/>
<rect width="3.11765" height="3.10345" transform="matrix(-1 0 0 1 118.469 34.1367)" fill="#FAFAFA"/>
<rect x="40.5312" y="31.0352" width="3.11765" height="3.10345" fill="#FAFAFA"/>
<rect width="3.11765" height="3.10345" transform="matrix(-1 0 0 1 118.469 31.0352)" fill="#FAFAFA"/>
<rect x="37.4141" y="31.0352" width="3.11765" height="3.10345" fill="#FAFAFA"/>
<rect width="3.11765" height="3.10345" transform="matrix(-1 0 0 1 121.586 31.0352)" fill="#FAFAFA"/>
<rect x="37.4141" y="34.1367" width="3.11765" height="3.10345" fill="#FAFAFA"/>
<rect width="3.11765" height="3.10345" transform="matrix(-1 0 0 1 121.586 34.1367)" fill="#FAFAFA"/>
<rect x="37.4141" y="43.4492" width="3.11765" height="3.10345" fill="#FAFAFA"/>
<rect width="3.11765" height="3.10345" transform="matrix(-1 0 0 1 121.586 43.4492)" fill="#FAFAFA"/>
<rect x="34.2969" y="43.4492" width="3.11765" height="3.10345" fill="#FAFAFA"/>
<rect width="3.11765" height="3.10345" transform="matrix(-1 0 0 1 124.703 43.4492)" fill="#FAFAFA"/>
<rect x="31.1758" y="43.4492" width="3.11765" height="3.10345" fill="#FAFAFA"/>
<rect width="3.11765" height="3.10345" transform="matrix(-1 0 0 1 127.824 43.4492)" fill="#FAFAFA"/>
<rect x="31.1758" y="40.3438" width="3.11765" height="3.10345" fill="#FAFAFA"/>
<rect width="3.11765" height="3.10345" transform="matrix(-1 0 0 1 127.824 40.3438)" fill="#FAFAFA"/>
<rect x="28.0586" y="43.4492" width="3.11765" height="3.10345" fill="#FAFAFA"/>
<rect width="3.11765" height="3.10345" transform="matrix(-1 0 0 1 130.941 43.4492)" fill="#FAFAFA"/>
<rect x="28.0586" y="46.5508" width="3.11765" height="3.10345" fill="#FAFAFA"/>
<rect width="3.11765" height="3.10345" transform="matrix(-1 0 0 1 130.941 46.5508)" fill="#FAFAFA"/>
<rect x="28.0586" y="49.6562" width="3.11765" height="3.10345" fill="#FAFAFA"/>
<rect width="3.11765" height="3.10345" transform="matrix(-1 0 0 1 130.941 49.6562)" fill="#FAFAFA"/>
<rect x="24.9414" y="49.6562" width="3.11765" height="3.10345" fill="#FAFAFA"/>
<rect width="3.11765" height="3.10345" transform="matrix(-1 0 0 1 134.059 49.6562)" fill="#FAFAFA"/>
<rect x="21.8242" y="49.6562" width="3.11765" height="3.10345" fill="#FAFAFA"/>
<rect width="3.11765" height="3.10345" transform="matrix(-1 0 0 1 137.176 49.6562)" fill="#FAFAFA"/>
<rect x="18.7031" y="46.5508" width="3.11765" height="3.10345" fill="#FAFAFA"/>
<rect width="3.11765" height="3.10345" transform="matrix(-1 0 0 1 140.297 46.5508)" fill="#FAFAFA"/>
<rect x="18.7031" y="43.4492" width="3.11765" height="3.10345" fill="#FAFAFA"/>
<rect width="3.11765" height="3.10345" transform="matrix(-1 0 0 1 140.297 43.4492)" fill="#FAFAFA"/>
<rect x="18.7031" y="40.3438" width="3.11765" height="3.10345" fill="#FAFAFA"/>
<rect width="3.11765" height="3.10345" transform="matrix(-1 0 0 1 140.297 40.3438)" fill="#FAFAFA"/>
<rect x="21.8242" y="40.3438" width="3.11765" height="3.10345" fill="#FAFAFA"/>
<rect width="3.11765" height="3.10345" transform="matrix(-1 0 0 1 137.176 40.3438)" fill="#FAFAFA"/>
<rect x="18.7031" y="37.2422" width="3.11765" height="3.10345" fill="#FAFAFA"/>
<rect width="3.11765" height="3.10345" transform="matrix(-1 0 0 1 140.297 37.2422)" fill="#FAFAFA"/>
<rect x="21.8242" y="37.2422" width="3.11765" height="3.10345" fill="#FAFAFA"/>
<rect width="3.11765" height="3.10345" transform="matrix(-1 0 0 1 137.176 37.2422)" fill="#FAFAFA"/>
<rect x="18.7031" y="34.1367" width="3.11765" height="3.10345" fill="#FAFAFA"/>
<rect width="3.11765" height="3.10345" transform="matrix(-1 0 0 1 140.297 34.1367)" fill="#FAFAFA"/>
<rect x="18.7031" y="31.0352" width="3.11765" height="3.10345" fill="#FAFAFA"/>
<rect width="3.11765" height="3.10345" transform="matrix(-1 0 0 1 140.297 31.0352)" fill="#FAFAFA"/>
<rect x="15.5859" y="43.4492" width="3.11765" height="3.10345" fill="#FAFAFA"/>
<rect width="3.11765" height="3.10345" transform="matrix(-1 0 0 1 143.414 43.4492)" fill="#FAFAFA"/>
<rect x="15.5859" y="40.3438" width="3.11765" height="3.10345" fill="#FAFAFA"/>
<rect width="3.11765" height="3.10345" transform="matrix(-1 0 0 1 143.414 40.3438)" fill="#FAFAFA"/>
<rect x="15.5859" y="37.2422" width="3.11765" height="3.10345" fill="#FAFAFA"/>
<rect width="3.11765" height="3.10345" transform="matrix(-1 0 0 1 143.414 37.2422)" fill="#FAFAFA"/>
<rect x="15.5859" y="34.1367" width="3.11765" height="3.10345" fill="#FAFAFA"/>
<rect width="3.11765" height="3.10345" transform="matrix(-1 0 0 1 143.414 34.1367)" fill="#FAFAFA"/>
<rect x="12.4688" y="34.1367" width="3.11765" height="3.10345" fill="#FAFAFA"/>
<rect width="3.11765" height="3.10345" transform="matrix(-1 0 0 1 146.531 34.1367)" fill="#FAFAFA"/>
<rect x="15.5859" y="31.0352" width="3.11765" height="3.10345" fill="#FAFAFA"/>
<rect width="3.11765" height="3.10345" transform="matrix(-1 0 0 1 143.414 31.0352)" fill="#FAFAFA"/>
<rect x="12.4688" y="31.0352" width="3.11765" height="3.10345" fill="#FAFAFA"/>
<rect width="3.11765" height="3.10345" transform="matrix(-1 0 0 1 146.531 31.0352)" fill="#FAFAFA"/>
<rect x="9.35156" y="31.0352" width="3.11765" height="3.10345" fill="#FAFAFA"/>
<rect width="3.11765" height="3.10345" transform="matrix(-1 0 0 1 149.648 31.0352)" fill="#FAFAFA"/>
<rect x="9.35156" y="27.9297" width="3.11765" height="3.10345" fill="#FAFAFA"/>
<rect width="3.11765" height="3.10345" transform="matrix(-1 0 0 1 149.648 27.9297)" fill="#FAFAFA"/>
<rect x="6.23438" y="27.9297" width="3.11765" height="3.10345" fill="#FAFAFA"/>
<rect width="3.11765" height="3.10345" transform="matrix(-1 0 0 1 152.766 27.9297)" fill="#FAFAFA"/>
<rect x="9.35156" y="24.8281" width="3.11765" height="3.10345" fill="#FAFAFA"/>
<rect width="3.11765" height="3.10345" transform="matrix(-1 0 0 1 149.648 24.8281)" fill="#FAFAFA"/>
<rect x="6.23438" y="24.8281" width="3.11765" height="3.10345" fill="#FAFAFA"/>
<rect width="3.11765" height="3.10345" transform="matrix(-1 0 0 1 152.766 24.8281)" fill="#FAFAFA"/>
<rect x="6.23438" y="24.8281" width="3.11765" height="3.10345" fill="#FAFAFA"/>
<rect width="3.11765" height="3.10345" transform="matrix(-1 0 0 1 152.766 24.8281)" fill="#FAFAFA"/>
<rect x="6.23438" y="21.7227" width="3.11765" height="3.10345" fill="#FAFAFA"/>
<rect width="3.11765" height="3.10345" transform="matrix(-1 0 0 1 152.766 21.7227)" fill="#FAFAFA"/>
<rect x="3.11719" y="21.7227" width="3.11765" height="3.10345" fill="#FAFAFA"/>
<rect width="3.11765" height="3.10345" transform="matrix(-1 0 0 1 155.883 21.7227)" fill="#FAFAFA"/>
<rect x="3.11719" y="24.8281" width="3.11765" height="3.10345" fill="#FAFAFA"/>
<rect width="3.11765" height="3.10345" transform="matrix(-1 0 0 1 155.883 24.8281)" fill="#FAFAFA"/>
<rect y="24.8281" width="3.11765" height="3.10345" fill="#FAFAFA"/>
<rect width="3.11765" height="3.10345" transform="matrix(-1 0 0 1 159 24.8281)" fill="#FAFAFA"/>
<rect y="27.9297" width="3.11765" height="3.10345" fill="#FAFAFA"/>
<rect width="3.11765" height="3.10345" transform="matrix(-1 0 0 1 159 27.9297)" fill="#FAFAFA"/>
<rect x="15.5859" y="27.9297" width="3.11765" height="3.10345" fill="#FAFAFA"/>
<rect width="3.11765" height="3.10345" transform="matrix(-1 0 0 1 143.414 27.9297)" fill="#FAFAFA"/>
<rect x="21.8242" y="52.7578" width="3.11765" height="3.10345" fill="#FAFAFA"/>
<rect width="3.11765" height="3.10345" transform="matrix(-1 0 0 1 137.176 52.7578)" fill="#FAFAFA"/>
<rect x="65.4688" y="43.4492" width="3.11765" height="3.10345" fill="#FAFAFA"/>
<rect width="3.11765" height="3.10345" transform="matrix(-1 0 0 1 93.5312 43.4492)" fill="#FAFAFA"/>
<rect x="68.5859" y="40.3438" width="3.11765" height="3.10345" fill="#FAFAFA"/>
<rect width="3.11765" height="3.10345" transform="matrix(-1 0 0 1 90.4141 40.3438)" fill="#FAFAFA"/>
<rect x="71.7031" y="37.2422" width="3.11765" height="3.10345" fill="#FAFAFA"/>
<rect width="3.11765" height="3.10345" transform="matrix(-1 0 0 1 87.2969 37.2422)" fill="#FAFAFA"/>
<rect x="74.8242" y="37.2422" width="3.11765" height="3.10345" fill="#FAFAFA"/>
<rect width="3.11765" height="3.10345" transform="matrix(-1 0 0 1 84.1758 37.2422)" fill="#FAFAFA"/>
<rect x="74.8242" y="34.1367" width="3.11765" height="3.10345" fill="#FAFAFA"/>
<rect width="3.11765" height="3.10345" transform="matrix(-1 0 0 1 84.1758 34.1367)" fill="#FAFAFA"/>
<rect x="77.9414" y="31.0352" width="3.11765" height="3.10345" fill="#FAFAFA"/>
<rect x="77.9414" y="27.9297" width="3.11765" height="3.10345" fill="#FAFAFA"/>
<rect x="74.8242" y="27.9297" width="3.11765" height="3.10345" fill="#FAFAFA"/>
<rect width="3.11765" height="3.10345" transform="matrix(-1 0 0 1 84.1758 27.9297)" fill="#FAFAFA"/>
<rect x="71.7031" y="24.8281" width="3.11765" height="3.10345" fill="#FAFAFA"/>
<rect width="3.11765" height="3.10345" transform="matrix(-1 0 0 1 87.2969 24.8281)" fill="#FAFAFA"/>
<rect x="68.5859" y="21.7227" width="3.11765" height="3.10345" fill="#FAFAFA"/>
<rect width="3.11765" height="3.10345" transform="matrix(-1 0 0 1 90.4141 21.7227)" fill="#FAFAFA"/>
<rect x="77.9414" y="24.8281" width="3.11765" height="3.10345" fill="#FAFAFA"/>
<rect x="74.8242" y="24.8281" width="3.11765" height="3.10345" fill="#FAFAFA"/>
<rect width="3.11765" height="3.10345" transform="matrix(-1 0 0 1 84.1758 24.8281)" fill="#FAFAFA"/>
<rect x="71.7031" y="21.7227" width="3.11765" height="3.10345" fill="#FAFAFA"/>
<rect width="3.11765" height="3.10345" transform="matrix(-1 0 0 1 87.2969 21.7227)" fill="#FAFAFA"/>
<rect x="68.5859" y="18.6211" width="3.11765" height="3.10345" fill="#FAFAFA"/>
<rect width="3.11765" height="3.10345" transform="matrix(-1 0 0 1 90.4141 18.6211)" fill="#FAFAFA"/>
<rect x="65.4688" y="18.6211" width="3.11765" height="3.10345" fill="#FAFAFA"/>
<rect width="3.11765" height="3.10345" transform="matrix(-1 0 0 1 93.5312 18.6211)" fill="#FAFAFA"/>
<rect x="62.3516" y="18.6211" width="3.11765" height="3.10345" fill="#FAFAFA"/>
<rect width="3.11765" height="3.10345" transform="matrix(-1 0 0 1 96.6484 18.6211)" fill="#FAFAFA"/>
<rect x="62.3516" y="21.7227" width="3.11765" height="3.10345" fill="#FAFAFA"/>
<rect width="3.11765" height="3.10345" transform="matrix(-1 0 0 1 96.6484 21.7227)" fill="#FAFAFA"/>
<rect x="77.9414" y="21.7227" width="3.11765" height="3.10345" fill="#FAFAFA"/>
<rect x="74.8242" y="21.7227" width="3.11765" height="3.10345" fill="#FAFAFA"/>
<rect width="3.11765" height="3.10345" transform="matrix(-1 0 0 1 84.1758 21.7227)" fill="#FAFAFA"/>
<rect x="71.7031" y="18.6211" width="3.11765" height="3.10345" fill="#FAFAFA"/>
<rect width="3.11765" height="3.10345" transform="matrix(-1 0 0 1 87.2969 18.6211)" fill="#FAFAFA"/>
<rect x="68.5859" y="15.5156" width="3.11765" height="3.10345" fill="#FAFAFA"/>
<rect width="3.11765" height="3.10345" transform="matrix(-1 0 0 1 90.4141 15.5156)" fill="#FAFAFA"/>
<rect x="65.4688" y="15.5156" width="3.11765" height="3.10345" fill="#FAFAFA"/>
<rect width="3.11765" height="3.10345" transform="matrix(-1 0 0 1 93.5312 15.5156)" fill="#FAFAFA"/>
<rect x="77.9414" y="18.6211" width="3.11765" height="3.10345" fill="#FAFAFA"/>
<rect x="77.9414" y="15.5156" width="3.11765" height="3.10345" fill="#FAFAFA"/>
<rect x="74.8242" y="13.6562" width="3.11765" height="3.10345" fill="#FAFAFA"/>
<rect width="3.11765" height="3.10345" transform="matrix(-1 0 0 1 84.1758 13.6562)" fill="#FAFAFA"/>
<rect x="77.9414" y="12.4141" width="3.11765" height="3.10345" fill="#FAFAFA"/>
<rect x="74.8242" y="10.5508" width="3.11765" height="3.10345" fill="#FAFAFA"/>
<rect width="3.11765" height="3.10345" transform="matrix(-1 0 0 1 84.1758 10.5508)" fill="#FAFAFA"/>
<rect x="74.8242" y="7.44922" width="3.11765" height="3.10345" fill="#FAFAFA"/>
<rect width="3.11765" height="3.10345" transform="matrix(-1 0 0 1 84.1758 7.44922)" fill="#FAFAFA"/>
<rect x="71.7031" y="7.44922" width="3.11765" height="3.10345" fill="#FAFAFA"/>
<rect width="3.11765" height="3.10345" transform="matrix(-1 0 0 1 87.2969 7.44922)" fill="#FAFAFA"/>
<rect x="74.8242" y="4.34375" width="3.11765" height="3.10345" fill="#FAFAFA"/>
<rect width="3.11765" height="3.10345" transform="matrix(-1 0 0 1 84.1758 4.34375)" fill="#FAFAFA"/>
<rect x="77.9414" y="9.30859" width="3.11765" height="3.10345" fill="#FAFAFA"/>
<rect x="77.9414" y="6.20703" width="3.11765" height="3.10345" fill="#FAFAFA"/>
<rect x="77.9414" y="3.10156" width="3.11765" height="3.10345" fill="#FAFAFA"/>
<rect x="77.9414" width="3.11765" height="3.10345" fill="#FAFAFA"/>
<rect x="77.9414" y="40.3438" width="3.11765" height="3.10345" fill="#FAFAFA"/>
<rect x="77.9414" y="43.4492" width="3.11765" height="3.10345" fill="#FAFAFA"/>
<rect x="77.9414" y="46.5508" width="3.11765" height="3.10345" fill="#FAFAFA"/>
<rect x="77.9414" y="49.6562" width="3.11765" height="3.10345" fill="#FAFAFA"/>
<rect x="77.9414" y="55.8633" width="3.11765" height="3.10345" fill="#FAFAFA"/>
<rect x="77.9414" y="58.9648" width="3.11765" height="3.10345" fill="#FAFAFA"/>
<rect x="77.9414" y="62.0703" width="3.11765" height="3.10345" fill="#FAFAFA"/>
<rect x="77.9414" y="65.1719" width="3.11765" height="3.10345" fill="#FAFAFA"/>
<rect x="77.9414" y="68.2773" width="3.11765" height="3.10345" fill="#FAFAFA"/>
<rect x="77.9414" y="71.3789" width="3.11765" height="3.10345" fill="#FAFAFA"/>
<rect x="77.9414" y="86.8945" width="3.11765" height="3.10345" fill="#FAFAFA"/>
<rect x="62.3516" y="49.6562" width="3.11765" height="3.10345" fill="#FAFAFA"/>
<rect width="3.11765" height="3.10345" transform="matrix(-1 0 0 1 96.6484 49.6562)" fill="#FAFAFA"/>
<rect x="65.4688" y="49.6562" width="3.11765" height="3.10345" fill="#FAFAFA"/>
<rect width="3.11765" height="3.10345" transform="matrix(-1 0 0 1 93.5312 49.6562)" fill="#FAFAFA"/>
<rect x="68.5859" y="49.6562" width="3.11765" height="3.10345" fill="#FAFAFA"/>
<rect width="3.11765" height="3.10345" transform="matrix(-1 0 0 1 90.4141 49.6562)" fill="#FAFAFA"/>
<rect x="71.7031" y="49.6562" width="3.11765" height="3.10345" fill="#FAFAFA"/>
<rect width="3.11765" height="3.10345" transform="matrix(-1 0 0 1 87.2969 49.6562)" fill="#FAFAFA"/>
<rect x="71.7031" y="46.5508" width="3.11765" height="3.10345" fill="#FAFAFA"/>
<rect width="3.11765" height="3.10345" transform="matrix(-1 0 0 1 87.2969 46.5508)" fill="#FAFAFA"/>
<rect x="74.8242" y="49.6562" width="3.11765" height="3.10345" fill="#FAFAFA"/>
<rect width="3.11765" height="3.10345" transform="matrix(-1 0 0 1 84.1758 49.6562)" fill="#FAFAFA"/>
<rect x="74.8242" y="46.5508" width="3.11765" height="3.10345" fill="#FAFAFA"/>
<rect width="3.11765" height="3.10345" transform="matrix(-1 0 0 1 84.1758 46.5508)" fill="#FAFAFA"/>
<rect x="74.8242" y="43.4492" width="3.11765" height="3.10345" fill="#FAFAFA"/>
<rect width="3.11765" height="3.10345" transform="matrix(-1 0 0 1 84.1758 43.4492)" fill="#FAFAFA"/>
<rect x="40.5312" y="55.8633" width="3.11765" height="3.10345" fill="#FAFAFA"/>
<rect width="3.11765" height="3.10345" transform="matrix(-1 0 0 1 118.469 55.8633)" fill="#FAFAFA"/>
<rect x="43.6484" y="55.8633" width="3.11765" height="3.10345" fill="#FAFAFA"/>
<rect width="3.11765" height="3.10345" transform="matrix(-1 0 0 1 115.352 55.8633)" fill="#FAFAFA"/>
<rect x="46.7656" y="55.8633" width="3.11765" height="3.10345" fill="#FAFAFA"/>
<rect width="3.11765" height="3.10345" transform="matrix(-1 0 0 1 112.234 55.8633)" fill="#FAFAFA"/>
<rect x="46.7656" y="58.9648" width="3.11765" height="3.10345" fill="#FAFAFA"/>
<rect width="3.11765" height="3.10345" transform="matrix(-1 0 0 1 112.234 58.9648)" fill="#FAFAFA"/>
<rect x="40.5312" y="62.0703" width="3.11765" height="3.10345" fill="#FAFAFA"/>
<rect width="3.11765" height="3.10345" transform="matrix(-1 0 0 1 118.469 62.0703)" fill="#FAFAFA"/>
<rect x="49.8828" y="62.0703" width="3.11765" height="3.10345" fill="#FAFAFA"/>
<rect width="3.11765" height="3.10345" transform="matrix(-1 0 0 1 109.117 62.0703)" fill="#FAFAFA"/>
<rect x="59.2344" y="62.0703" width="3.11765" height="3.10345" fill="#FAFAFA"/>
<rect width="3.11765" height="3.10345" transform="matrix(-1 0 0 1 99.7656 62.0703)" fill="#FAFAFA"/>
<rect x="68.5859" y="62.0703" width="3.11765" height="3.10345" fill="#FAFAFA"/>
<rect width="3.11765" height="3.10345" transform="matrix(-1 0 0 1 90.4141 62.0703)" fill="#FAFAFA"/>
<rect x="40.5312" y="65.1719" width="3.11765" height="3.10345" fill="#FAFAFA"/>
<rect width="3.11765" height="3.10345" transform="matrix(-1 0 0 1 118.469 65.1719)" fill="#FAFAFA"/>
<rect x="49.8828" y="65.1719" width="3.11765" height="3.10345" fill="#FAFAFA"/>
<rect width="3.11765" height="3.10345" transform="matrix(-1 0 0 1 109.117 65.1719)" fill="#FAFAFA"/>
<rect x="59.2344" y="65.1719" width="3.11765" height="3.10345" fill="#FAFAFA"/>
<rect width="3.11765" height="3.10345" transform="matrix(-1 0 0 1 99.7656 65.1719)" fill="#FAFAFA"/>
<rect x="68.5859" y="65.1719" width="3.11765" height="3.10345" fill="#FAFAFA"/>
<rect width="3.11765" height="3.10345" transform="matrix(-1 0 0 1 90.4141 65.1719)" fill="#FAFAFA"/>
<rect x="43.6484" y="62.0703" width="3.11765" height="3.10345" fill="#FAFAFA"/>
<rect width="3.11765" height="3.10345" transform="matrix(-1 0 0 1 115.352 62.0703)" fill="#FAFAFA"/>
<rect x="53" y="62.0703" width="3.11765" height="3.10345" fill="#FAFAFA"/>
<rect width="3.11765" height="3.10345" transform="matrix(-1 0 0 1 106 62.0703)" fill="#FAFAFA"/>
<rect x="62.3516" y="62.0703" width="3.11765" height="3.10345" fill="#FAFAFA"/>
<rect width="3.11765" height="3.10345" transform="matrix(-1 0 0 1 96.6484 62.0703)" fill="#FAFAFA"/>
<rect x="71.7031" y="62.0703" width="3.11765" height="3.10345" fill="#FAFAFA"/>
<rect width="3.11765" height="3.10345" transform="matrix(-1 0 0 1 87.2969 62.0703)" fill="#FAFAFA"/>
<rect x="43.6484" y="65.1719" width="3.11765" height="3.10345" fill="#FAFAFA"/>
<rect width="3.11765" height="3.10345" transform="matrix(-1 0 0 1 115.352 65.1719)" fill="#FAFAFA"/>
<rect x="53" y="65.1719" width="3.11765" height="3.10345" fill="#FAFAFA"/>
<rect width="3.11765" height="3.10345" transform="matrix(-1 0 0 1 106 65.1719)" fill="#FAFAFA"/>
<rect x="62.3516" y="65.1719" width="3.11765" height="3.10345" fill="#FAFAFA"/>
<rect width="3.11765" height="3.10345" transform="matrix(-1 0 0 1 96.6484 65.1719)" fill="#FAFAFA"/>
<rect x="71.7031" y="65.1719" width="3.11765" height="3.10345" fill="#FAFAFA"/>
<rect width="3.11765" height="3.10345" transform="matrix(-1 0 0 1 87.2969 65.1719)" fill="#FAFAFA"/>
<rect x="49.8828" y="55.8633" width="3.11765" height="3.10345" fill="#FAFAFA"/>
<rect width="3.11765" height="3.10345" transform="matrix(-1 0 0 1 109.117 55.8633)" fill="#FAFAFA"/>
<rect x="53" y="55.8633" width="3.11765" height="3.10345" fill="#FAFAFA"/>
<rect width="3.11765" height="3.10345" transform="matrix(-1 0 0 1 106 55.8633)" fill="#FAFAFA"/>
<rect x="56.1172" y="55.8633" width="3.11765" height="3.10345" fill="#FAFAFA"/>
<rect width="3.11765" height="3.10345" transform="matrix(-1 0 0 1 102.883 55.8633)" fill="#FAFAFA"/>
<rect x="56.1172" y="58.9648" width="3.11765" height="3.10345" fill="#FAFAFA"/>
<rect width="3.11765" height="3.10345" transform="matrix(-1 0 0 1 102.883 58.9648)" fill="#FAFAFA"/>
<rect x="59.2344" y="55.8633" width="3.11765" height="3.10345" fill="#FAFAFA"/>
<rect width="3.11765" height="3.10345" transform="matrix(-1 0 0 1 99.7656 55.8633)" fill="#FAFAFA"/>
<rect x="62.3516" y="55.8633" width="3.11765" height="3.10345" fill="#FAFAFA"/>
<rect width="3.11765" height="3.10345" transform="matrix(-1 0 0 1 96.6484 55.8633)" fill="#FAFAFA"/>
<rect x="65.4688" y="55.8633" width="3.11765" height="3.10345" fill="#FAFAFA"/>
<rect width="3.11765" height="3.10345" transform="matrix(-1 0 0 1 93.5312 55.8633)" fill="#FAFAFA"/>
<rect x="65.4688" y="58.9648" width="3.11765" height="3.10345" fill="#FAFAFA"/>
<rect width="3.11765" height="3.10345" transform="matrix(-1 0 0 1 93.5312 58.9648)" fill="#FAFAFA"/>
<rect x="68.5859" y="55.8633" width="3.11765" height="3.10345" fill="#FAFAFA"/>
<rect width="3.11765" height="3.10345" transform="matrix(-1 0 0 1 90.4141 55.8633)" fill="#FAFAFA"/>
<rect x="71.7031" y="55.8633" width="3.11765" height="3.10345" fill="#FAFAFA"/>
<rect width="3.11765" height="3.10345" transform="matrix(-1 0 0 1 87.2969 55.8633)" fill="#FAFAFA"/>
<rect x="74.8242" y="55.8633" width="3.11765" height="3.10345" fill="#FAFAFA"/>
<rect width="3.11765" height="3.10345" transform="matrix(-1 0 0 1 84.1758 55.8633)" fill="#FAFAFA"/>
<rect x="74.8242" y="58.9648" width="3.11765" height="3.10345" fill="#FAFAFA"/>
<rect width="3.11765" height="3.10345" transform="matrix(-1 0 0 1 84.1758 58.9648)" fill="#FAFAFA"/>
<rect x="46.7656" y="71.3789" width="3.11765" height="3.10345" fill="#FAFAFA"/>
<rect width="3.11765" height="3.10345" transform="matrix(-1 0 0 1 112.234 71.3789)" fill="#FAFAFA"/>
<rect x="46.7656" y="68.2773" width="3.11765" height="3.10345" fill="#FAFAFA"/>
<rect width="3.11765" height="3.10345" transform="matrix(-1 0 0 1 112.234 68.2773)" fill="#FAFAFA"/>
<rect x="46.7656" y="86.8945" width="3.11765" height="3.10345" fill="#FAFAFA"/>
<rect width="3.11765" height="3.10345" transform="matrix(-1 0 0 1 112.234 86.8945)" fill="#FAFAFA"/>
<rect x="62.3516" y="71.3789" width="3.11765" height="3.10345" fill="#FAFAFA"/>
<rect width="3.11765" height="3.10345" transform="matrix(-1 0 0 1 96.6484 71.3789)" fill="#FAFAFA"/>
<rect x="62.3516" y="86.8945" width="3.11765" height="3.10345" fill="#FAFAFA"/>
<rect width="3.11765" height="3.10345" transform="matrix(-1 0 0 1 96.6484 86.8945)" fill="#FAFAFA"/>
<rect x="34.2969" y="77.5859" width="3.11765" height="3.10345" fill="#FAFAFA"/>
<rect width="3.11765" height="3.10345" transform="matrix(-1 0 0 1 124.703 77.5859)" fill="#FAFAFA"/>
<rect x="34.2969" y="74.4844" width="3.11765" height="3.10345" fill="#FAFAFA"/>
<rect width="3.11765" height="3.10345" transform="matrix(-1 0 0 1 124.703 74.4844)" fill="#FAFAFA"/>
<rect x="34.2969" y="71.3789" width="3.11765" height="3.10345" fill="#FAFAFA"/>
<rect width="3.11765" height="3.10345" transform="matrix(-1 0 0 1 124.703 71.3789)" fill="#FAFAFA"/>
<rect x="34.2969" y="68.2773" width="3.11765" height="3.10345" fill="#FAFAFA"/>
<rect width="3.11765" height="3.10345" transform="matrix(-1 0 0 1 124.703 68.2773)" fill="#FAFAFA"/>
<rect x="34.2969" y="65.1719" width="3.11765" height="3.10345" fill="#FAFAFA"/>
<rect width="3.11765" height="3.10345" transform="matrix(-1 0 0 1 124.703 65.1719)" fill="#FAFAFA"/>
<rect x="34.2969" y="62.0703" width="3.11765" height="3.10345" fill="#FAFAFA"/>
<rect width="3.11765" height="3.10345" transform="matrix(-1 0 0 1 124.703 62.0703)" fill="#FAFAFA"/>
<rect x="49.8828" y="71.3789" width="3.11765" height="3.10345" fill="#FAFAFA"/>
<rect width="3.11765" height="3.10345" transform="matrix(-1 0 0 1 109.117 71.3789)" fill="#FAFAFA"/>
<rect x="49.8828" y="86.8945" width="3.11765" height="3.10345" fill="#FAFAFA"/>
<rect width="3.11765" height="3.10345" transform="matrix(-1 0 0 1 109.117 86.8945)" fill="#FAFAFA"/>
<rect x="65.4688" y="71.3789" width="3.11765" height="3.10345" fill="#FAFAFA"/>
<rect width="3.11765" height="3.10345" transform="matrix(-1 0 0 1 93.5312 71.3789)" fill="#FAFAFA"/>
<rect x="65.4688" y="68.2773" width="3.11765" height="3.10345" fill="#FAFAFA"/>
<rect width="3.11765" height="3.10345" transform="matrix(-1 0 0 1 93.5312 68.2773)" fill="#FAFAFA"/>
<rect x="65.4688" y="86.8945" width="3.11765" height="3.10345" fill="#FAFAFA"/>
<rect width="3.11765" height="3.10345" transform="matrix(-1 0 0 1 93.5312 86.8945)" fill="#FAFAFA"/>
<rect x="37.4141" y="77.5859" width="3.11765" height="3.10345" fill="#FAFAFA"/>
<rect width="3.11765" height="3.10345" transform="matrix(-1 0 0 1 121.586 77.5859)" fill="#FAFAFA"/>
<rect x="37.4141" y="74.4844" width="3.11765" height="3.10345" fill="#FAFAFA"/>
<rect width="3.11765" height="3.10345" transform="matrix(-1 0 0 1 121.586 74.4844)" fill="#FAFAFA"/>
<rect x="37.4141" y="71.3789" width="3.11765" height="3.10345" fill="#FAFAFA"/>
<rect width="3.11765" height="3.10345" transform="matrix(-1 0 0 1 121.586 71.3789)" fill="#FAFAFA"/>
<rect x="37.4141" y="68.2773" width="3.11765" height="3.10345" fill="#FAFAFA"/>
<rect width="3.11765" height="3.10345" transform="matrix(-1 0 0 1 121.586 68.2773)" fill="#FAFAFA"/>
<rect x="53" y="71.3789" width="3.11765" height="3.10345" fill="#FAFAFA"/>
<rect width="3.11765" height="3.10345" transform="matrix(-1 0 0 1 106 71.3789)" fill="#FAFAFA"/>
<rect x="53" y="86.8945" width="3.11765" height="3.10345" fill="#FAFAFA"/>
<rect width="3.11765" height="3.10345" transform="matrix(-1 0 0 1 106 86.8945)" fill="#FAFAFA"/>
<rect x="68.5859" y="71.3789" width="3.11765" height="3.10345" fill="#FAFAFA"/>
<rect width="3.11765" height="3.10345" transform="matrix(-1 0 0 1 90.4141 71.3789)" fill="#FAFAFA"/>
<rect x="68.5859" y="86.8945" width="3.11765" height="3.10345" fill="#FAFAFA"/>
<rect width="3.11765" height="3.10345" transform="matrix(-1 0 0 1 90.4141 86.8945)" fill="#FAFAFA"/>
<rect x="40.5312" y="74.4844" width="3.11765" height="3.10345" fill="#FAFAFA"/>
<rect width="3.11765" height="3.10345" transform="matrix(-1 0 0 1 118.469 74.4844)" fill="#FAFAFA"/>
<rect x="40.5312" y="71.3789" width="3.11765" height="3.10345" fill="#FAFAFA"/>
<rect width="3.11765" height="3.10345" transform="matrix(-1 0 0 1 118.469 71.3789)" fill="#FAFAFA"/>
<rect x="56.1172" y="71.3789" width="3.11765" height="3.10345" fill="#FAFAFA"/>
<rect width="3.11765" height="3.10345" transform="matrix(-1 0 0 1 102.883 71.3789)" fill="#FAFAFA"/>
<rect x="56.1172" y="68.2773" width="3.11765" height="3.10345" fill="#FAFAFA"/>
<rect width="3.11765" height="3.10345" transform="matrix(-1 0 0 1 102.883 68.2773)" fill="#FAFAFA"/>
<rect x="56.1172" y="86.8945" width="3.11765" height="3.10345" fill="#FAFAFA"/>
<rect width="3.11765" height="3.10345" transform="matrix(-1 0 0 1 102.883 86.8945)" fill="#FAFAFA"/>
<rect x="71.7031" y="71.3789" width="3.11765" height="3.10345" fill="#FAFAFA"/>
<rect width="3.11765" height="3.10345" transform="matrix(-1 0 0 1 87.2969 71.3789)" fill="#FAFAFA"/>
<rect x="71.7031" y="86.8945" width="3.11765" height="3.10345" fill="#FAFAFA"/>
<rect width="3.11765" height="3.10345" transform="matrix(-1 0 0 1 87.2969 86.8945)" fill="#FAFAFA"/>
<rect x="43.6484" y="74.4844" width="3.11765" height="3.10345" fill="#FAFAFA"/>
<rect width="3.11765" height="3.10345" transform="matrix(-1 0 0 1 115.352 74.4844)" fill="#FAFAFA"/>
<rect x="43.6484" y="71.3789" width="3.11765" height="3.10345" fill="#FAFAFA"/>
<rect width="3.11765" height="3.10345" transform="matrix(-1 0 0 1 115.352 71.3789)" fill="#FAFAFA"/>
<rect x="59.2344" y="71.3789" width="3.11765" height="3.10345" fill="#FAFAFA"/>
<rect width="3.11765" height="3.10345" transform="matrix(-1 0 0 1 99.7656 71.3789)" fill="#FAFAFA"/>
<rect x="59.2344" y="86.8945" width="3.11765" height="3.10345" fill="#FAFAFA"/>
<rect width="3.11765" height="3.10345" transform="matrix(-1 0 0 1 99.7656 86.8945)" fill="#FAFAFA"/>
<rect x="74.8242" y="71.3789" width="3.11765" height="3.10345" fill="#FAFAFA"/>
<rect width="3.11765" height="3.10345" transform="matrix(-1 0 0 1 84.1758 71.3789)" fill="#FAFAFA"/>
<rect x="74.8242" y="68.2773" width="3.11765" height="3.10345" fill="#FAFAFA"/>
<rect width="3.11765" height="3.10345" transform="matrix(-1 0 0 1 84.1758 68.2773)" fill="#FAFAFA"/>
<rect x="74.8242" y="86.8945" width="3.11765" height="3.10345" fill="#FAFAFA"/>
<rect width="3.11765" height="3.10345" transform="matrix(-1 0 0 1 84.1758 86.8945)" fill="#FAFAFA"/>
</svg>
