<svg width="163" height="88" viewBox="0 0 163 88" fill="none" xmlns="http://www.w3.org/2000/svg">
<path d="M114.995 56.9702C112.753 57.4848 106.851 57.781 106.851 57.781L106.104 60.1197C106.104 60.1197 109.047 59.8702 111.195 60.0885C111.195 60.0885 111.896 60.0105 111.974 60.8836C112.005 61.6944 111.912 62.5675 111.912 62.5675C111.912 62.5675 111.865 63.0976 111.118 63.2223C110.308 63.3626 104.765 63.5653 104.765 63.5653L103.862 66.6056C103.862 66.6056 103.535 67.3072 104.282 67.1045C104.983 66.9174 110.791 65.826 111.554 65.982C112.363 66.1846 113.266 67.2604 113.002 68.2583C112.69 69.4744 106.898 73.1851 103.364 72.92C103.364 72.92 101.511 73.0448 99.9381 70.5346C98.4745 68.1491 100.499 63.6121 100.499 63.6121C100.499 63.6121 99.58 61.4917 100.249 60.7901C100.249 60.7901 100.654 60.4315 101.807 60.3379L103.223 57.3912C103.223 57.3912 101.604 57.5003 100.639 56.3154C99.7357 55.1773 99.6734 54.6627 100.358 54.3509C101.09 53.9923 107.832 52.7606 112.472 52.9165C112.472 52.9165 114.092 52.7606 115.477 55.567C115.462 55.567 116.147 56.7052 114.995 56.9702ZM97.5402 68.2895C96.9486 69.6927 95.3759 71.1894 93.4296 70.254C91.4989 69.3185 88.4315 63.0352 88.4315 63.0352C88.4315 63.0352 87.2638 60.6965 87.0458 60.7433C87.0458 60.7433 86.7967 60.2912 86.641 62.8481C86.4853 65.4051 86.6721 70.3787 85.66 71.1582C84.6947 71.9378 83.5269 71.626 82.9196 70.7061C82.3747 69.8018 82.1411 67.6502 82.4369 63.8772C82.7951 60.1041 83.667 56.0815 84.7881 54.8187C85.9091 53.5714 86.8122 54.4757 87.1548 54.8031C87.1548 54.8031 88.6495 56.1595 91.1252 60.1509L91.5612 60.8836C91.5612 60.8836 93.8033 64.6567 94.0369 64.6411C94.0369 64.6411 94.2237 64.8126 94.3794 64.6879C94.613 64.6255 94.5196 63.4094 94.5196 63.4094C94.5196 63.4094 94.0525 59.3089 92.0127 52.3553C92.0127 52.3553 91.7013 51.4821 91.9193 50.6714C92.1217 49.8451 92.947 50.2348 92.947 50.2348C92.947 50.2348 96.1233 51.8251 97.6492 57.0014C99.1596 62.2245 98.1319 66.8863 97.5402 68.2895ZM81.9387 54.9902C81.674 55.5203 81.5183 56.2842 80.1792 56.4869C80.1792 56.4869 67.3648 57.36 66.7575 58.2643C66.7575 58.2643 66.306 58.7944 67.0067 58.9503C67.7073 59.0906 70.6034 59.4804 72.0048 59.5584C73.4995 59.574 78.5443 59.6208 80.3505 61.8815C80.3505 61.8815 81.4249 62.9573 81.3782 65.3895C81.3314 67.8841 80.8955 68.7572 79.9301 69.6615C78.918 70.5034 70.2297 74.4012 64.6244 68.4142C64.6244 68.4142 62.0397 65.5298 65.5119 63.347C65.5119 63.347 68.0187 61.8347 74.387 63.6121C74.387 63.6121 76.3178 64.3137 76.2243 65.0153C76.1154 65.7637 74.6362 66.5588 72.4874 66.5121C70.401 66.4497 68.8751 65.4519 69.171 65.6078C69.4512 65.7169 66.9288 64.3917 66.1503 65.296C65.3718 66.1223 65.5586 66.6368 66.3216 67.1513C68.2679 68.2583 75.7884 67.8685 78.0305 65.3739C78.0305 65.3739 78.918 64.3605 77.5634 63.5341C76.2088 62.7546 72.3317 62.2868 70.8214 62.2089C69.3734 62.1309 63.986 62.2245 63.2075 60.7901C63.2075 60.7901 62.429 59.8234 63.2853 57.0794C64.1884 54.2106 70.4633 53.1036 73.1726 52.8542C73.1726 52.8542 80.6308 52.5891 82.001 54.1171C81.9854 54.1171 82.1722 54.4757 81.9387 54.9902ZM60.7629 71.8131C59.8599 72.4835 57.9447 72.1873 57.3997 71.4389C56.8548 70.7685 56.6679 68.1024 56.7769 63.9239C56.8859 59.6987 56.9793 54.4601 57.8824 53.6337C58.8478 52.7918 59.4394 53.5246 59.8131 54.1015C60.218 54.6627 60.7006 55.2864 60.8096 56.6116C60.9031 57.9369 61.2145 64.8906 61.2145 64.8906C61.2145 64.8906 61.6193 71.1582 60.7629 71.8131ZM62.7092 49.3929C60.0778 50.266 58.2717 49.9698 56.7458 49.315C56.0762 50.4843 55.687 50.8429 55.1732 50.9209C54.4258 50.9988 53.7563 49.7983 53.6317 49.4085C53.5071 49.1123 53.149 48.6134 53.585 47.4284C52.0902 46.0876 51.9812 44.279 52.2304 43.0629C52.604 41.6597 55.1264 36.3275 62.8027 35.7038C62.8027 35.7038 66.5551 35.4232 67.1935 37.4345H67.3025C67.3025 37.4345 70.946 37.4501 70.8681 40.693C70.8214 43.9516 66.8198 48.0053 62.7092 49.3929ZM55.5468 42.1742C54.7683 43.4215 54.7372 44.1699 55.0953 44.6844C55.9828 43.3279 57.6021 41.192 59.9844 39.5705C58.1471 39.7264 56.6056 40.5215 55.5468 42.1742ZM66.1503 40.085C63.7369 40.4436 60 43.6865 58.225 46.337C60.9498 46.836 65.761 46.6489 67.8942 42.2989C67.8786 42.2989 68.9063 39.6016 66.1503 40.085ZM131.671 65.2024C130.223 67.7282 126.159 72.998 120.74 71.7663C118.95 76.1162 117.455 80.4974 116.598 87.0769C116.598 87.0769 116.412 88.3553 115.353 87.9032C114.31 87.529 112.566 85.7828 112.223 83.3661C111.849 80.1855 113.266 74.8066 116.147 68.6481C115.306 67.276 114.73 65.3115 115.228 62.5207C115.228 62.5207 115.96 57.3444 121.145 52.6671C121.145 52.6671 121.768 52.1214 122.126 52.2929C122.531 52.4644 122.344 54.1482 122.017 54.959C121.69 55.7697 119.37 59.7923 119.37 59.7923C119.37 59.7923 117.922 62.5051 118.327 64.6411C121.052 60.4471 127.249 51.9811 131.094 54.6472C132.387 55.567 132.978 57.5783 132.978 59.7455C132.963 61.6632 132.511 63.6901 131.671 65.2024ZM130.549 58.5605C130.549 58.5605 130.332 56.8923 128.712 58.7321C127.311 60.2756 124.788 63.1911 122.749 67.1357C124.882 66.9018 126.937 65.7325 127.56 65.14C128.572 64.2357 130.923 61.8035 130.549 58.5605ZM54.9552 60.681C54.6593 64.454 53.2113 70.7996 42.9504 73.9335C36.1773 75.9759 29.7778 74.9937 26.2901 74.105C26.2122 75.4926 26.0565 76.0851 25.8385 76.3189C25.5427 76.6152 23.3317 77.8936 22.1172 76.0851C21.5722 75.2275 21.292 73.6684 21.1362 72.2808C13.2888 68.6637 9.67642 63.4562 9.53629 63.2223C9.36502 63.0508 7.57442 61.1799 9.36502 58.888C11.0466 56.8143 16.543 54.7407 21.4944 53.8988C21.6656 49.658 22.1639 46.4618 22.7556 44.9962C23.4718 43.2968 24.3749 44.8247 25.1534 45.9785C25.8074 46.836 26.1966 50.5311 26.2278 53.4778C29.4664 53.3219 31.3816 53.5558 34.9939 54.2106C39.6962 55.0681 42.8414 57.4692 42.5611 60.1976C42.3587 62.8793 39.8986 63.9863 38.9644 64.0642C37.9834 64.1422 36.4575 63.4406 36.4575 63.4406C35.4143 62.9417 36.3797 62.5051 37.6409 61.9594C39.0111 61.289 38.6997 60.603 38.6997 60.603C38.1858 59.1062 32.0822 58.0616 26.0098 58.0616C25.9786 61.4137 26.1499 66.9798 26.2278 70.2228C30.4785 71.0335 33.6549 70.8776 33.6549 70.8776C33.6549 70.8776 49.163 70.441 49.6301 60.525C50.1128 50.5934 34.1687 41.0672 22.3819 38.0425C10.6107 34.9555 3.94652 37.1071 3.37041 37.4033C2.74759 37.7151 3.3237 37.8087 3.3237 37.8087C3.3237 37.8087 3.96209 37.9022 5.06758 38.2764C6.23536 38.6506 5.33228 39.2586 5.33228 39.2586C3.3237 39.8979 1.06599 39.4925 0.630018 38.5726C0.194047 37.6527 0.925856 36.8264 1.76666 35.6415C2.60746 34.3942 3.52611 34.441 3.52611 34.441C18.0844 29.3894 35.8191 38.5259 35.8191 38.5259C52.4328 46.9607 55.2666 56.8455 54.9552 60.681ZM11.0155 60.1664C9.36502 60.9772 10.5017 62.1465 10.5017 62.1465C13.6002 65.483 17.4149 67.5723 21.0428 68.8663C21.4632 63.1132 21.4009 61.0863 21.4477 58.1864C15.78 58.5761 12.5102 59.4804 11.0155 60.1664Z" fill="#FAFAFA"/>
<path d="M162.5 58.9815V61.0396C162.5 61.4917 162.142 61.8503 161.69 61.8503H151.897C151.897 62.3648 151.912 62.8169 151.912 63.2379C151.912 66.2782 151.788 68.7572 151.492 71.548C151.445 71.969 151.102 72.2808 150.698 72.2808H148.58C148.362 72.2808 148.16 72.1873 148.02 72.0313C147.879 71.8754 147.802 71.6572 147.833 71.4389C148.129 68.6637 148.269 66.2158 148.269 63.2379C148.269 62.8014 148.269 62.3492 148.253 61.8503H138.568C138.117 61.8503 137.759 61.4917 137.759 61.0396V58.9815C137.759 58.5294 138.117 58.1708 138.568 58.1708H148.113C147.911 54.8187 147.506 51.5913 146.852 48.3171C146.821 48.1144 146.867 47.9118 146.992 47.7558C147.116 47.5999 147.303 47.5064 147.506 47.5064H149.795C150.153 47.5064 150.449 47.7558 150.526 48.1144C151.165 51.4977 151.57 54.7875 151.772 58.1708H161.69C162.126 58.1708 162.5 58.545 162.5 58.9815Z" fill="#FAFAFA"/>
<path d="M149.172 42.6575C144.111 30.2002 135.563 19.5826 124.446 11.9429C113.064 4.13167 99.72 0 85.8623 0C62.9427 0 41.6735 11.3972 28.9836 30.4964C28.8435 30.6991 28.8123 30.9641 28.8902 31.198C28.968 31.4475 29.1549 31.619 29.3884 31.6969L31.1635 32.305C31.2725 32.3362 31.3815 32.3517 31.4749 32.3517C31.8019 32.3517 32.1133 32.1802 32.3001 31.9152C38.1234 23.34 46.0021 16.2148 55.0952 11.288C64.4841 6.2053 75.1187 3.50802 85.8467 3.50802C98.8169 3.50802 111.32 7.34346 122.032 14.5778C132.48 21.6406 140.592 31.5098 145.497 43.0941C145.637 43.4371 145.98 43.671 146.353 43.671H148.471C148.72 43.671 148.954 43.5462 149.078 43.3435C149.234 43.1409 149.265 42.8914 149.172 42.6575ZM31.475 31.8216H31.506C31.506 31.8216 31.4906 31.8216 31.475 31.8216ZM145.917 43.3903C145.964 43.4215 146.011 43.4527 146.058 43.4683C146.011 43.4371 145.964 43.4215 145.917 43.3903Z" fill="#FAFAFA"/>
</svg>
