<svg width="1440" height="30" viewBox="0 0 1440 30" fill="none" xmlns="http://www.w3.org/2000/svg">
<path d="M160.858 21.8579L163.142 24.1421C166.893 27.8929 171.98 30 177.284 30H277.75H378.216C383.52 30 388.607 27.8929 392.358 24.1421L394.642 21.8579C398.393 18.1071 403.48 16 408.784 16H1040.72C1046.02 16 1051.11 13.8929 1054.86 10.1421L1059.14 5.85786C1062.89 2.10713 1067.98 0 1073.28 0H1440V30H378.216H277.75H177.284H0V0H17.2157C22.5201 0 27.6071 2.10713 31.3579 5.85786L35.6421 10.1421C39.3929 13.8929 44.4799 16 49.7843 16H146.716C152.02 16 157.107 18.1071 160.858 21.8579Z" fill="#0E0E0E"/>
</svg>
