<svg width="72" height="72" viewBox="0 0 72 72" fill="none" xmlns="http://www.w3.org/2000/svg">
<g clip-path="url(#clip0_581_7272)">
<path d="M72.0001 24.0078H68.5801V27.4278H72.0001V24.0078Z" fill="#FAFAFA"/>
<path d="M68.58 20.5875V13.725H72V10.2825H65.1375V13.725H61.7175V17.145H58.2975V20.5875H54.855V10.2825H51.435V3.4425H47.9925V10.2825H44.5725V17.145H41.1525V13.725H37.71V6.8625H41.1525V0H34.29V3.4425H30.87V6.8625H27.4275V13.725H24.0075V17.145H20.565V10.2825H17.145V6.8625H13.725V3.4425H6.8625V6.8625H10.2825V17.145H6.8625V24.0075H10.2825V27.4275H3.42V24.0075H0V34.29H3.42V41.1525H6.8625V37.7325H10.2825V30.87H13.725V17.145H17.145V20.5875H20.565V24.0075H27.4275V20.5875H30.87V13.725H34.29V20.5875H47.9925V17.145H51.435V27.4275H58.2975V37.7325H61.7175V44.5725H65.1375V37.7325H68.58V27.4275H65.1375V20.5875H68.58Z" fill="#FAFAFA"/>
<path d="M65.1368 3.44141H61.7168V6.86141H65.1368V3.44141Z" fill="#FAFAFA"/>
<path d="M61.7169 6.86328H58.2969V10.2833H61.7169V6.86328Z" fill="#FAFAFA"/>
<path d="M58.298 0H54.8555V3.4425H58.298V0Z" fill="#FAFAFA"/>
<path d="M54.8555 54.8555H51.4355V61.718H54.8555V54.8555Z" fill="#FAFAFA"/>
<path d="M51.4355 44.5716H54.8555V54.8541H58.298V41.1516H54.8555V34.2891H51.4355V44.5716Z" fill="#FAFAFA"/>
<path d="M51.4347 61.7188H47.9922V65.1612H51.4347V61.7188Z" fill="#FAFAFA"/>
<path d="M51.4347 44.5742H47.9922V48.0167H51.4347V44.5742Z" fill="#FAFAFA"/>
<path d="M51.4347 30.8711H47.9922V34.2911H51.4347V30.8711Z" fill="#FAFAFA"/>
<path d="M47.9923 54.8555H44.5723V61.718H47.9923V54.8555Z" fill="#FAFAFA"/>
<path d="M47.9923 41.1523H44.5723V44.5723H47.9923V41.1523Z" fill="#FAFAFA"/>
<path d="M47.9923 65.1602H41.1523V68.5802H47.9923V65.1602Z" fill="#FAFAFA"/>
<path d="M44.5723 51.4336H41.1523V54.8536H44.5723V51.4336Z" fill="#FAFAFA"/>
<path d="M44.5723 37.7344H41.1523V41.1544H44.5723V37.7344Z" fill="#FAFAFA"/>
<path d="M47.9923 27.4258H41.1523V30.8683H47.9923V27.4258Z" fill="#FAFAFA"/>
<path d="M41.1516 48.0156H34.2891V51.4356H41.1516V48.0156Z" fill="#FAFAFA"/>
<path d="M41.1534 30.8711H37.7109V37.7336H41.1534V30.8711Z" fill="#FAFAFA"/>
<path d="M34.2902 61.7188H30.8702V68.5812H27.4277V72.0012H41.1527V68.5812H34.2902V61.7188Z" fill="#FAFAFA"/>
<path d="M37.7091 54.8555H34.2891V61.718H37.7091V54.8555Z" fill="#FAFAFA"/>
<path d="M34.2891 51.4336H30.8691V54.8536H34.2891V51.4336Z" fill="#FAFAFA"/>
<path d="M30.8702 37.7344H27.4277V44.5744H30.8702V37.7344Z" fill="#FAFAFA"/>
<path d="M27.427 65.1602H20.5645V68.5802H27.427V65.1602Z" fill="#FAFAFA"/>
<path d="M27.4278 44.5742H24.0078V48.0167H27.4278V44.5742Z" fill="#FAFAFA"/>
<path d="M27.4278 34.2891H24.0078V37.7316H27.4278V34.2891Z" fill="#FAFAFA"/>
<path d="M20.5645 27.4278V30.8703H27.427V34.2903H30.8695V27.4278H41.152V24.0078H27.427V27.4278H20.5645Z" fill="#FAFAFA"/>
<path d="M24.007 48.0156H20.5645V51.4356H24.007V48.0156Z" fill="#FAFAFA"/>
<path d="M24.007 3.44141H20.5645V6.86141H24.007V3.44141Z" fill="#FAFAFA"/>
<path d="M20.5645 61.7188H17.1445V65.1612H20.5645V61.7188Z" fill="#FAFAFA"/>
<path d="M20.5645 44.5742H17.1445V48.0167H20.5645V44.5742Z" fill="#FAFAFA"/>
<path d="M20.5645 30.8711H17.1445V34.2911H20.5645V30.8711Z" fill="#FAFAFA"/>
<path d="M20.5645 0H17.1445V3.4425H20.5645V0Z" fill="#FAFAFA"/>
<path d="M17.1446 54.8555H13.7246V61.718H17.1446V54.8555Z" fill="#FAFAFA"/>
<path d="M13.7257 44.5716H17.1457V34.2891H13.7257V41.1516H10.2832V54.8541H13.7257V44.5716Z" fill="#FAFAFA"/>
<path d="M6.86242 10.2812H3.41992V13.7237H6.86242V10.2812Z" fill="#FAFAFA"/>
<path d="M3.42 6.86328H0V10.2833H3.42V6.86328Z" fill="#FAFAFA"/>
</g>
<defs>
<clipPath id="clip0_581_7272">
<rect width="72" height="72" fill="white"/>
</clipPath>
</defs>
</svg>
