<svg width="85" height="84" viewBox="0 0 85 84" fill="none" xmlns="http://www.w3.org/2000/svg">
<g opacity="0.3">
<circle cx="2.82618" cy="28.2188" r="1.3125" fill="#FAFAFA"/>
<circle cx="11.3574" cy="35.4375" r="1.3125" fill="#FAFAFA"/>
<circle cx="31.7012" cy="20.3438" r="1.3125" fill="#FAFAFA"/>
<circle cx="15.9512" cy="15.0938" r="1.3125" fill="#FAFAFA"/>
<circle cx="17.9199" cy="7.875" r="1.3125" fill="#FAFAFA"/>
<circle cx="35.6387" cy="5.90625" r="1.3125" fill="#FAFAFA"/>
<circle cx="42.2012" cy="1.3125" r="1.3125" fill="#FAFAFA"/>
<circle cx="57.2949" cy="3.28125" r="1.3125" fill="#FAFAFA"/>
<circle cx="66.4824" cy="9.84375" r="1.3125" fill="#FAFAFA"/>
<circle cx="75.0156" cy="17.7188" r="1.3125" fill="#FAFAFA"/>
<circle cx="82.2324" cy="30.8438" r="1.3125" fill="#FAFAFA"/>
<circle cx="82.8887" cy="38.0625" r="1.3125" fill="#FAFAFA"/>
<circle cx="82.2324" cy="55.7813" r="1.3125" fill="#FAFAFA"/>
<circle cx="75.0156" cy="58.4063" r="1.3125" fill="#FAFAFA"/>
<circle cx="66.4824" cy="75.4688" r="1.3125" fill="#FAFAFA"/>
<circle cx="49.4199" cy="81.375" r="1.3125" fill="#FAFAFA"/>
<circle cx="57.2949" cy="72.1875" r="1.3125" fill="#FAFAFA"/>
<circle cx="42.2012" cy="82.6875" r="1.3125" fill="#FAFAFA"/>
<circle cx="27.7637" cy="80.7188" r="1.3125" fill="#FAFAFA"/>
<circle cx="18.5762" cy="74.1562" r="1.3125" fill="#FAFAFA"/>
<circle cx="10.0449" cy="66.9375" r="1.3125" fill="#FAFAFA"/>
<circle cx="15.9512" cy="57.75" r="1.3125" fill="#FAFAFA"/>
<circle cx="2.82618" cy="53.1563" r="1.3125" fill="#FAFAFA"/>
<circle cx="2.16993" cy="44.625" r="1.3125" fill="#FAFAFA"/>
<circle cx="31.7012" cy="45.2813" r="1.3125" fill="#FAFAFA"/>
<circle cx="50.0762" cy="32.1563" r="1.3125" fill="#FAFAFA"/>
<circle cx="55.3262" cy="13.125" r="1.3125" fill="#FAFAFA"/>
<circle cx="55.9824" cy="53.8125" r="1.3125" fill="#FAFAFA"/>
<circle cx="70.4199" cy="33.4688" r="1.3125" fill="#FAFAFA"/>
<circle cx="35.6387" cy="68.9062" r="1.3125" fill="#FAFAFA"/>
<path d="M2.82617 53.1564L10.0449 66.9377L18.5762 74.1565M2.82617 53.1564L2.16992 44.6251L2.82617 28.2188M2.82617 53.1564L18.5762 74.1565M2.82617 53.1564L15.9512 57.7502M2.82617 53.1564L11.3574 35.4376M2.82617 53.1564V28.2188M2.82617 28.2188L17.92 7.87502M2.82617 28.2188L11.3574 35.4376M2.82617 28.2188L15.9512 15.0938M17.92 7.87502L35.6388 5.90626M17.92 7.87502L15.9512 15.0938M17.92 7.87502L42.2013 1.3125M35.6388 5.90626L42.2013 1.3125M35.6388 5.90626L57.2951 3.28126M35.6388 5.90626L55.3263 13.125M35.6388 5.90626L31.7013 20.3438M35.6388 5.90626L15.9512 15.0938M42.2013 1.3125L57.2951 3.28126M57.2951 3.28126L66.4826 9.84378L75.0139 17.7188M57.2951 3.28126L55.3263 13.125M75.0139 17.7188L82.2327 30.8438L82.8889 38.0626M75.0139 17.7188L70.4201 33.4688M75.0139 17.7188L55.3263 13.125M75.0139 17.7188L82.8889 38.0626M82.8889 38.0626L82.2327 55.7814M82.8889 38.0626L75.0139 58.4064M82.8889 38.0626L70.4201 33.4688M82.2327 55.7814L66.4826 75.469M82.2327 55.7814L75.0139 58.4064M66.4826 75.469L49.4201 81.3752L42.2013 82.6877M66.4826 75.469L57.2951 72.1877M66.4826 75.469L75.0139 58.4064M66.4826 75.469L42.2013 82.6877M42.2013 82.6877L27.7637 80.719L18.5762 74.1565M42.2013 82.6877L57.2951 72.1877M42.2013 82.6877L35.6388 68.9065M42.2013 82.6877L18.5762 74.1565M18.5762 74.1565L15.9512 57.7502M18.5762 74.1565L35.6388 68.9065M57.2951 72.1877L75.0139 58.4064M57.2951 72.1877L55.9826 53.8127M57.2951 72.1877L35.6388 68.9065M75.0139 58.4064L70.4201 33.4688M75.0139 58.4064L55.9826 53.8127M70.4201 33.4688L55.3263 13.125M70.4201 33.4688L55.9826 53.8127M70.4201 33.4688L50.0763 32.1563M55.3263 13.125L31.7013 20.3438M55.3263 13.125L50.0763 32.1563M31.7013 20.3438L11.3574 35.4376M31.7013 20.3438L15.9512 15.0938M31.7013 20.3438V45.2814M31.7013 20.3438L50.0763 32.1563M15.9512 15.0938L11.3574 35.4376M11.3574 35.4376L15.9512 57.7502M11.3574 35.4376L31.7013 45.2814M31.7013 45.2814L50.0763 32.1563M31.7013 45.2814L55.9826 53.8127M31.7013 45.2814L35.6388 68.9065M31.7013 45.2814L15.9512 57.7502M50.0763 32.1563L55.9826 53.8127M55.9826 53.8127L35.6388 68.9065M35.6388 68.9065L15.9512 57.7502" stroke="#FAFAFA" stroke-width="0.5"/>
</g>
</svg>
