<svg width="1440" height="30" viewBox="0 0 1440 30" fill="none" xmlns="http://www.w3.org/2000/svg">
<path d="M1279.14 21.8579L1276.86 24.1421C1273.11 27.8929 1268.02 30 1262.72 30H1061.78C1056.48 30 1051.39 27.8929 1047.64 24.1421L1045.36 21.8579C1041.61 18.1071 1036.52 16 1031.22 16H399.284C393.98 16 388.893 13.8929 385.142 10.1421L380.858 5.85786C377.107 2.10713 372.02 0 366.716 0H0V30H1061.78H1262.72H1440V0H1422.78C1417.48 0 1412.39 2.10713 1408.64 5.85786L1404.36 10.1421C1400.61 13.8929 1395.52 16 1390.22 16H1293.28C1287.98 16 1282.89 18.1071 1279.14 21.8579Z" fill="#0E0E0E"/>
</svg>
