<svg width="48" height="48" viewBox="0 0 48 48" fill="none" xmlns="http://www.w3.org/2000/svg">
<rect y="34.8008" width="2.4" height="2.4" fill="#FAFAFA"/>
<rect x="2.39844" y="37.2031" width="2.4" height="2.4" fill="#FAFAFA"/>
<rect x="2.39844" y="34.8008" width="2.4" height="2.4" fill="#FAFAFA"/>
<rect x="2.39844" y="32.4023" width="2.4" height="2.4" fill="#FAFAFA"/>
<rect x="4.80078" y="34.8008" width="2.4" height="2.4" fill="#FAFAFA"/>
<rect x="4.80078" y="32.4023" width="2.4" height="2.4" fill="#FAFAFA"/>
<rect x="4.80078" y="30" width="2.4" height="2.4" fill="#FAFAFA"/>
<rect x="7.19922" y="32.4023" width="2.4" height="2.4" fill="#FAFAFA"/>
<rect x="7.19922" y="30" width="2.4" height="2.4" fill="#FAFAFA"/>
<rect x="7.19922" y="27.6016" width="2.4" height="2.4" fill="#FAFAFA"/>
<rect x="9.60156" y="30" width="2.4" height="2.4" fill="#FAFAFA"/>
<rect x="9.60156" y="27.6016" width="2.4" height="2.4" fill="#FAFAFA"/>
<rect x="12" y="27.6016" width="2.4" height="2.4" fill="#FAFAFA"/>
<rect x="12" y="25.2031" width="2.4" height="2.4" fill="#FAFAFA"/>
<rect x="14.3984" y="25.2031" width="2.4" height="2.4" fill="#FAFAFA"/>
<rect x="14.3984" y="22.8008" width="2.4" height="2.4" fill="#FAFAFA"/>
<rect x="16.8008" y="22.8008" width="2.4" height="2.4" fill="#FAFAFA"/>
<rect x="16.8008" y="20.4023" width="2.4" height="2.4" fill="#FAFAFA"/>
<rect x="19.1992" y="20.4023" width="2.4" height="2.4" fill="#FAFAFA"/>
<rect x="21.6016" y="22.8008" width="2.4" height="2.4" fill="#FAFAFA"/>
<rect x="24" y="20.4023" width="2.4" height="2.4" fill="#FAFAFA"/>
<rect x="24" y="18" width="2.4" height="2.4" fill="#FAFAFA"/>
<rect x="26.3984" y="18" width="2.4" height="2.4" fill="#FAFAFA"/>
<rect x="28.8008" y="15.6016" width="2.4" height="2.4" fill="#FAFAFA"/>
<rect x="26.3984" y="13.2031" width="2.4" height="2.4" fill="#FAFAFA"/>
<rect x="26.3984" y="10.8008" width="2.4" height="2.4" fill="#FAFAFA"/>
<rect x="28.8008" y="10.8008" width="2.4" height="2.4" fill="#FAFAFA"/>
<rect x="26.3984" y="8.40234" width="2.4" height="2.4" fill="#FAFAFA"/>
<rect x="24" y="10.8008" width="2.4" height="2.4" fill="#FAFAFA"/>
<rect x="21.6016" y="8.40234" width="2.4" height="2.4" fill="#FAFAFA"/>
<rect x="21.6016" y="10.8008" width="2.4" height="2.4" fill="#FAFAFA"/>
<rect x="21.6016" y="13.2031" width="2.4" height="2.4" fill="#FAFAFA"/>
<rect x="24" y="13.2031" width="2.4" height="2.4" fill="#FAFAFA"/>
<rect x="19.1992" y="10.8008" width="2.4" height="2.4" fill="#FAFAFA"/>
<rect x="16.8008" y="13.2031" width="2.4" height="2.4" fill="#FAFAFA"/>
<rect x="14.3984" y="15.6016" width="2.4" height="2.4" fill="#FAFAFA"/>
<rect x="16.8008" y="15.6016" width="2.4" height="2.4" fill="#FAFAFA"/>
<rect x="19.1992" y="15.6016" width="2.4" height="2.4" fill="#FAFAFA"/>
<rect x="19.1992" y="13.2031" width="2.4" height="2.4" fill="#FAFAFA"/>
<rect x="21.6016" y="15.6016" width="2.4" height="2.4" fill="#FAFAFA"/>
<rect x="21.6016" y="18" width="2.4" height="2.4" fill="#FAFAFA"/>
<rect x="21.6016" y="20.4023" width="2.4" height="2.4" fill="#FAFAFA"/>
<rect x="24" y="15.6016" width="2.4" height="2.4" fill="#FAFAFA"/>
<rect x="26.3984" y="15.6016" width="2.4" height="2.4" fill="#FAFAFA"/>
<rect x="16.8008" y="18" width="2.4" height="2.4" fill="#FAFAFA"/>
<rect x="19.1992" y="18" width="2.4" height="2.4" fill="#FAFAFA"/>
<rect x="14.3984" y="20.4023" width="2.4" height="2.4" fill="#FAFAFA"/>
<rect x="9.60156" y="13.2031" width="2.4" height="2.4" fill="#FAFAFA"/>
<rect x="9.60156" y="10.8008" width="2.4" height="2.4" fill="#FAFAFA"/>
<rect x="24" y="27.6016" width="2.4" height="2.4" fill="#FAFAFA"/>
<rect x="26.3984" y="37.2031" width="2.4" height="2.4" fill="#FAFAFA"/>
<rect x="26.3984" y="39.6016" width="2.4" height="2.4" fill="#FAFAFA"/>
<rect x="24" y="39.6016" width="2.4" height="2.4" fill="#FAFAFA"/>
<rect x="24" y="42" width="2.4" height="2.4" fill="#FAFAFA"/>
<rect x="21.6016" y="42" width="2.4" height="2.4" fill="#FAFAFA"/>
<rect x="26.3984" y="42" width="2.4" height="2.4" fill="#FAFAFA"/>
<rect x="28.8008" y="42" width="2.4" height="2.4" fill="#FAFAFA"/>
<rect x="31.1992" y="42" width="2.4" height="2.4" fill="#FAFAFA"/>
<rect x="33.6016" y="42" width="2.4" height="2.4" fill="#FAFAFA"/>
<rect x="36" y="42" width="2.4" height="2.4" fill="#FAFAFA"/>
<rect x="38.3984" y="42" width="2.4" height="2.4" fill="#FAFAFA"/>
<rect x="40.8008" y="42" width="2.4" height="2.4" fill="#FAFAFA"/>
<rect x="43.1992" y="42" width="2.4" height="2.4" fill="#FAFAFA"/>
<rect x="45.6016" y="42" width="2.4" height="2.4" fill="#FAFAFA"/>
<rect x="28.8008" y="37.2031" width="2.4" height="2.4" fill="#FAFAFA"/>
<rect x="28.8008" y="39.6016" width="2.4" height="2.4" fill="#FAFAFA"/>
<rect x="31.1992" y="37.2031" width="2.4" height="2.4" fill="#FAFAFA"/>
<rect x="31.1992" y="39.6016" width="2.4" height="2.4" fill="#FAFAFA"/>
<rect x="33.6016" y="37.2031" width="2.4" height="2.4" fill="#FAFAFA"/>
<rect x="33.6016" y="39.6016" width="2.4" height="2.4" fill="#FAFAFA"/>
<rect x="36" y="37.2031" width="2.4" height="2.4" fill="#FAFAFA"/>
<rect x="36" y="39.6016" width="2.4" height="2.4" fill="#FAFAFA"/>
<rect x="38.3984" y="37.2031" width="2.4" height="2.4" fill="#FAFAFA"/>
<rect x="38.3984" y="39.6016" width="2.4" height="2.4" fill="#FAFAFA"/>
<rect x="40.8008" y="37.2031" width="2.4" height="2.4" fill="#FAFAFA"/>
<rect x="40.8008" y="39.6016" width="2.4" height="2.4" fill="#FAFAFA"/>
<rect x="43.1992" y="39.6016" width="2.4" height="2.4" fill="#FAFAFA"/>
<rect x="12" y="10.8008" width="2.4" height="2.4" fill="#FAFAFA"/>
<rect x="12" y="8.40234" width="2.4" height="2.4" fill="#FAFAFA"/>
<rect x="26.3984" y="25.2031" width="2.4" height="2.4" fill="#FAFAFA"/>
<rect x="26.3984" y="27.6016" width="2.4" height="2.4" fill="#FAFAFA"/>
<rect x="14.3984" y="8.40234" width="2.4" height="2.4" fill="#FAFAFA"/>
<rect x="14.3984" y="6" width="2.4" height="2.4" fill="#FAFAFA"/>
<rect x="28.8008" y="22.8008" width="2.4" height="2.4" fill="#FAFAFA"/>
<rect x="28.8008" y="25.2031" width="2.4" height="2.4" fill="#FAFAFA"/>
<rect x="16.8008" y="6" width="2.4" height="2.4" fill="#FAFAFA"/>
<rect x="16.8008" y="3.60156" width="2.4" height="2.4" fill="#FAFAFA"/>
<rect x="31.1992" y="20.4023" width="2.4" height="2.4" fill="#FAFAFA"/>
<rect x="31.1992" y="22.8008" width="2.4" height="2.4" fill="#FAFAFA"/>
<rect x="19.1992" y="3.60156" width="2.4" height="2.4" fill="#FAFAFA"/>
<rect x="33.6016" y="18" width="2.4" height="2.4" fill="#FAFAFA"/>
<rect x="33.6016" y="20.4023" width="2.4" height="2.4" fill="#FAFAFA"/>
<rect x="12" y="22.8008" width="2.4" height="2.4" fill="#FAFAFA"/>
<rect x="9.60156" y="25.2031" width="2.4" height="2.4" fill="#FAFAFA"/>
</svg>
