<svg width="48" height="48" viewBox="0 0 48 48" fill="none" xmlns="http://www.w3.org/2000/svg">
<path d="M42.2839 41.1445H40.0039V47.9995H42.2839V41.1445Z" fill="#FAFAFA"/>
<path d="M40.0059 38.8633H37.7109V41.1433H40.0059V38.8633Z" fill="#FAFAFA"/>
<path d="M37.7097 41.1445H35.4297V43.4245H37.7097V41.1445Z" fill="#FAFAFA"/>
<path d="M37.7097 36.5703H35.4297V38.8653H37.7097V36.5703Z" fill="#FAFAFA"/>
<path d="M35.4317 43.4258H33.1367V45.7208H35.4317V43.4258Z" fill="#FAFAFA"/>
<path d="M35.4305 34.2891H30.8555V36.5691H35.4305V34.2891Z" fill="#FAFAFA"/>
<path d="M35.4317 16.0039H33.1367V22.8589H35.4317V16.0039Z" fill="#FAFAFA"/>
<path d="M33.1355 45.7188H30.8555V47.9988H33.1355V45.7188Z" fill="#FAFAFA"/>
<path d="M33.1355 22.8594H30.8555V25.1394H33.1355V22.8594Z" fill="#FAFAFA"/>
<path d="M33.1342 13.7109H28.5742V16.0059H33.1342V13.7109Z" fill="#FAFAFA"/>
<path d="M30.8542 36.5703H28.5742V38.8653H30.8542V36.5703Z" fill="#FAFAFA"/>
<path d="M30.8562 31.9961H26.2812V34.2911H30.8562V31.9961Z" fill="#FAFAFA"/>
<path d="M30.8542 25.1406H28.5742V27.4356H30.8542V25.1406Z" fill="#FAFAFA"/>
<path d="M28.5762 38.8633H26.2812V41.1433H28.5762V38.8633Z" fill="#FAFAFA"/>
<path d="M28.5762 27.4336H26.2812V29.7136H28.5762V27.4336Z" fill="#FAFAFA"/>
<path d="M28.5762 16.0039H26.2812V18.2839H28.5762V16.0039Z" fill="#FAFAFA"/>
<path d="M26.28 41.1445H24V43.4245H26.28V41.1445Z" fill="#FAFAFA"/>
<path d="M26.28 29.7148H24V31.9948H26.28V29.7148Z" fill="#FAFAFA"/>
<path d="M26.28 18.2852H24V20.5652H26.28V18.2852Z" fill="#FAFAFA"/>
<path d="M23.9988 31.9961H21.7188V34.2911H23.9988V31.9961Z" fill="#FAFAFA"/>
<path d="M23.9988 20.5664H21.7188V22.8614H23.9988V20.5664Z" fill="#FAFAFA"/>
<path d="M21.7208 34.2891H19.4258V36.5691H21.7208V34.2891Z" fill="#FAFAFA"/>
<path d="M21.7208 22.8594H19.4258V25.1394H21.7208V22.8594Z" fill="#FAFAFA"/>
<path d="M19.4245 25.1406H17.1445V27.4356H19.4245V25.1406Z" fill="#FAFAFA"/>
<path d="M19.4245 18.2852H17.1445V22.8602H19.4245V18.2852Z" fill="#FAFAFA"/>
<path d="M17.1466 27.4336H14.8516V29.7136H17.1466V27.4336Z" fill="#FAFAFA"/>
<path d="M14.8503 0V2.28H12.5703V6.855H14.8503V9.15H17.1453V11.43H19.4253V13.71H21.7203V11.43H24.0003V9.15H26.2803V6.855H28.5753V2.28H26.2803V0H21.7203V2.28H19.4253V0H14.8503Z" fill="#FAFAFA"/>
<path d="M17.1441 16.0039H10.2891V18.2839H17.1441V16.0039Z" fill="#FAFAFA"/>
<path d="M12.5691 25.1406H10.2891V34.2906H12.5691V31.9956H14.8491V29.7156H12.5691V25.1406Z" fill="#FAFAFA"/>
<path d="M10.2911 34.2891H7.99609V36.5691H10.2911V34.2891Z" fill="#FAFAFA"/>
<path d="M10.2911 18.2852H7.99609V25.1402H10.2911V18.2852Z" fill="#FAFAFA"/>
<path d="M7.99484 36.5703H5.71484V48.0003H7.99484V36.5703Z" fill="#FAFAFA"/>
</svg>
