<svg width="72" height="73" viewBox="0 0 72 73" fill="none" xmlns="http://www.w3.org/2000/svg">
<g clip-path="url(#clip0_581_7237)">
<path d="M63.4278 10.7812H60.0078V55.3538H63.4278V10.7812Z" fill="#FAFAFA"/>
<path d="M56.5655 62.218H22.298V58.798H18.8555V62.218H15.4355V72.5005H63.428V62.218H60.008V55.3555H56.5655V62.218ZM56.5655 69.0805H49.7255V65.638H56.5655V69.0805Z" fill="#FAFAFA"/>
<path d="M60.007 7.36328H53.1445V10.7833H60.007V7.36328Z" fill="#FAFAFA"/>
<path d="M49.7238 41.6523H42.8613V45.0723H49.7238V41.6523Z" fill="#FAFAFA"/>
<path d="M35.9993 45.0742H25.7168V48.4942H35.9993V45.0742Z" fill="#FAFAFA"/>
<path d="M29.1368 31.3494H25.7168V34.7919H32.5793V24.5094H39.4418V34.7919H32.5793V38.2119H35.9993V45.0744H39.4418V41.6544H42.8618V24.5094H49.7243V41.6544H53.1443V10.7844H49.7243V21.0669H32.5793V3.92188H29.1368V31.3494Z" fill="#FAFAFA"/>
<path d="M29.1369 0.5H22.2969V3.92H29.1369V0.5Z" fill="#FAFAFA"/>
<path d="M25.7169 41.6523H22.2969V45.0723H25.7169V41.6523Z" fill="#FAFAFA"/>
<path d="M25.718 31.3494V27.9294H22.298V3.92188H18.8555V27.9294H15.4355V31.3494H25.718Z" fill="#FAFAFA"/>
<path d="M18.8555 55.3555H15.4355V58.798H18.8555V55.3555Z" fill="#FAFAFA"/>
<path d="M15.4356 48.4922H12.0156V55.3547H15.4356V48.4922Z" fill="#FAFAFA"/>
<path d="M15.4356 31.3477H12.0156V34.7902H15.4356V31.3477Z" fill="#FAFAFA"/>
<path d="M12.0148 34.7891H8.57227V48.4916H12.0148V34.7891Z" fill="#FAFAFA"/>
</g>
<defs>
<clipPath id="clip0_581_7237">
<rect width="72" height="72" fill="white" transform="translate(0 0.5)"/>
</clipPath>
</defs>
</svg>
