<svg width="192" height="33" viewBox="0 0 192 33" fill="none" xmlns="http://www.w3.org/2000/svg">
<path fill-rule="evenodd" clip-rule="evenodd" d="M22.6937 32.3592H14.2003V20.2152H8.70083V32.3592H0V1.0248H8.70083V12.7144H14.2003V1.0248H22.6937V32.3592ZM61.6431 32.5C70.3439 32.5 77.4457 25.2424 77.4457 16.4136C77.4457 7.444 70.3439 0.5 61.6431 0.5C52.837 0.5 48.3812 6.9224 47.3024 9.5368C47.3024 5.6648 43.4371 1.0216 38.9495 1.0216H24.4364V32.3592H37.9409C43.4403 32.3592 47.3024 27.6488 47.3024 23.5304C48.5217 26.0776 52.837 32.5 61.6431 32.5ZM36.862 19.764C38.1132 19.764 39.125 20.9864 39.125 22.3816C39.125 23.8472 38.1164 25.0696 36.862 25.0696H32.5467V19.764H36.862ZM36.862 8.004C38.1132 8.004 39.125 9.2264 39.125 10.6216C39.125 12.0168 38.1164 13.2392 36.862 13.2392H32.5467V8.004H36.862ZM42.569 16.4136C43.5776 16.3432 45.215 15.1912 45.8405 14.4936C45.598 15.332 45.598 17.9848 45.8405 18.82C45.1447 17.8088 43.5776 16.5864 42.569 16.4136ZM53.7083 16.4136C53.7083 12.0008 57.2863 8.4296 61.6942 8.4584C62.7426 8.4627 63.7797 8.67571 64.7453 9.08507C65.7109 9.49444 66.5859 10.092 67.3193 10.8431C68.0527 11.5942 68.63 12.4838 69.0178 13.4604C69.4055 14.437 69.5959 15.4811 69.5779 16.532C69.5141 20.9064 65.9872 24.404 61.6431 24.404C57.2576 24.404 53.7083 20.8456 53.7083 16.4136ZM61.6431 22.6952C65.02 22.6952 67.8735 19.9048 67.8735 16.4136C67.8735 12.9224 65.02 10.1672 61.6431 10.1672C58.1609 10.1672 55.3776 12.9256 55.3776 16.4136C55.3776 19.9016 58.1609 22.6952 61.6431 22.6952Z" fill="#FAFAFA"/>
<path d="M122.843 12.116C122.668 4.5224 117.322 0.5032 110.75 0.5032C107.14 0.5032 103.9 1.716 101.685 4.068C99.4698 1.7128 96.2301 0.5 92.6234 0.5C86.0483 0.5 80.6989 4.5256 80.5297 12.1288C80.5269 12.1457 80.5259 12.1629 80.5265 12.18V29.492C80.5265 30.2558 80.8292 30.9884 81.3679 31.5285C81.9066 32.0686 82.6373 32.372 83.3991 32.372H86.1121C86.2391 32.372 86.3609 32.3214 86.4507 32.2314C86.5405 32.1414 86.5909 32.0193 86.5909 31.892V12.18H86.5941C86.709 8.436 89.3646 6.452 92.6234 6.452C95.8822 6.452 98.5378 8.436 98.6527 12.18H98.6559V29.492C98.6559 30.2558 98.9585 30.9884 99.4973 31.5285C100.036 32.0686 100.767 32.372 101.529 32.372H104.242C104.369 32.372 104.49 32.3214 104.58 32.2314C104.67 32.1414 104.72 32.0193 104.72 31.892V12.18H104.723C104.838 8.436 107.494 6.452 110.753 6.452C114.012 6.452 116.667 8.436 116.782 12.18H116.785V29.492C116.785 30.2558 117.088 30.9884 117.627 31.5285C118.165 32.0686 118.896 32.372 119.658 32.372H122.371C122.434 32.372 122.496 32.3596 122.554 32.3355C122.612 32.3113 122.665 32.276 122.709 32.2314C122.754 32.1868 122.789 32.1339 122.813 32.0757C122.837 32.0175 122.85 31.955 122.85 31.892V12.18C122.849 12.1585 122.847 12.1371 122.843 12.116Z" fill="#FAFAFA"/>
<path d="M183.933 1.01203H179.331C178.704 1.01179 178.086 1.16604 177.532 1.46121C176.979 1.75639 176.506 2.18344 176.155 2.70483L171.067 10.2696C170.914 10.4979 170.708 10.685 170.465 10.8143C170.223 10.9437 169.953 11.0113 169.679 11.0113C169.405 11.0113 169.134 10.9437 168.892 10.8143C168.65 10.685 168.443 10.4979 168.29 10.2696L163.203 2.70483C162.852 2.18344 162.379 1.75639 161.825 1.46121C161.272 1.16604 160.654 1.01179 160.027 1.01203H155.424C155.359 1.01191 155.295 1.02957 155.24 1.06311C155.184 1.09666 155.138 1.14482 155.108 1.20241C155.077 1.26 155.063 1.32485 155.066 1.38998C155.07 1.4551 155.091 1.51804 155.128 1.57203L164.215 15.0792C164.534 15.5554 164.705 16.1164 164.705 16.6904C164.705 17.2645 164.534 17.8255 164.215 18.3016L155.128 31.8088C155.091 31.8628 155.07 31.9258 155.067 31.9908C155.063 32.0559 155.078 32.1207 155.108 32.1783C155.139 32.2358 155.184 32.284 155.24 32.3175C155.296 32.3511 155.359 32.3688 155.424 32.3688H160.027C160.654 32.3691 161.272 32.2148 161.825 31.9196C162.379 31.6245 162.852 31.1974 163.203 30.676L168.29 23.1112C168.443 22.8829 168.65 22.6959 168.892 22.5665C169.134 22.4372 169.405 22.3696 169.679 22.3696C169.953 22.3696 170.223 22.4372 170.465 22.5665C170.708 22.6959 170.914 22.8829 171.067 23.1112L176.155 30.676C176.506 31.1974 176.979 31.6245 177.532 31.9196C178.086 32.2148 178.704 32.3691 179.331 32.3688H183.933C183.999 32.369 184.062 32.3513 184.118 32.3177C184.174 32.2842 184.22 32.236 184.25 32.1785C184.281 32.1209 184.295 32.056 184.291 31.9909C184.288 31.9258 184.267 31.8628 184.23 31.8088L175.143 18.3016C174.823 17.8255 174.653 17.2645 174.653 16.6904C174.653 16.1164 174.823 15.5554 175.143 15.0792L184.23 1.57203C184.267 1.51804 184.288 1.4551 184.291 1.38998C184.295 1.32485 184.281 1.26 184.25 1.20241C184.22 1.14482 184.174 1.09666 184.118 1.06311C184.062 1.02957 183.999 1.01191 183.933 1.01203Z" fill="#FAFAFA"/>
<path d="M153.012 1.012H150.299C149.642 1.01179 149.005 1.23716 148.494 1.65057C147.983 2.06398 147.629 2.64047 147.49 3.284C145.071 1.444 142.051 0.5 138.777 0.5C130.832 0.5 124.391 6.0424 124.391 16.5C124.391 26.9576 130.832 32.5 138.777 32.5C142.029 32.5 145.029 31.572 147.439 29.7544C147.505 30.4694 147.835 31.134 148.364 31.6181C148.893 32.1022 149.583 32.3711 150.299 32.372H153.012C153.139 32.372 153.261 32.3214 153.351 32.2314C153.44 32.1414 153.491 32.0193 153.491 31.892V1.492C153.491 1.3647 153.44 1.24261 153.351 1.15259C153.261 1.06257 153.139 1.012 153.012 1.012ZM138.777 26.5448C134.034 26.5448 130.188 23.0664 130.188 16.5C130.188 9.9336 134.034 6.4552 138.777 6.4552C143.52 6.4552 147.366 9.9336 147.366 16.5C147.366 23.0664 143.52 26.5448 138.777 26.5448Z" fill="#FAFAFA"/>
<path d="M188.112 1.61525H187.208V4.34165H186.548V1.61525H185.648V0.981647H188.112V1.61525Z" fill="#FAFAFA"/>
<path d="M192 4.34163H191.342V2.16403L190.401 3.72243H190.324L189.383 2.16723V4.34003H188.722V0.980035H189.402L190.363 2.56723L191.32 0.980035H192V4.34323V4.34163Z" fill="#FAFAFA"/>
</svg>
