<svg width="1133" height="22" viewBox="0 0 1133 22" fill="none" xmlns="http://www.w3.org/2000/svg">
<path d="M13.9248 6.6269C12.9778 6.10197 11.886 5.89863 10.8135 6.04745C9.74106 6.19627 8.74587 6.6892 7.97759 7.45215C7.2093 8.21509 6.70943 9.20681 6.55313 10.2782C6.39682 11.3496 6.59254 12.4428 7.11084 13.3935" stroke="#FAFAFA" stroke-width="2"/>
<path d="M9.07715 15.3731C10.0241 15.898 11.1159 16.1014 12.1884 15.9525C13.2609 15.8037 14.2561 15.3108 15.0244 14.5479C15.7927 13.7849 16.2925 12.7932 16.4488 11.7218C16.6051 10.6504 16.4094 9.55718 15.8911 8.60654" stroke="#FAFAFA" stroke-width="2"/>
<circle cx="11.5" cy="11" r="10" stroke="#FAFAFA" stroke-width="2"/>
<path d="M21.5 11H905.5" stroke="#FAFAFA" stroke-width="0.5"/>
<circle cx="2.5" cy="2.5" r="2.5" transform="matrix(-1 0 0 1 1132.5 2.5)" fill="#FAFAFA"/>
<circle cx="2.5" cy="2.5" r="2.5" transform="matrix(-1 0 0 1 1120.5 2.5)" fill="#FAFAFA"/>
<circle cx="2.5" cy="2.5" r="2.5" transform="matrix(-1 0 0 1 1108.5 2.5)" fill="#FAFAFA"/>
<circle cx="2.5" cy="2.5" r="2.5" transform="matrix(-1 0 0 1 1096.5 2.5)" fill="#FAFAFA"/>
<circle cx="2.5" cy="2.5" r="2.5" transform="matrix(-1 0 0 1 1084.5 2.5)" fill="#FAFAFA"/>
<circle cx="2.5" cy="2.5" r="2.5" transform="matrix(-1 0 0 1 1072.5 2.5)" fill="#FAFAFA"/>
<circle cx="2.5" cy="2.5" r="2.5" transform="matrix(-1 0 0 1 1060.5 2.5)" fill="#FAFAFA"/>
<circle cx="2.5" cy="2.5" r="2.5" transform="matrix(-1 0 0 1 1048.5 2.5)" fill="#FAFAFA"/>
<circle cx="2.5" cy="2.5" r="2.5" transform="matrix(-1 0 0 1 1036.5 2.5)" fill="#FAFAFA"/>
<circle cx="2.5" cy="2.5" r="2.5" transform="matrix(-1 0 0 1 1024.5 2.5)" fill="#FAFAFA"/>
<circle cx="2.5" cy="2.5" r="2.5" transform="matrix(-1 0 0 1 1012.5 2.5)" fill="#FAFAFA"/>
<circle cx="2.5" cy="2.5" r="2.5" transform="matrix(-1 0 0 1 1000.5 2.5)" fill="#FAFAFA"/>
<circle cx="2.5" cy="2.5" r="2.5" transform="matrix(-1 0 0 1 988.5 2.5)" fill="#FAFAFA"/>
<circle cx="2.5" cy="2.5" r="2.5" transform="matrix(-1 0 0 1 976.5 2.5)" fill="#FAFAFA"/>
<circle cx="2.5" cy="2.5" r="2.5" transform="matrix(-1 0 0 1 964.5 2.5)" fill="#FAFAFA"/>
<circle cx="2.5" cy="2.5" r="2.5" transform="matrix(-1 0 0 1 952.5 2.5)" fill="#FAFAFA"/>
<circle cx="2.5" cy="2.5" r="2.5" transform="matrix(-1 0 0 1 940.5 2.5)" fill="#FAFAFA"/>
<circle cx="2.5" cy="2.5" r="2.5" transform="matrix(-1 0 0 1 928.5 2.5)" fill="#FAFAFA"/>
<circle cx="2.5" cy="2.5" r="2.5" transform="matrix(-1 0 0 1 916.5 2.5)" fill="#FAFAFA"/>
<circle cx="2.5" cy="2.5" r="2.5" transform="matrix(-1 0 0 1 1126.5 8.5)" fill="#FAFAFA"/>
<circle cx="2.5" cy="2.5" r="2.5" transform="matrix(-1 0 0 1 1114.5 8.5)" fill="#FAFAFA"/>
<circle cx="2.5" cy="2.5" r="2.5" transform="matrix(-1 0 0 1 1102.5 8.5)" fill="#FAFAFA"/>
<circle cx="2.5" cy="2.5" r="2.5" transform="matrix(-1 0 0 1 1090.5 8.5)" fill="#FAFAFA"/>
<circle cx="2.5" cy="2.5" r="2.5" transform="matrix(-1 0 0 1 1078.5 8.5)" fill="#FAFAFA"/>
<circle cx="2.5" cy="2.5" r="2.5" transform="matrix(-1 0 0 1 1066.5 8.5)" fill="#FAFAFA"/>
<circle cx="2.5" cy="2.5" r="2.5" transform="matrix(-1 0 0 1 1054.5 8.5)" fill="#FAFAFA"/>
<circle cx="2.5" cy="2.5" r="2.5" transform="matrix(-1 0 0 1 1042.5 8.5)" fill="#FAFAFA"/>
<circle cx="2.5" cy="2.5" r="2.5" transform="matrix(-1 0 0 1 1030.5 8.5)" fill="#FAFAFA"/>
<circle cx="2.5" cy="2.5" r="2.5" transform="matrix(-1 0 0 1 1018.5 8.5)" fill="#FAFAFA"/>
<circle cx="2.5" cy="2.5" r="2.5" transform="matrix(-1 0 0 1 1006.5 8.5)" fill="#FAFAFA"/>
<circle cx="2.5" cy="2.5" r="2.5" transform="matrix(-1 0 0 1 994.5 8.5)" fill="#FAFAFA"/>
<circle cx="2.5" cy="2.5" r="2.5" transform="matrix(-1 0 0 1 982.5 8.5)" fill="#FAFAFA"/>
<circle cx="2.5" cy="2.5" r="2.5" transform="matrix(-1 0 0 1 970.5 8.5)" fill="#FAFAFA"/>
<circle cx="2.5" cy="2.5" r="2.5" transform="matrix(-1 0 0 1 958.5 8.5)" fill="#FAFAFA"/>
<circle cx="2.5" cy="2.5" r="2.5" transform="matrix(-1 0 0 1 946.5 8.5)" fill="#FAFAFA"/>
<circle cx="2.5" cy="2.5" r="2.5" transform="matrix(-1 0 0 1 934.5 8.5)" fill="#FAFAFA"/>
<circle cx="2.5" cy="2.5" r="2.5" transform="matrix(-1 0 0 1 922.5 8.5)" fill="#FAFAFA"/>
<circle cx="2.5" cy="2.5" r="2.5" transform="matrix(-1 0 0 1 910.5 8.5)" fill="#FAFAFA"/>
<circle cx="2.5" cy="2.5" r="2.5" transform="matrix(-1 0 0 1 1132.5 14.5)" fill="#FAFAFA"/>
<circle cx="2.5" cy="2.5" r="2.5" transform="matrix(-1 0 0 1 1120.5 14.5)" fill="#FAFAFA"/>
<circle cx="2.5" cy="2.5" r="2.5" transform="matrix(-1 0 0 1 1108.5 14.5)" fill="#FAFAFA"/>
<circle cx="2.5" cy="2.5" r="2.5" transform="matrix(-1 0 0 1 1096.5 14.5)" fill="#FAFAFA"/>
<circle cx="2.5" cy="2.5" r="2.5" transform="matrix(-1 0 0 1 1084.5 14.5)" fill="#FAFAFA"/>
<circle cx="2.5" cy="2.5" r="2.5" transform="matrix(-1 0 0 1 1072.5 14.5)" fill="#FAFAFA"/>
<circle cx="2.5" cy="2.5" r="2.5" transform="matrix(-1 0 0 1 1060.5 14.5)" fill="#FAFAFA"/>
<circle cx="2.5" cy="2.5" r="2.5" transform="matrix(-1 0 0 1 1048.5 14.5)" fill="#FAFAFA"/>
<circle cx="2.5" cy="2.5" r="2.5" transform="matrix(-1 0 0 1 1036.5 14.5)" fill="#FAFAFA"/>
<circle cx="2.5" cy="2.5" r="2.5" transform="matrix(-1 0 0 1 1024.5 14.5)" fill="#FAFAFA"/>
<circle cx="2.5" cy="2.5" r="2.5" transform="matrix(-1 0 0 1 1012.5 14.5)" fill="#FAFAFA"/>
<circle cx="2.5" cy="2.5" r="2.5" transform="matrix(-1 0 0 1 1000.5 14.5)" fill="#FAFAFA"/>
<circle cx="2.5" cy="2.5" r="2.5" transform="matrix(-1 0 0 1 988.5 14.5)" fill="#FAFAFA"/>
<circle cx="2.5" cy="2.5" r="2.5" transform="matrix(-1 0 0 1 976.5 14.5)" fill="#FAFAFA"/>
<circle cx="2.5" cy="2.5" r="2.5" transform="matrix(-1 0 0 1 964.5 14.5)" fill="#FAFAFA"/>
<circle cx="2.5" cy="2.5" r="2.5" transform="matrix(-1 0 0 1 952.5 14.5)" fill="#FAFAFA"/>
<circle cx="2.5" cy="2.5" r="2.5" transform="matrix(-1 0 0 1 940.5 14.5)" fill="#FAFAFA"/>
<circle cx="2.5" cy="2.5" r="2.5" transform="matrix(-1 0 0 1 928.5 14.5)" fill="#FAFAFA"/>
<circle cx="2.5" cy="2.5" r="2.5" transform="matrix(-1 0 0 1 916.5 14.5)" fill="#FAFAFA"/>
</svg>
