<svg width="1132" height="18" viewBox="0 0 1132 18" fill="none" xmlns="http://www.w3.org/2000/svg">
<path d="M7.65294 1.58824L1.28431 13.5294C0.929057 14.1955 1.41175 15 2.16667 15H35.5V0H10.3C9.19206 0 8.17432 0.610645 7.65294 1.58824Z" fill="#FAFAFA"/>
<path d="M10.7151 7.51808L5.90753 16.259C5.72425 16.5923 5.96533 17 6.34564 17H10.4087C10.7734 17 11.1092 16.8015 11.2849 16.4819L16.0925 7.74096C16.2757 7.40773 16.0347 7 15.6544 7H11.5913C11.2266 7 10.8908 7.19853 10.7151 7.51808Z" fill="#050505" stroke="#FAFAFA"/>
<path d="M19.7151 7.51808L14.9075 16.259C14.7243 16.5923 14.9653 17 15.3456 17H19.4087C19.7734 17 20.1092 16.8015 20.2849 16.4819L25.0925 7.74096C25.2757 7.40773 25.0347 7 24.6544 7H20.5913C20.2266 7 19.8908 7.19853 19.7151 7.51808Z" fill="#050505" stroke="#FAFAFA"/>
<path d="M29.2087 7.4855L23.9543 16.2428C23.7544 16.576 23.9944 17 24.3831 17H28.9338C29.2851 17 29.6106 16.8157 29.7913 16.5145L35.0457 7.75725C35.2456 7.42399 35.0056 7 34.6169 7H30.0662C29.7149 7 29.3894 7.1843 29.2087 7.4855Z" fill="#050505" stroke="#FAFAFA"/>
<rect x="35.5" width="1040.49" height="15" fill="#FAFAFA"/>
<path d="M1086.72 1.47059L1080.35 13.4118C1079.83 14.3894 1078.81 15 1077.7 15H1075.99V0H1085.83C1086.59 0 1087.07 0.804482 1086.72 1.47059Z" fill="#FAFAFA"/>
<path d="M1089.65 1.58824L1083.28 13.5294C1082.93 14.1955 1083.41 15 1084.17 15H1088.7C1089.81 15 1090.83 14.3894 1091.35 13.4118L1097.72 1.47059C1098.07 0.804482 1097.59 0 1096.83 0H1092.3C1091.19 0 1090.17 0.610645 1089.65 1.58824Z" fill="#FAFAFA"/>
<path d="M1100.65 1.58824L1094.28 13.5294C1093.93 14.1955 1094.41 15 1095.17 15H1099.7C1100.81 15 1101.83 14.3894 1102.35 13.4118L1108.72 1.47059C1109.07 0.804482 1108.59 0 1107.83 0H1103.3C1102.19 0 1101.17 0.610645 1100.65 1.58824Z" fill="#FAFAFA"/>
<path d="M1111.65 1.58824L1105.28 13.5294C1104.93 14.1955 1105.41 15 1106.17 15H1110.7C1111.81 15 1112.83 14.3894 1113.35 13.4118L1119.72 1.47059C1120.07 0.804482 1119.59 0 1118.83 0H1114.3C1113.19 0 1112.17 0.610645 1111.65 1.58824Z" fill="#FAFAFA"/>
<path d="M1122.65 1.58824L1116.28 13.5294C1115.93 14.1955 1116.41 15 1117.17 15H1121.7C1122.81 15 1123.83 14.3894 1124.35 13.4118L1130.72 1.47059C1131.07 0.804482 1130.59 0 1129.83 0H1125.3C1124.19 0 1123.17 0.610645 1122.65 1.58824Z" fill="#FAFAFA"/>
</svg>
