<svg width="184" height="184" viewBox="0 0 184 184" fill="none" xmlns="http://www.w3.org/2000/svg">
<g opacity="0.2">
<rect x="8.76172" y="30.668" width="8.7619" height="8.7619" fill="#FAFAFA"/>
<rect x="8.76172" y="21.9062" width="8.7619" height="8.7619" fill="#FAFAFA"/>
<rect x="17.5234" y="13.1445" width="8.7619" height="8.7619" fill="#FAFAFA"/>
<rect x="26.2852" y="4.38281" width="8.7619" height="8.7619" fill="#FAFAFA"/>
<rect x="35.0469" y="4.38281" width="8.7619" height="8.7619" fill="#FAFAFA"/>
<rect x="43.8086" y="4.38281" width="8.7619" height="8.7619" fill="#FAFAFA"/>
<rect x="52.5703" y="4.38281" width="8.7619" height="8.7619" fill="#FAFAFA"/>
<rect x="61.332" y="4.38281" width="8.7619" height="8.7619" fill="#FAFAFA"/>
<rect x="70.0938" y="4.38281" width="8.7619" height="8.7619" fill="#FAFAFA"/>
<rect x="78.8555" y="4.38281" width="8.7619" height="8.7619" fill="#FAFAFA"/>
<rect x="87.6172" y="4.38281" width="8.7619" height="8.7619" fill="#FAFAFA"/>
<rect x="96.3789" y="4.38281" width="8.7619" height="8.7619" fill="#FAFAFA"/>
<rect x="105.145" y="4.38281" width="8.7619" height="8.7619" fill="#FAFAFA"/>
<rect x="113.906" y="4.38281" width="8.7619" height="8.7619" fill="#FAFAFA"/>
<rect x="122.668" y="4.38281" width="8.7619" height="8.7619" fill="#FAFAFA"/>
<rect x="144.57" y="4.38281" width="8.7619" height="8.7619" fill="#FAFAFA"/>
<rect x="8.76172" y="39.4297" width="8.7619" height="8.7619" fill="#FAFAFA"/>
<rect x="8.76172" y="48.1914" width="8.7619" height="8.7619" fill="#FAFAFA"/>
<rect x="8.76172" y="56.9531" width="8.7619" height="8.7619" fill="#FAFAFA"/>
<rect x="8.76172" y="65.7148" width="8.7619" height="8.7619" fill="#FAFAFA"/>
<rect x="8.76172" y="74.4766" width="8.7619" height="8.7619" fill="#FAFAFA"/>
<rect x="8.76172" y="83.2383" width="8.7619" height="8.7619" fill="#FAFAFA"/>
<rect x="8.76172" y="92" width="8.7619" height="8.7619" fill="#FAFAFA"/>
<rect x="8.76172" y="100.766" width="8.7619" height="8.7619" fill="#FAFAFA"/>
<rect x="8.76172" y="109.527" width="8.7619" height="8.7619" fill="#FAFAFA"/>
<rect x="8.76172" y="118.289" width="8.7619" height="8.7619" fill="#FAFAFA"/>
<rect x="17.5234" y="127.051" width="8.7619" height="8.7619" fill="#FAFAFA"/>
<rect x="26.2852" y="135.812" width="8.7619" height="8.7619" fill="#FAFAFA"/>
<rect x="35.0469" y="135.812" width="8.7619" height="8.7619" fill="#FAFAFA"/>
<rect x="43.8086" y="144.574" width="8.7619" height="8.7619" fill="#FAFAFA"/>
<rect x="43.8086" y="153.336" width="8.7619" height="8.7619" fill="#FAFAFA"/>
<rect x="43.8086" y="162.098" width="8.7619" height="8.7619" fill="#FAFAFA"/>
<rect x="43.8086" y="170.859" width="8.7619" height="8.7619" fill="#FAFAFA"/>
<rect x="52.5703" y="170.859" width="8.7619" height="8.7619" fill="#FAFAFA"/>
<rect x="61.332" y="162.098" width="8.7619" height="8.7619" fill="#FAFAFA"/>
<rect x="70.0938" y="153.336" width="8.7619" height="8.7619" fill="#FAFAFA"/>
<rect x="78.8555" y="144.574" width="8.7619" height="8.7619" fill="#FAFAFA"/>
<rect x="87.6172" y="135.812" width="8.7619" height="8.7619" fill="#FAFAFA"/>
<rect x="96.3789" y="135.812" width="8.7619" height="8.7619" fill="#FAFAFA"/>
<rect x="105.145" y="135.812" width="8.7619" height="8.7619" fill="#FAFAFA"/>
<rect x="113.906" y="135.812" width="8.7619" height="8.7619" fill="#FAFAFA"/>
<rect x="122.668" y="135.812" width="8.7619" height="8.7619" fill="#FAFAFA"/>
<rect x="131.43" y="135.812" width="8.7619" height="8.7619" fill="#FAFAFA"/>
<rect x="140.191" y="135.812" width="8.7619" height="8.7619" fill="#FAFAFA"/>
<rect x="148.953" y="135.812" width="8.7619" height="8.7619" fill="#FAFAFA"/>
<rect x="157.715" y="127.051" width="8.7619" height="8.7619" fill="#FAFAFA"/>
<rect x="166.477" y="118.289" width="8.7619" height="8.7619" fill="#FAFAFA"/>
<rect x="166.477" y="109.527" width="8.7619" height="8.7619" fill="#FAFAFA"/>
<rect x="166.477" y="100.766" width="8.7619" height="8.7619" fill="#FAFAFA"/>
<rect x="166.477" y="92" width="8.7619" height="8.7619" fill="#FAFAFA"/>
<rect x="166.477" y="83.2383" width="8.7619" height="8.7619" fill="#FAFAFA"/>
<rect x="166.477" y="74.4766" width="8.7619" height="8.7619" fill="#FAFAFA"/>
<rect x="166.477" y="65.7148" width="8.7619" height="8.7619" fill="#FAFAFA"/>
<rect x="166.477" y="56.9531" width="8.7619" height="8.7619" fill="#FAFAFA"/>
<rect x="166.477" y="48.1914" width="8.7619" height="8.7619" fill="#FAFAFA"/>
<rect x="166.477" y="39.4297" width="8.7619" height="8.7619" fill="#FAFAFA"/>
<rect x="166.477" y="30.668" width="8.7619" height="8.7619" fill="#FAFAFA"/>
<rect x="166.477" y="21.9062" width="8.7619" height="8.7619" fill="#FAFAFA"/>
<rect x="65.7148" y="59.1445" width="8.7619" height="8.7619" fill="#FAFAFA"/>
<rect x="65.7148" y="50.3828" width="8.7619" height="8.7619" fill="#FAFAFA"/>
<rect x="74.4766" y="41.6211" width="8.7619" height="8.7619" fill="#FAFAFA"/>
<rect x="83.2383" y="41.6211" width="8.7619" height="8.7619" fill="#FAFAFA"/>
<rect x="92" y="41.6211" width="8.7619" height="8.7619" fill="#FAFAFA"/>
<rect x="100.762" y="41.6211" width="8.7619" height="8.7619" fill="#FAFAFA"/>
<rect x="109.523" y="50.3828" width="8.7619" height="8.7619" fill="#FAFAFA"/>
<rect x="109.523" y="59.1445" width="8.7619" height="8.7619" fill="#FAFAFA"/>
<rect x="109.523" y="67.9062" width="8.7619" height="8.7619" fill="#FAFAFA"/>
<rect x="100.762" y="76.668" width="8.7619" height="8.7619" fill="#FAFAFA"/>
<rect x="92" y="76.668" width="8.7619" height="8.7619" fill="#FAFAFA"/>
<rect x="83.2383" y="85.4297" width="8.7619" height="8.7619" fill="#FAFAFA"/>
<rect x="83.2383" y="102.953" width="8.7619" height="8.7619" fill="#FAFAFA"/>
</g>
</svg>
