<svg width="263" height="34" viewBox="0 0 263 34" fill="none" xmlns="http://www.w3.org/2000/svg">
<path d="M12.2075 0H15V34H5C2.23858 34 0 31.7614 0 29V12.905C0 11.6586 0.465486 10.4572 1.30522 9.53621L8.5127 1.63123C9.46012 0.592125 10.8013 0 12.2075 0Z" fill="#FAFAFA" fill-opacity="0.1"/>
<rect width="232.5" height="34" transform="translate(15)" fill="#FAFAFA" fill-opacity="0.1"/>
<path opacity="0.4" d="M26.232 21V9.8H30.488C33.688 9.8 36.104 12.184 36.104 15.384C36.104 18.472 33.576 21 30.488 21H26.232ZM34.824 15.384C34.824 12.84 32.984 11.016 30.488 11.016H27.512V19.784H30.488C32.936 19.784 34.824 17.848 34.824 15.384ZM45.6159 21H44.5119L44.3519 19.352C43.7119 20.536 42.5599 21.24 41.1999 21.24C39.0079 21.24 37.3439 19.432 37.3439 17.016C37.3439 14.568 39.0079 12.76 41.1999 12.76C42.5599 12.76 43.6959 13.464 44.3359 14.648L44.5119 13H45.6159V21ZM38.6239 17C38.6239 18.776 39.8559 20.072 41.5359 20.072C43.1839 20.072 44.3359 18.824 44.3359 17C44.3359 15.192 43.1839 13.912 41.5359 13.912C39.8239 13.912 38.6239 15.192 38.6239 17ZM46.8281 13H48.2041L51.1641 19.496L54.1561 13H55.5161L51.8521 21H50.4761L46.8281 13ZM64.1464 17.368H57.2184C57.3624 19.016 58.4984 20.216 60.0184 20.216C61.1384 20.216 62.0504 19.64 62.5784 18.728H63.8904C63.2344 20.28 61.8104 21.24 60.0184 21.24C57.6664 21.24 55.9224 19.432 55.9224 17.016C55.9224 14.568 57.6344 12.76 60.0184 12.76C62.4504 12.76 64.1624 14.488 64.1624 17.016C64.1624 17.128 64.1464 17.24 64.1464 17.368ZM57.2184 16.632H62.8664C62.7224 14.952 61.6024 13.816 60.0184 13.816C58.4984 13.816 57.3624 14.984 57.2184 16.632ZM69.5374 9.56C71.7934 9.56 73.1854 10.744 73.1854 12.648C73.1854 15.832 69.6974 15.08 69.6974 18.008H68.6574C68.6574 14.568 71.9054 15.16 71.9054 12.84C71.9054 11.56 71.0094 10.776 69.5054 10.776C67.9214 10.776 66.9614 11.848 66.9614 13.704H65.6814C65.6814 11.096 67.1854 9.56 69.5374 9.56ZM68.3694 20.424C68.3694 19.96 68.6894 19.64 69.1694 19.64C69.6654 19.64 69.9854 19.96 69.9854 20.424C69.9854 20.936 69.6654 21.24 69.1694 21.24C68.6894 21.24 68.3694 20.936 68.3694 20.424Z" fill="#FAFAFA"/>
<path d="M250.293 34H247.5V0H257.5C260.261 0 262.5 2.23857 262.5 4.99999V21.095C262.5 22.3414 262.035 23.5428 261.195 24.4638L253.987 32.3688C253.04 33.4079 251.699 34 250.293 34Z" fill="#FAFAFA" fill-opacity="0.1"/>
</svg>
