<svg width="48" height="48" viewBox="0 0 48 48" fill="none" xmlns="http://www.w3.org/2000/svg">
<g clip-path="url(#clip0_581_9813)">
<path d="M47.9988 6.85547H45.7188V43.4255H47.9988V6.85547Z" fill="#FAFAFA"/>
<path d="M45.7208 43.4258H43.4258V45.7208H45.7208V43.4258Z" fill="#FAFAFA"/>
<path d="M45.7208 4.57422H43.4258V6.85422H45.7208V4.57422Z" fill="#FAFAFA"/>
<path d="M43.4242 45.7188H4.57422V47.9988H43.4242V45.7188Z" fill="#FAFAFA"/>
<path d="M35 33.2695H9V35.5645H35V33.2695Z" fill="#FAFAFA"/>
<path d="M35 25.9922H9V28.2722H35V25.9922Z" fill="#FAFAFA"/>
<path d="M39 18.7109H9V20.9909H39V18.7109Z" fill="#FAFAFA"/>
<path d="M39 11.4297H9V13.7097H39V11.4297Z" fill="#FAFAFA"/>
<path d="M22.8612 4.575H43.4263V2.28H20.5662V0H6.85625V2.28H2.28125V4.575H11.4312H16.0062V2.28H18.2863V4.575H20.5662H22.8612Z" fill="#FAFAFA"/>
<path d="M18.2863 2.28H16.0062V4.575H18.2863V2.28Z" fill="#FAFAFA"/>
<path d="M4.57625 43.4258H2.28125V45.7208H4.57625V43.4258Z" fill="#FAFAFA"/>
<path d="M2.28 4.57422H0V43.4242H2.28V4.57422Z" fill="#FAFAFA"/>
</g>
<defs>
<clipPath id="clip0_581_9813">
<rect width="48" height="48" fill="white"/>
</clipPath>
</defs>
</svg>
