<svg width="48" height="48" viewBox="0 0 48 48" fill="none" xmlns="http://www.w3.org/2000/svg">
<path d="M46.8614 3.42188H44.5664V37.7119H46.8614V3.42188Z" fill="#FAFAFA"/>
<path d="M10.2769 37.7109V39.9909H12.5719V42.2859H14.8519V39.9909H19.4269V42.2859H21.7069V39.9909H26.2819V42.2859H28.5619V39.9909H33.1369V42.2859H35.4319V39.9909H37.7119V42.2859H35.4319V44.5659H30.8569V42.2859H28.5619V44.5659H24.0019V42.2859H21.7069V44.5659H17.1469V42.2859H14.8519V44.5659H10.2769V42.2859H7.99687V44.5659H3.42188V46.8609H37.7119V44.5659H39.9919V39.9909H44.5669V37.7109H10.2769Z" fill="#FAFAFA"/>
<path d="M14.8516 26.2803H17.1466V28.5753H30.8566V26.2803H33.1366V24.0003H35.4316V26.2803H37.7116V28.5753H39.9916V12.5703H37.7116V14.8503H35.4316V17.1453H33.1366V14.8503H30.8566V12.5703H17.1466V14.8503H14.8516V26.2803Z" fill="#FAFAFA"/>
<path d="M44.5673 1.14062H10.2773V3.42062H44.5673V1.14062Z" fill="#FAFAFA"/>
<path d="M7.99484 39.9922H5.71484V42.2872H7.99484V39.9922Z" fill="#FAFAFA"/>
<path d="M5.71562 39.9919V37.7119H3.42062V33.1369H5.71562V30.8569H3.42062V26.2819H5.71562V24.0019H3.42062V19.4269H5.71562V17.1469H3.42062V12.5719H5.71562V10.2769H7.99562V12.5719H5.71562V14.8519H7.99562V19.4269H5.71562V21.7069H7.99562V26.2819H5.71562V28.5769H7.99562V33.1369H5.71562V35.4319H7.99562V37.7119H10.2756V3.42188H7.99562V7.99687H3.42062V10.2769H1.14062V44.5669H3.42062V39.9919H5.71562Z" fill="#FAFAFA"/>
</svg>
