<svg width="115" height="115" viewBox="0 0 115 115" fill="none" xmlns="http://www.w3.org/2000/svg">
<path d="M112.268 8.19141H106.77V90.3445H112.268V8.19141Z" fill="#FAFAFA"/>
<path d="M24.6148 90.3477V95.8102H30.1133V101.309H35.5758V95.8102H46.5367V101.309H51.9992V95.8102H62.9602V101.309H68.4227V95.8102H79.3836V101.309H84.882V95.8102H90.3445V101.309H84.882V106.771H73.9211V101.309H68.4227V106.771H57.4977V101.309H51.9992V106.771H41.0742V101.309H35.5758V106.771H24.6148V101.309H19.1523V106.771H8.19141V112.27H90.3445V106.771H95.807V95.8102H106.768V90.3477H24.6148Z" fill="#FAFAFA"/>
<path d="M35.5781 62.9602H41.0766V68.4586H73.9234V62.9602H79.3859V57.4977H84.8844V62.9602H90.3469V68.4586H95.8094V30.1133H90.3469V35.5758H84.8844V41.0742H79.3859V35.5758H73.9234V30.1133H41.0766V35.5758H35.5781V62.9602Z" fill="#FAFAFA"/>
<path d="M106.77 2.73047H24.6172V8.19297H106.77V2.73047Z" fill="#FAFAFA"/>
<path d="M19.1539 95.8086H13.6914V101.307H19.1539V95.8086Z" fill="#FAFAFA"/>
<path d="M13.6914 95.807V90.3445H8.19297V79.3836H13.6914V73.9211H8.19297V62.9602H13.6914V57.4977H8.19297V46.5367H13.6914V41.0742H8.19297V30.1133H13.6914V24.6148H19.1539V30.1133H13.6914V35.5758H19.1539V46.5367H13.6914V51.9992H19.1539V62.9602H13.6914V68.4586H19.1539V79.3836H13.6914V84.882H19.1539V90.3445H24.6164V8.19141H19.1539V19.1523H8.19297V24.6148H2.73047V106.768H8.19297V95.807H13.6914Z" fill="#FAFAFA"/>
</svg>
