<svg width="72" height="72" viewBox="0 0 72 72" fill="none" xmlns="http://www.w3.org/2000/svg">
<g clip-path="url(#clip0_581_7794)">
<rect x="3.78906" y="11.3672" width="3.78947" height="3.78947" fill="#FAFAFA"/>
<rect x="7.57812" y="15.1562" width="3.78947" height="3.78947" fill="#FAFAFA"/>
<rect x="11.3672" y="18.9492" width="3.78947" height="3.78947" fill="#FAFAFA"/>
<rect x="15.1562" y="22.7383" width="3.78947" height="3.78947" fill="#FAFAFA"/>
<rect x="18.9492" y="26.5273" width="3.78947" height="3.78947" fill="#FAFAFA"/>
<rect x="22.7383" y="30.3164" width="3.78947" height="3.78947" fill="#FAFAFA"/>
<rect x="18.9492" y="34.1055" width="3.78947" height="3.78947" fill="#FAFAFA"/>
<rect width="3.78947" height="3.78947" transform="matrix(-1 0 0 1 45.4727 34.1055)" fill="#FAFAFA"/>
<rect x="15.1562" y="37.8945" width="3.78947" height="3.78947" fill="#FAFAFA"/>
<rect width="3.78947" height="3.78947" transform="matrix(-1 0 0 1 49.2617 37.8945)" fill="#FAFAFA"/>
<rect x="11.3672" y="41.6836" width="3.78947" height="3.78947" fill="#FAFAFA"/>
<rect width="3.78947" height="3.78947" transform="matrix(-1 0 0 1 53.0508 41.6836)" fill="#FAFAFA"/>
<rect x="7.57812" y="45.4727" width="3.78947" height="3.78947" fill="#FAFAFA"/>
<rect width="3.78947" height="3.78947" transform="matrix(-1 0 0 1 56.8438 45.4727)" fill="#FAFAFA"/>
<rect x="3.78906" y="49.2617" width="3.78947" height="3.78947" fill="#FAFAFA"/>
<rect width="3.78947" height="3.78947" transform="matrix(-1 0 0 1 60.6328 49.2617)" fill="#FAFAFA"/>
<rect x="26.5273" y="34.1055" width="3.78947" height="3.78947" fill="#FAFAFA"/>
<rect x="30.3164" y="37.8945" width="3.78947" height="3.78947" fill="#FAFAFA"/>
<rect x="34.1055" y="34.1055" width="3.78947" height="3.78947" fill="#FAFAFA"/>
<rect x="37.8945" y="30.3164" width="3.78947" height="3.78947" fill="#FAFAFA"/>
<rect x="41.6836" y="26.5273" width="3.78947" height="3.78947" fill="#FAFAFA"/>
<rect x="45.4727" y="22.7383" width="3.78947" height="3.78947" fill="#FAFAFA"/>
<rect x="49.2617" y="18.9492" width="3.78947" height="3.78947" fill="#FAFAFA"/>
<rect x="7.57812" y="7.57812" width="3.78947" height="3.78947" fill="#FAFAFA"/>
<rect x="7.57812" y="53.0508" width="3.78947" height="3.78947" fill="#FAFAFA"/>
<rect x="7.57812" y="68.2109" width="3.78947" height="3.78947" fill="#FAFAFA"/>
<rect x="7.57812" y="60.6328" width="3.78947" height="3.78947" fill="#FAFAFA"/>
<rect x="11.3672" y="7.57812" width="3.78947" height="3.78947" fill="#FAFAFA"/>
<rect x="11.3672" y="53.0508" width="3.78947" height="3.78947" fill="#FAFAFA"/>
<rect x="11.3672" y="68.2109" width="3.78947" height="3.78947" fill="#FAFAFA"/>
<rect x="11.3672" y="60.6328" width="3.78947" height="3.78947" fill="#FAFAFA"/>
<rect x="15.1562" y="7.57812" width="3.78947" height="3.78947" fill="#FAFAFA"/>
<rect x="15.1562" y="53.0508" width="3.78947" height="3.78947" fill="#FAFAFA"/>
<rect x="15.1562" y="68.2109" width="3.78947" height="3.78947" fill="#FAFAFA"/>
<rect x="15.1562" y="60.6328" width="3.78947" height="3.78947" fill="#FAFAFA"/>
<rect x="18.9492" y="7.57812" width="3.78947" height="3.78947" fill="#FAFAFA"/>
<rect x="18.9492" y="53.0508" width="3.78947" height="3.78947" fill="#FAFAFA"/>
<rect x="18.9492" y="68.2109" width="3.78947" height="3.78947" fill="#FAFAFA"/>
<rect x="18.9492" y="60.6328" width="3.78947" height="3.78947" fill="#FAFAFA"/>
<rect x="22.7383" y="7.57812" width="3.78947" height="3.78947" fill="#FAFAFA"/>
<rect x="22.7383" y="53.0508" width="3.78947" height="3.78947" fill="#FAFAFA"/>
<rect x="22.7383" y="68.2109" width="3.78947" height="3.78947" fill="#FAFAFA"/>
<rect x="22.7383" y="60.6328" width="3.78947" height="3.78947" fill="#FAFAFA"/>
<rect x="26.5273" y="7.57812" width="3.78947" height="3.78947" fill="#FAFAFA"/>
<rect x="26.5273" y="53.0508" width="3.78947" height="3.78947" fill="#FAFAFA"/>
<rect x="26.5273" y="68.2109" width="3.78947" height="3.78947" fill="#FAFAFA"/>
<rect x="26.5273" y="60.6328" width="3.78947" height="3.78947" fill="#FAFAFA"/>
<rect x="30.3164" y="7.57812" width="3.78947" height="3.78947" fill="#FAFAFA"/>
<rect x="30.3164" y="53.0508" width="3.78947" height="3.78947" fill="#FAFAFA"/>
<rect x="30.3164" y="68.2109" width="3.78947" height="3.78947" fill="#FAFAFA"/>
<rect x="30.3164" y="60.6328" width="3.78947" height="3.78947" fill="#FAFAFA"/>
<rect x="34.1055" y="7.57812" width="3.78947" height="3.78947" fill="#FAFAFA"/>
<rect x="34.1055" y="53.0508" width="3.78947" height="3.78947" fill="#FAFAFA"/>
<rect x="34.1055" y="68.2109" width="3.78947" height="3.78947" fill="#FAFAFA"/>
<rect x="34.1055" y="60.6328" width="3.78947" height="3.78947" fill="#FAFAFA"/>
<rect x="37.8945" y="53.0508" width="3.78947" height="3.78947" fill="#FAFAFA"/>
<rect x="37.8945" y="68.2109" width="3.78947" height="3.78947" fill="#FAFAFA"/>
<rect x="37.8945" y="60.6328" width="3.78947" height="3.78947" fill="#FAFAFA"/>
<rect x="41.6836" y="53.0508" width="3.78947" height="3.78947" fill="#FAFAFA"/>
<rect x="41.6836" y="68.2109" width="3.78947" height="3.78947" fill="#FAFAFA"/>
<rect x="41.6836" y="60.6328" width="3.78947" height="3.78947" fill="#FAFAFA"/>
<rect x="45.4727" y="53.0508" width="3.78947" height="3.78947" fill="#FAFAFA"/>
<rect x="45.4727" y="68.2109" width="3.78947" height="3.78947" fill="#FAFAFA"/>
<rect x="45.4727" y="60.6328" width="3.78947" height="3.78947" fill="#FAFAFA"/>
<rect x="49.2617" y="53.0508" width="3.78947" height="3.78947" fill="#FAFAFA"/>
<rect x="49.2617" y="68.2109" width="3.78947" height="3.78947" fill="#FAFAFA"/>
<rect x="49.2617" y="60.6328" width="3.78947" height="3.78947" fill="#FAFAFA"/>
<rect x="53.0508" y="53.0508" width="3.78947" height="3.78947" fill="#FAFAFA"/>
<rect x="53.0508" y="68.2109" width="3.78947" height="3.78947" fill="#FAFAFA"/>
<rect x="53.0508" y="60.6328" width="3.78947" height="3.78947" fill="#FAFAFA"/>
<rect x="37.8945" y="7.57812" width="3.78947" height="3.78947" fill="#FAFAFA"/>
<rect x="41.6836" y="7.57812" width="3.78947" height="3.78947" fill="#FAFAFA"/>
<rect x="45.4727" y="7.57812" width="3.78947" height="3.78947" fill="#FAFAFA"/>
<rect y="15.1562" width="3.78947" height="3.78947" fill="#FAFAFA"/>
<rect y="18.9492" width="3.78947" height="3.78947" fill="#FAFAFA"/>
<rect x="60.6328" y="18.9492" width="3.78947" height="3.78947" fill="#FAFAFA"/>
<rect x="64.4219" y="15.1562" width="3.78947" height="3.78947" fill="#FAFAFA"/>
<rect x="64.4219" y="7.57812" width="3.78947" height="3.78947" transform="rotate(-90 64.4219 7.57812)" fill="#FAFAFA"/>
<rect x="56.8438" y="7.57812" width="3.78947" height="3.78947" transform="rotate(180 56.8438 7.57812)" fill="#FAFAFA"/>
<rect x="56.8438" y="18.9492" width="3.78947" height="3.78947" transform="rotate(180 56.8438 18.9492)" fill="#FAFAFA"/>
<rect x="68.2109" y="11.3672" width="3.78947" height="3.78947" fill="#FAFAFA"/>
<rect x="60.6328" y="3.78906" width="3.78947" height="3.78947" transform="rotate(-90 60.6328 3.78906)" fill="#FAFAFA"/>
<rect x="53.0508" y="11.3672" width="3.78947" height="3.78947" transform="rotate(180 53.0508 11.3672)" fill="#FAFAFA"/>
<rect x="68.2109" y="7.57812" width="3.78947" height="3.78947" fill="#FAFAFA"/>
<rect x="56.8438" y="3.78906" width="3.78947" height="3.78947" transform="rotate(-90 56.8438 3.78906)" fill="#FAFAFA"/>
<rect x="53.0508" y="15.1562" width="3.78947" height="3.78947" transform="rotate(180 53.0508 15.1562)" fill="#FAFAFA"/>
<rect x="56.8438" y="18.9492" width="3.78947" height="3.78947" fill="#FAFAFA"/>
<rect y="22.7383" width="3.78947" height="3.78947" fill="#FAFAFA"/>
<rect x="60.6328" y="22.7383" width="3.78947" height="3.78947" fill="#FAFAFA"/>
<rect y="26.5273" width="3.78947" height="3.78947" fill="#FAFAFA"/>
<rect x="60.6328" y="26.5273" width="3.78947" height="3.78947" fill="#FAFAFA"/>
<rect y="30.3164" width="3.78947" height="3.78947" fill="#FAFAFA"/>
<rect x="60.6328" y="30.3164" width="3.78947" height="3.78947" fill="#FAFAFA"/>
<rect y="34.1055" width="3.78947" height="3.78947" fill="#FAFAFA"/>
<rect x="60.6328" y="34.1055" width="3.78947" height="3.78947" fill="#FAFAFA"/>
<rect y="37.8945" width="3.78947" height="3.78947" fill="#FAFAFA"/>
<rect x="60.6328" y="37.8945" width="3.78947" height="3.78947" fill="#FAFAFA"/>
<rect y="41.6836" width="3.78947" height="3.78947" fill="#FAFAFA"/>
<rect x="60.6328" y="41.6836" width="3.78947" height="3.78947" fill="#FAFAFA"/>
<rect y="45.4727" width="3.78947" height="3.78947" fill="#FAFAFA"/>
<rect y="49.2617" width="3.78947" height="3.78947" fill="#FAFAFA"/>
<rect y="64.4219" width="3.78947" height="3.78947" fill="#FAFAFA"/>
<rect y="56.8438" width="3.78947" height="3.78947" fill="#FAFAFA"/>
<rect width="3.78947" height="3.78947" transform="matrix(-1 0 0 1 64.4219 49.2617)" fill="#FAFAFA"/>
<rect width="3.78947" height="3.78947" transform="matrix(-1 0 0 1 64.4219 64.4219)" fill="#FAFAFA"/>
<rect width="3.78947" height="3.78947" transform="matrix(-1 0 0 1 64.4219 56.8438)" fill="#FAFAFA"/>
<rect width="3.78947" height="3.78947" transform="matrix(-1 0 0 1 7.57812 7.57812)" fill="#FAFAFA"/>
<rect x="3.78906" y="53.0508" width="3.78947" height="3.78947" fill="#FAFAFA"/>
<rect x="3.78906" y="68.2109" width="3.78947" height="3.78947" fill="#FAFAFA"/>
<rect x="3.78906" y="60.6328" width="3.78947" height="3.78947" fill="#FAFAFA"/>
<rect width="3.78947" height="3.78947" transform="matrix(-1 0 0 1 60.6328 53.0508)" fill="#FAFAFA"/>
<rect width="3.78947" height="3.78947" transform="matrix(-1 0 0 1 60.6328 68.2109)" fill="#FAFAFA"/>
<rect width="3.78947" height="3.78947" transform="matrix(-1 0 0 1 60.6328 60.6328)" fill="#FAFAFA"/>
<rect width="3.78947" height="3.78947" transform="matrix(-1 0 0 1 3.78906 11.3672)" fill="#FAFAFA"/>
<rect x="60.6328" y="45.4727" width="3.78947" height="3.78947" fill="#FAFAFA"/>
</g>
<defs>
<clipPath id="clip0_581_7794">
<rect width="72" height="72" fill="white"/>
</clipPath>
</defs>
</svg>
