<svg width="65" height="64" viewBox="0 0 65 64" fill="none" xmlns="http://www.w3.org/2000/svg">
<path d="M59.9306 15.2383H56.8906V27.4183H59.9306V15.2383Z" fill="#FAFAFA"/>
<path d="M56.8916 27.4219H53.8516V30.4819H56.8916V27.4219Z" fill="#FAFAFA"/>
<path d="M56.8916 12.1992H53.8516V15.2392H56.8916V12.1992Z" fill="#FAFAFA"/>
<path d="M50.7891 39.6205H56.8891V42.6605H50.7891V51.8205H56.8891V54.8605H50.7891V60.9605H53.8491V57.9005H59.9291V48.7605H53.8491V45.7205H59.9291V36.5805H53.8491V30.4805H50.7891V39.6205Z" fill="#FAFAFA"/>
<path d="M50.7914 60.9609H44.6914V64.0009H50.7914V60.9609Z" fill="#FAFAFA"/>
<path d="M41.6484 9.14156V12.2016H47.7484V15.2416H41.6484V24.3816H53.8484V15.2416H50.7884V12.2016H53.8484V9.14156H50.7884V6.10156H47.7484V9.14156H41.6484ZM47.7484 21.3416H44.6984V18.2816H47.7584L47.7484 21.3416Z" fill="#FAFAFA"/>
<path d="M47.7514 3.03906H44.6914V6.09906H47.7514V3.03906Z" fill="#FAFAFA"/>
<path d="M44.6894 30.4819H41.6494V27.4219H38.6094V33.5219H41.6494V60.9619H44.6894V30.4819Z" fill="#FAFAFA"/>
<path d="M41.6494 12.1992H38.6094V15.2392H41.6494V12.1992Z" fill="#FAFAFA"/>
<path d="M32.5117 18.2783V24.3783H35.5517V27.4183H38.6117V15.2383H35.5517V18.2783H32.5117Z" fill="#FAFAFA"/>
<path d="M38.6092 33.5195H29.4492V36.5795H38.6092V33.5195Z" fill="#FAFAFA"/>
<path d="M35.5492 12.1992H29.4492V15.2392H35.5492V12.1992Z" fill="#FAFAFA"/>
<path d="M44.6892 0H29.4492V3.04H44.6892V0Z" fill="#FAFAFA"/>
<path d="M32.5092 45.7188H29.4492V48.7587H32.5092V45.7188Z" fill="#FAFAFA"/>
<path d="M29.4502 48.7617H26.4102V51.8217H29.4502V48.7617Z" fill="#FAFAFA"/>
<path d="M29.4502 42.6602H26.4102V45.7202H29.4502V42.6602Z" fill="#FAFAFA"/>
<path d="M29.4502 36.5781H26.4102V39.6181H29.4502V36.5781Z" fill="#FAFAFA"/>
<path d="M29.4502 15.2383H26.4102V18.2783H29.4502V15.2383Z" fill="#FAFAFA"/>
<path d="M29.4502 3.03906H26.4102V6.09906H29.4502V3.03906Z" fill="#FAFAFA"/>
<path d="M26.4111 51.8203H23.3711V54.8603H26.4111V51.8203Z" fill="#FAFAFA"/>
<path d="M26.4111 39.6211H23.3711V42.6611H26.4111V39.6211Z" fill="#FAFAFA"/>
<path d="M26.4111 18.2812H23.3711V30.4813H26.4111V18.2812Z" fill="#FAFAFA"/>
<path d="M26.4111 6.10156H23.3711V15.2416H26.4111V6.10156Z" fill="#FAFAFA"/>
<path d="M23.3686 48.7617H20.3086V51.8217H23.3686V48.7617Z" fill="#FAFAFA"/>
<path d="M23.3686 30.4805H20.3086V33.5205H23.3686V30.4805Z" fill="#FAFAFA"/>
<path d="M20.3095 45.7188H17.2695V48.7587H20.3095V45.7188Z" fill="#FAFAFA"/>
<path d="M20.3095 33.5195H17.2695V36.5795H20.3095V33.5195Z" fill="#FAFAFA"/>
<path d="M17.2705 48.7617H14.2305V51.8217H17.2705V48.7617Z" fill="#FAFAFA"/>
<path d="M17.2705 36.5781H14.2305V39.6181H17.2705V36.5781Z" fill="#FAFAFA"/>
<path d="M14.2319 51.8203H11.1719V54.8603H14.2319V51.8203Z" fill="#FAFAFA"/>
<path d="M14.2319 39.6211H11.1719V42.6611H14.2319V39.6211Z" fill="#FAFAFA"/>
<path d="M11.1689 48.7617H8.12891V51.8217H11.1689V48.7617Z" fill="#FAFAFA"/>
<path d="M11.1689 42.6602H8.12891V45.7202H11.1689V42.6602Z" fill="#FAFAFA"/>
<path d="M8.13031 45.7188H5.07031V48.7587H8.13031V45.7188Z" fill="#FAFAFA"/>
</svg>
