<svg width="48" height="48" viewBox="0 0 48 48" fill="none" xmlns="http://www.w3.org/2000/svg">
<rect x="2.66797" y="38.3359" width="2.66667" height="2.66667" fill="#FAFAFA"/>
<rect y="41" width="2.66667" height="2.66667" fill="#FAFAFA"/>
<rect x="2.66797" y="43.668" width="2.66667" height="2.66667" fill="#FAFAFA"/>
<rect x="5.33203" y="43.668" width="2.66667" height="2.66667" fill="#FAFAFA"/>
<rect x="8" y="43.668" width="2.66667" height="2.66667" fill="#FAFAFA"/>
<rect x="10.668" y="43.668" width="2.66667" height="2.66667" fill="#FAFAFA"/>
<rect x="13.332" y="43.668" width="2.66667" height="2.66667" fill="#FAFAFA"/>
<rect x="16" y="43.668" width="2.66667" height="2.66667" fill="#FAFAFA"/>
<rect x="18.668" y="43.668" width="2.66667" height="2.66667" fill="#FAFAFA"/>
<rect x="21.332" y="43.668" width="2.66667" height="2.66667" fill="#FAFAFA"/>
<rect x="24" y="43.668" width="2.66667" height="2.66667" fill="#FAFAFA"/>
<rect x="26.668" y="43.668" width="2.66667" height="2.66667" fill="#FAFAFA"/>
<rect x="29.332" y="43.668" width="2.66667" height="2.66667" fill="#FAFAFA"/>
<rect x="32" y="43.668" width="2.66667" height="2.66667" fill="#FAFAFA"/>
<rect x="34.668" y="43.668" width="2.66667" height="2.66667" fill="#FAFAFA"/>
<rect x="37.332" y="43.668" width="2.66667" height="2.66667" fill="#FAFAFA"/>
<rect x="40" y="43.668" width="2.66667" height="2.66667" fill="#FAFAFA"/>
<rect x="42.668" y="43.668" width="2.66667" height="2.66667" fill="#FAFAFA"/>
<rect x="2.66797" y="41" width="2.66667" height="2.66667" fill="#FAFAFA"/>
<rect x="5.33203" y="41" width="2.66667" height="2.66667" fill="#FAFAFA"/>
<rect x="8" y="41" width="2.66667" height="2.66667" fill="#FAFAFA"/>
<rect x="10.668" y="41" width="2.66667" height="2.66667" fill="#FAFAFA"/>
<rect x="13.332" y="41" width="2.66667" height="2.66667" fill="#FAFAFA"/>
<rect x="16" y="41" width="2.66667" height="2.66667" fill="#FAFAFA"/>
<rect x="18.668" y="41" width="2.66667" height="2.66667" fill="#FAFAFA"/>
<rect x="21.332" y="41" width="2.66667" height="2.66667" fill="#FAFAFA"/>
<rect x="24" y="41" width="2.66667" height="2.66667" fill="#FAFAFA"/>
<rect x="26.668" y="41" width="2.66667" height="2.66667" fill="#FAFAFA"/>
<rect x="29.332" y="41" width="2.66667" height="2.66667" fill="#FAFAFA"/>
<rect x="32" y="41" width="2.66667" height="2.66667" fill="#FAFAFA"/>
<rect x="34.668" y="41" width="2.66667" height="2.66667" fill="#FAFAFA"/>
<rect x="37.332" y="41" width="2.66667" height="2.66667" fill="#FAFAFA"/>
<rect x="40" y="41" width="2.66667" height="2.66667" fill="#FAFAFA"/>
<rect x="42.668" y="41" width="2.66667" height="2.66667" fill="#FAFAFA"/>
<rect x="45.332" y="41" width="2.66667" height="2.66667" fill="#FAFAFA"/>
<rect x="2.66797" y="35.668" width="2.66667" height="2.66667" fill="#FAFAFA"/>
<rect x="2.66797" y="33" width="2.66667" height="2.66667" fill="#FAFAFA"/>
<rect x="2.66797" y="30.3359" width="2.66667" height="2.66667" fill="#FAFAFA"/>
<rect x="2.66797" y="27.668" width="2.66667" height="2.66667" fill="#FAFAFA"/>
<rect x="2.66797" y="25" width="2.66667" height="2.66667" fill="#FAFAFA"/>
<rect x="2.66797" y="22.3359" width="2.66667" height="2.66667" fill="#FAFAFA"/>
<rect x="2.66797" y="19.668" width="2.66667" height="2.66667" fill="#FAFAFA"/>
<rect x="2.66797" y="17" width="2.66667" height="2.66667" fill="#FAFAFA"/>
<rect x="2.66797" y="14.3359" width="2.66667" height="2.66667" fill="#FAFAFA"/>
<rect x="2.66797" y="11.668" width="2.66667" height="2.66667" fill="#FAFAFA"/>
<rect x="5.33203" y="9" width="2.66667" height="2.66667" fill="#FAFAFA"/>
<rect x="8" y="9" width="2.66667" height="2.66667" fill="#FAFAFA"/>
<rect x="10.668" y="9" width="2.66667" height="2.66667" fill="#FAFAFA"/>
<rect x="13.332" y="9" width="2.66667" height="2.66667" fill="#FAFAFA"/>
<rect x="16" y="9" width="2.66667" height="2.66667" fill="#FAFAFA"/>
<rect x="8.66797" y="20.3359" width="2.66667" height="2.66667" fill="#FAFAFA"/>
<rect x="11.332" y="17.668" width="2.66667" height="2.66667" fill="#FAFAFA"/>
<rect x="14" y="15" width="2.66667" height="2.66667" fill="#FAFAFA"/>
<rect x="14" y="17.668" width="2.66667" height="2.66667" fill="#FAFAFA"/>
<rect x="14" y="20.3359" width="2.66667" height="2.66667" fill="#FAFAFA"/>
<rect x="11.332" y="20.3359" width="2.66667" height="2.66667" fill="#FAFAFA"/>
<rect x="11.332" y="23" width="2.66667" height="2.66667" fill="#FAFAFA"/>
<rect x="14" y="23" width="2.66667" height="2.66667" fill="#FAFAFA"/>
<rect x="16.668" y="23" width="2.66667" height="2.66667" fill="#FAFAFA"/>
<rect x="16.668" y="25.668" width="2.66667" height="2.66667" fill="#FAFAFA"/>
<rect x="19.332" y="28.3359" width="2.66667" height="2.66667" fill="#FAFAFA"/>
<rect x="22" y="31" width="2.66667" height="2.66667" fill="#FAFAFA"/>
<rect x="19.332" y="31" width="2.66667" height="2.66667" fill="#FAFAFA"/>
<rect x="16.668" y="28.3359" width="2.66667" height="2.66667" fill="#FAFAFA"/>
<rect x="16.668" y="20.3359" width="2.66667" height="2.66667" fill="#FAFAFA"/>
<rect x="16.668" y="17.668" width="2.66667" height="2.66667" fill="#FAFAFA"/>
<rect x="19.332" y="20.3359" width="2.66667" height="2.66667" fill="#FAFAFA"/>
<rect x="22" y="20.3359" width="2.66667" height="2.66667" fill="#FAFAFA"/>
<rect x="24.668" y="20.3359" width="2.66667" height="2.66667" fill="#FAFAFA"/>
<rect x="27.332" y="20.3359" width="2.66667" height="2.66667" fill="#FAFAFA"/>
<rect x="30" y="20.3359" width="2.66667" height="2.66667" fill="#FAFAFA"/>
<rect x="27.332" y="1.66797" width="2.66667" height="2.66667" fill="#FAFAFA"/>
<rect x="27.332" y="4.33594" width="2.66667" height="2.66667" fill="#FAFAFA"/>
<rect x="30" y="7" width="2.66667" height="2.66667" fill="#FAFAFA"/>
<rect x="30" y="9.66797" width="2.66667" height="2.66667" fill="#FAFAFA"/>
<rect x="32.668" y="12.3359" width="2.66667" height="2.66667" fill="#FAFAFA"/>
<rect x="32.668" y="15" width="2.66667" height="2.66667" fill="#FAFAFA"/>
<rect x="35.332" y="17.668" width="2.66667" height="2.66667" fill="#FAFAFA"/>
<rect x="35.332" y="20.3359" width="2.66667" height="2.66667" fill="#FAFAFA"/>
<rect x="30" y="17.668" width="2.66667" height="2.66667" fill="#FAFAFA"/>
<rect x="27.332" y="15" width="2.66667" height="2.66667" fill="#FAFAFA"/>
<rect x="24.668" y="15" width="2.66667" height="2.66667" fill="#FAFAFA"/>
<rect x="22" y="15" width="2.66667" height="2.66667" fill="#FAFAFA"/>
<rect x="27.332" y="12.3359" width="2.66667" height="2.66667" fill="#FAFAFA"/>
<rect x="24.668" y="12.3359" width="2.66667" height="2.66667" fill="#FAFAFA"/>
<rect x="22" y="12.3359" width="2.66667" height="2.66667" fill="#FAFAFA"/>
<rect x="24.668" y="9.66797" width="2.66667" height="2.66667" fill="#FAFAFA"/>
<rect x="19.332" y="17.668" width="2.66667" height="2.66667" fill="#FAFAFA"/>
<rect x="22" y="17.668" width="2.66667" height="2.66667" fill="#FAFAFA"/>
<rect x="24.668" y="17.668" width="2.66667" height="2.66667" fill="#FAFAFA"/>
<rect x="27.332" y="17.668" width="2.66667" height="2.66667" fill="#FAFAFA"/>
<rect x="19.332" y="15" width="2.66667" height="2.66667" fill="#FAFAFA"/>
<rect x="19.332" y="12.3359" width="2.66667" height="2.66667" fill="#FAFAFA"/>
<rect x="22" y="9.66797" width="2.66667" height="2.66667" fill="#FAFAFA"/>
<rect x="24.668" y="7" width="2.66667" height="2.66667" fill="#FAFAFA"/>
<rect x="16.668" y="15" width="2.66667" height="2.66667" fill="#FAFAFA"/>
<rect x="5.33203" y="38.3359" width="2.66667" height="2.66667" fill="#FAFAFA"/>
<rect x="8" y="38.3359" width="2.66667" height="2.66667" fill="#FAFAFA"/>
<rect x="10.668" y="38.3359" width="2.66667" height="2.66667" fill="#FAFAFA"/>
<rect x="13.332" y="38.3359" width="2.66667" height="2.66667" fill="#FAFAFA"/>
<rect x="16" y="38.3359" width="2.66667" height="2.66667" fill="#FAFAFA"/>
<rect x="18.668" y="38.3359" width="2.66667" height="2.66667" fill="#FAFAFA"/>
<rect x="21.332" y="38.3359" width="2.66667" height="2.66667" fill="#FAFAFA"/>
<rect x="24" y="38.3359" width="2.66667" height="2.66667" fill="#FAFAFA"/>
<rect x="26.668" y="38.3359" width="2.66667" height="2.66667" fill="#FAFAFA"/>
<rect x="29.332" y="38.3359" width="2.66667" height="2.66667" fill="#FAFAFA"/>
<rect x="32" y="38.3359" width="2.66667" height="2.66667" fill="#FAFAFA"/>
<rect x="34.668" y="38.3359" width="2.66667" height="2.66667" fill="#FAFAFA"/>
<rect x="37.332" y="38.3359" width="2.66667" height="2.66667" fill="#FAFAFA"/>
<rect x="40" y="38.3359" width="2.66667" height="2.66667" fill="#FAFAFA"/>
<rect x="42.668" y="38.3359" width="2.66667" height="2.66667" fill="#FAFAFA"/>
<rect x="42.668" y="35.668" width="2.66667" height="2.66667" fill="#FAFAFA"/>
<rect x="42.668" y="33" width="2.66667" height="2.66667" fill="#FAFAFA"/>
<rect x="42.668" y="30.3359" width="2.66667" height="2.66667" fill="#FAFAFA"/>
<rect x="42.668" y="27.668" width="2.66667" height="2.66667" fill="#FAFAFA"/>
<rect x="42.668" y="25" width="2.66667" height="2.66667" fill="#FAFAFA"/>
<rect x="42.668" y="22.3359" width="2.66667" height="2.66667" fill="#FAFAFA"/>
<rect x="42.668" y="19.668" width="2.66667" height="2.66667" fill="#FAFAFA"/>
<rect x="42.668" y="17" width="2.66667" height="2.66667" fill="#FAFAFA"/>
<rect x="42.668" y="14.3359" width="2.66667" height="2.66667" fill="#FAFAFA"/>
<rect x="42.668" y="11.668" width="2.66667" height="2.66667" fill="#FAFAFA"/>
<rect x="40" y="9" width="2.66667" height="2.66667" fill="#FAFAFA"/>
<rect x="37.332" y="9" width="2.66667" height="2.66667" fill="#FAFAFA"/>
</svg>
