<svg width="351" height="22" viewBox="0 0 351 22" fill="none" xmlns="http://www.w3.org/2000/svg">
<path d="M13.4248 6.6269C12.4778 6.10197 11.386 5.89863 10.3135 6.04745C9.24106 6.19627 8.24587 6.6892 7.47759 7.45215C6.7093 8.21509 6.20943 9.20681 6.05313 10.2782C5.89682 11.3496 6.09254 12.4428 6.61084 13.3935" stroke="#FAFAFA" stroke-width="2"/>
<path d="M8.57715 15.3731C9.52414 15.898 10.6159 16.1014 11.6884 15.9525C12.7609 15.8037 13.7561 15.3108 14.5244 14.5479C15.2927 13.7849 15.7925 12.7932 15.9488 11.7218C16.1051 10.6504 15.9094 9.55718 15.3911 8.60654" stroke="#FAFAFA" stroke-width="2"/>
<circle cx="11" cy="11" r="10" stroke="#FAFAFA" stroke-width="2"/>
<path d="M21 11H124" stroke="#FAFAFA" stroke-width="0.5"/>
<circle cx="2.5" cy="2.5" r="2.5" transform="matrix(-1 0 0 1 351 2.5)" fill="#FAFAFA"/>
<circle cx="2.5" cy="2.5" r="2.5" transform="matrix(-1 0 0 1 339 2.5)" fill="#FAFAFA"/>
<circle cx="2.5" cy="2.5" r="2.5" transform="matrix(-1 0 0 1 327 2.5)" fill="#FAFAFA"/>
<circle cx="2.5" cy="2.5" r="2.5" transform="matrix(-1 0 0 1 315 2.5)" fill="#FAFAFA"/>
<circle cx="2.5" cy="2.5" r="2.5" transform="matrix(-1 0 0 1 303 2.5)" fill="#FAFAFA"/>
<circle cx="2.5" cy="2.5" r="2.5" transform="matrix(-1 0 0 1 291 2.5)" fill="#FAFAFA"/>
<circle cx="2.5" cy="2.5" r="2.5" transform="matrix(-1 0 0 1 279 2.5)" fill="#FAFAFA"/>
<circle cx="2.5" cy="2.5" r="2.5" transform="matrix(-1 0 0 1 267 2.5)" fill="#FAFAFA"/>
<circle cx="2.5" cy="2.5" r="2.5" transform="matrix(-1 0 0 1 255 2.5)" fill="#FAFAFA"/>
<circle cx="2.5" cy="2.5" r="2.5" transform="matrix(-1 0 0 1 243 2.5)" fill="#FAFAFA"/>
<circle cx="2.5" cy="2.5" r="2.5" transform="matrix(-1 0 0 1 231 2.5)" fill="#FAFAFA"/>
<circle cx="2.5" cy="2.5" r="2.5" transform="matrix(-1 0 0 1 219 2.5)" fill="#FAFAFA"/>
<circle cx="2.5" cy="2.5" r="2.5" transform="matrix(-1 0 0 1 207 2.5)" fill="#FAFAFA"/>
<circle cx="2.5" cy="2.5" r="2.5" transform="matrix(-1 0 0 1 195 2.5)" fill="#FAFAFA"/>
<circle cx="2.5" cy="2.5" r="2.5" transform="matrix(-1 0 0 1 183 2.5)" fill="#FAFAFA"/>
<circle cx="2.5" cy="2.5" r="2.5" transform="matrix(-1 0 0 1 171 2.5)" fill="#FAFAFA"/>
<circle cx="2.5" cy="2.5" r="2.5" transform="matrix(-1 0 0 1 159 2.5)" fill="#FAFAFA"/>
<circle cx="2.5" cy="2.5" r="2.5" transform="matrix(-1 0 0 1 147 2.5)" fill="#FAFAFA"/>
<circle cx="2.5" cy="2.5" r="2.5" transform="matrix(-1 0 0 1 135 2.5)" fill="#FAFAFA"/>
<circle cx="2.5" cy="2.5" r="2.5" transform="matrix(-1 0 0 1 345 8.5)" fill="#FAFAFA"/>
<circle cx="2.5" cy="2.5" r="2.5" transform="matrix(-1 0 0 1 333 8.5)" fill="#FAFAFA"/>
<circle cx="2.5" cy="2.5" r="2.5" transform="matrix(-1 0 0 1 321 8.5)" fill="#FAFAFA"/>
<circle cx="2.5" cy="2.5" r="2.5" transform="matrix(-1 0 0 1 309 8.5)" fill="#FAFAFA"/>
<circle cx="2.5" cy="2.5" r="2.5" transform="matrix(-1 0 0 1 297 8.5)" fill="#FAFAFA"/>
<circle cx="2.5" cy="2.5" r="2.5" transform="matrix(-1 0 0 1 285 8.5)" fill="#FAFAFA"/>
<circle cx="2.5" cy="2.5" r="2.5" transform="matrix(-1 0 0 1 273 8.5)" fill="#FAFAFA"/>
<circle cx="2.5" cy="2.5" r="2.5" transform="matrix(-1 0 0 1 261 8.5)" fill="#FAFAFA"/>
<circle cx="2.5" cy="2.5" r="2.5" transform="matrix(-1 0 0 1 249 8.5)" fill="#FAFAFA"/>
<circle cx="2.5" cy="2.5" r="2.5" transform="matrix(-1 0 0 1 237 8.5)" fill="#FAFAFA"/>
<circle cx="2.5" cy="2.5" r="2.5" transform="matrix(-1 0 0 1 225 8.5)" fill="#FAFAFA"/>
<circle cx="2.5" cy="2.5" r="2.5" transform="matrix(-1 0 0 1 213 8.5)" fill="#FAFAFA"/>
<circle cx="2.5" cy="2.5" r="2.5" transform="matrix(-1 0 0 1 201 8.5)" fill="#FAFAFA"/>
<circle cx="2.5" cy="2.5" r="2.5" transform="matrix(-1 0 0 1 189 8.5)" fill="#FAFAFA"/>
<circle cx="2.5" cy="2.5" r="2.5" transform="matrix(-1 0 0 1 177 8.5)" fill="#FAFAFA"/>
<circle cx="2.5" cy="2.5" r="2.5" transform="matrix(-1 0 0 1 165 8.5)" fill="#FAFAFA"/>
<circle cx="2.5" cy="2.5" r="2.5" transform="matrix(-1 0 0 1 153 8.5)" fill="#FAFAFA"/>
<circle cx="2.5" cy="2.5" r="2.5" transform="matrix(-1 0 0 1 141 8.5)" fill="#FAFAFA"/>
<circle cx="2.5" cy="2.5" r="2.5" transform="matrix(-1 0 0 1 129 8.5)" fill="#FAFAFA"/>
<circle cx="2.5" cy="2.5" r="2.5" transform="matrix(-1 0 0 1 351 14.5)" fill="#FAFAFA"/>
<circle cx="2.5" cy="2.5" r="2.5" transform="matrix(-1 0 0 1 339 14.5)" fill="#FAFAFA"/>
<circle cx="2.5" cy="2.5" r="2.5" transform="matrix(-1 0 0 1 327 14.5)" fill="#FAFAFA"/>
<circle cx="2.5" cy="2.5" r="2.5" transform="matrix(-1 0 0 1 315 14.5)" fill="#FAFAFA"/>
<circle cx="2.5" cy="2.5" r="2.5" transform="matrix(-1 0 0 1 303 14.5)" fill="#FAFAFA"/>
<circle cx="2.5" cy="2.5" r="2.5" transform="matrix(-1 0 0 1 291 14.5)" fill="#FAFAFA"/>
<circle cx="2.5" cy="2.5" r="2.5" transform="matrix(-1 0 0 1 279 14.5)" fill="#FAFAFA"/>
<circle cx="2.5" cy="2.5" r="2.5" transform="matrix(-1 0 0 1 267 14.5)" fill="#FAFAFA"/>
<circle cx="2.5" cy="2.5" r="2.5" transform="matrix(-1 0 0 1 255 14.5)" fill="#FAFAFA"/>
<circle cx="2.5" cy="2.5" r="2.5" transform="matrix(-1 0 0 1 243 14.5)" fill="#FAFAFA"/>
<circle cx="2.5" cy="2.5" r="2.5" transform="matrix(-1 0 0 1 231 14.5)" fill="#FAFAFA"/>
<circle cx="2.5" cy="2.5" r="2.5" transform="matrix(-1 0 0 1 219 14.5)" fill="#FAFAFA"/>
<circle cx="2.5" cy="2.5" r="2.5" transform="matrix(-1 0 0 1 207 14.5)" fill="#FAFAFA"/>
<circle cx="2.5" cy="2.5" r="2.5" transform="matrix(-1 0 0 1 195 14.5)" fill="#FAFAFA"/>
<circle cx="2.5" cy="2.5" r="2.5" transform="matrix(-1 0 0 1 183 14.5)" fill="#FAFAFA"/>
<circle cx="2.5" cy="2.5" r="2.5" transform="matrix(-1 0 0 1 171 14.5)" fill="#FAFAFA"/>
<circle cx="2.5" cy="2.5" r="2.5" transform="matrix(-1 0 0 1 159 14.5)" fill="#FAFAFA"/>
<circle cx="2.5" cy="2.5" r="2.5" transform="matrix(-1 0 0 1 147 14.5)" fill="#FAFAFA"/>
<circle cx="2.5" cy="2.5" r="2.5" transform="matrix(-1 0 0 1 135 14.5)" fill="#FAFAFA"/>
</svg>
