<svg width="350" height="18" viewBox="0 0 350 18" fill="none" xmlns="http://www.w3.org/2000/svg">
<path d="M7.15294 1.58824L0.784314 13.5294C0.429057 14.1955 0.911748 15 1.66667 15H35V0H9.8C8.69206 0 7.67432 0.610645 7.15294 1.58824Z" fill="#FAFAFA"/>
<path d="M10.2151 7.51808L5.40753 16.259C5.22425 16.5923 5.46533 17 5.84564 17H9.90873C10.2734 17 10.6092 16.8015 10.7849 16.4819L15.5925 7.74096C15.7757 7.40773 15.5347 7 15.1544 7H11.0913C10.7266 7 10.3908 7.19853 10.2151 7.51808Z" fill="#050505" stroke="#FAFAFA"/>
<path d="M19.2151 7.51808L14.4075 16.259C14.2243 16.5923 14.4653 17 14.8456 17H18.9087C19.2734 17 19.6092 16.8015 19.7849 16.4819L24.5925 7.74096C24.7757 7.40773 24.5347 7 24.1544 7H20.0913C19.7266 7 19.3908 7.19853 19.2151 7.51808Z" fill="#050505" stroke="#FAFAFA"/>
<path d="M28.7087 7.4855L23.4543 16.2428C23.2544 16.576 23.4944 17 23.8831 17H28.4338C28.7851 17 29.1106 16.8157 29.2913 16.5145L34.5457 7.75725C34.7456 7.42399 34.5056 7 34.1169 7H29.5662C29.2149 7 28.8894 7.1843 28.7087 7.4855Z" fill="#050505" stroke="#FAFAFA"/>
<rect x="35" width="259.492" height="15" fill="#FAFAFA"/>
<path d="M305.216 1.47059L298.847 13.4118C298.326 14.3894 297.308 15 296.2 15H294.492V0H304.333C305.088 0 305.571 0.804482 305.216 1.47059Z" fill="#FAFAFA"/>
<path d="M308.153 1.58824L301.784 13.5294C301.429 14.1955 301.912 15 302.667 15H307.2C308.308 15 309.326 14.3894 309.847 13.4118L316.216 1.47059C316.571 0.804482 316.088 0 315.333 0H310.8C309.692 0 308.674 0.610645 308.153 1.58824Z" fill="#FAFAFA"/>
<path d="M319.153 1.58824L312.784 13.5294C312.429 14.1955 312.912 15 313.667 15H318.2C319.308 15 320.326 14.3894 320.847 13.4118L327.216 1.47059C327.571 0.804482 327.088 0 326.333 0H321.8C320.692 0 319.674 0.610645 319.153 1.58824Z" fill="#FAFAFA"/>
<path d="M330.153 1.58824L323.784 13.5294C323.429 14.1955 323.912 15 324.667 15H329.2C330.308 15 331.326 14.3894 331.847 13.4118L338.216 1.47059C338.571 0.804482 338.088 0 337.333 0H332.8C331.692 0 330.674 0.610645 330.153 1.58824Z" fill="#FAFAFA"/>
<path d="M341.153 1.58824L334.784 13.5294C334.429 14.1955 334.912 15 335.667 15H340.2C341.308 15 342.326 14.3894 342.847 13.4118L349.216 1.47059C349.571 0.804482 349.088 0 348.333 0H343.8C342.692 0 341.674 0.610645 341.153 1.58824Z" fill="#FAFAFA"/>
</svg>
