<svg width="139" height="74" viewBox="0 0 139 74" fill="none" xmlns="http://www.w3.org/2000/svg">
<path d="M16.3052 57.658C16.3698 57.6557 16.42 57.7033 16.4223 57.7691L16.8176 69.0462C16.8199 69.1119 16.7732 69.1629 16.7086 69.1652L16.1593 69.1843C16.0946 69.1865 16.0445 69.1389 16.0421 69.0731L15.7027 59.3906L11.8938 66.5511C11.8794 66.601 11.8315 66.6191 11.7992 66.6202L11.363 66.6354C11.3145 66.6371 11.2655 66.6223 11.2476 66.5736L6.84784 59.6493L7.18898 69.3811C7.19128 69.4469 7.14455 69.4979 7.07993 69.5001L6.5468 69.5187C6.48217 69.5209 6.43198 69.4733 6.42967 69.4075L6.03437 58.1305C6.03206 58.0647 6.0788 58.0137 6.14342 58.0115L6.61193 57.9952C6.64424 57.994 6.71001 58.0247 6.72732 58.057L11.5378 65.6253L15.7259 57.7439C15.7409 57.7105 15.7882 57.6759 15.8367 57.6743L16.3052 57.658Z" fill="white"/>
<path d="M29.0278 68.5885C29.0797 68.6854 29.0168 68.737 28.9361 68.7398L28.3706 68.7595C28.3222 68.7611 28.2725 68.7299 28.2379 68.6653L26.7091 65.1963L21.2809 65.3851L19.8856 68.9559C19.8717 69.0222 19.8244 69.0568 19.7598 69.059L19.2105 69.0781C19.1136 69.0815 19.0784 69.0004 19.1078 68.9171L23.5603 57.5043C23.5909 57.4539 23.6214 57.4034 23.6699 57.4018L24.0253 57.3894C24.0738 57.3877 24.124 57.4353 24.1419 57.4841L29.0278 68.5885ZM23.8747 58.629L21.533 64.7345L26.4443 64.5636L23.8747 58.629Z" fill="white"/>
<path d="M34.664 68.738C32.79 68.8032 31.5495 68.0234 30.6091 67.0357C30.5583 66.9716 30.5566 66.9223 30.5872 66.8719L30.8636 66.4508C30.9259 66.3828 30.9743 66.3811 31.0407 66.4282C31.9955 67.366 32.9256 68.0579 34.5573 68.0011C36.4313 67.9359 37.5617 66.9584 37.5058 65.3639C37.4499 63.7693 36.2723 63.3988 34.2361 62.9923C32.7701 62.6977 30.656 62.3762 30.5782 60.1569C30.5125 58.2829 31.9718 56.9977 34.1851 56.9207C35.7845 56.8651 36.9372 57.4504 37.8915 58.3719C37.9579 58.4189 37.944 58.4852 37.9296 58.5351L37.6849 58.9386C37.6388 59.0061 37.5903 59.0078 37.5245 58.9771C36.6239 58.202 35.7613 57.5901 34.275 57.6418C32.4818 57.7042 31.303 58.6833 31.3531 60.1135C31.4073 61.6588 32.8087 61.9557 34.3066 62.2327C36.2446 62.6097 38.2 63.019 38.2824 65.3698C38.3533 67.3917 36.9742 68.6577 34.664 68.738Z" fill="white"/>
<path d="M49.113 56.5166C49.1777 56.5144 49.2279 56.562 49.2302 56.6278L49.2486 57.1538C49.2509 57.2196 49.2042 57.2706 49.1396 57.2728L44.8422 57.4223L45.215 68.0583C45.2173 68.124 45.1706 68.175 45.106 68.1773L44.5567 68.1964C44.4921 68.1986 44.4419 68.151 44.4396 68.0852L44.0667 57.4493L39.7694 57.5988C39.7048 57.601 39.6546 57.5534 39.6523 57.4877L39.6338 56.9616C39.6315 56.8959 39.6783 56.8449 39.7429 56.8426L49.113 56.5166Z" fill="white"/>
<path d="M59.8414 66.924C59.9061 66.9218 59.9563 66.9694 59.9586 67.0351L59.9764 67.5447C59.9787 67.6105 59.932 67.6615 59.8674 67.6637L51.9997 67.9375C51.9351 67.9397 51.8849 67.8921 51.8826 67.8263L51.4872 56.5493C51.4849 56.4835 51.5317 56.4325 51.5963 56.4303L59.3832 56.1594C59.4478 56.1571 59.498 56.2047 59.5003 56.2705L59.5182 56.7801C59.5205 56.8459 59.4738 56.8969 59.4091 56.8991L52.2685 57.1475L52.4304 61.7668L58.5048 61.5555C58.5694 61.5533 58.6196 61.6009 58.6219 61.6667L58.6375 62.1105C58.6398 62.1763 58.5931 62.2273 58.5284 62.2295L52.454 62.4408L52.62 67.1752L59.8414 66.924Z" fill="white"/>
<path d="M67.6475 62.3731L70.2253 67.1553C70.2766 67.2358 70.2304 67.3032 70.1335 67.3066L69.5358 67.3274C69.4873 67.3291 69.4544 67.3138 69.4365 67.265L66.8761 62.5152C66.7636 62.5355 66.6343 62.54 66.5051 62.5445L62.9348 62.6687L63.1019 67.436C63.1042 67.5018 63.0574 67.5528 62.9928 67.555L62.4597 67.5736C62.3951 67.5758 62.3449 67.5282 62.3426 67.4624L61.9472 56.1854C61.9449 56.1196 61.9917 56.0686 62.0563 56.0664L66.2729 55.9197C68.5346 55.841 70.0497 57.0721 70.1194 59.0612C70.1759 60.6722 69.2169 61.9235 67.6475 62.3731ZM62.9094 61.9454L66.4797 61.8212C68.3053 61.7577 69.4316 60.6652 69.378 59.1364C69.3244 57.6075 68.1082 56.5965 66.2988 56.6594L62.7285 56.7836L62.9094 61.9454Z" fill="white"/>
<path d="M76.8906 55.5503C79.1524 55.4716 80.6675 56.7027 80.7372 58.6918C80.8064 60.6645 79.3685 62.0971 77.1229 62.1752L73.5525 62.2994L73.7196 67.0666C73.7219 67.1324 73.6752 67.1834 73.6106 67.1857L73.0774 67.2042C73.0128 67.2065 72.9626 67.1588 72.9603 67.0931L72.565 55.816C72.5627 55.7502 72.6095 55.6992 72.6741 55.697L76.8906 55.5503ZM77.0975 61.4519C78.9231 61.3884 80.0494 60.2958 79.9958 58.767C79.9422 57.2382 78.726 56.2271 76.9166 56.2901L73.3462 56.4143L73.5272 61.5761L77.0975 61.4519Z" fill="white"/>
<path d="M83.6006 66.8381C83.5359 66.8404 83.4857 66.7927 83.4834 66.727L83.0881 55.4499C83.0858 55.3842 83.1326 55.3332 83.1972 55.3309L83.7303 55.3124C83.7949 55.3101 83.8451 55.3578 83.8474 55.4235L84.2427 66.7006C84.245 66.7663 84.1983 66.8173 84.1337 66.8196L83.6006 66.8381Z" fill="white"/>
<path d="M95.3707 65.688C95.4353 65.6858 95.4855 65.7334 95.4879 65.7991L95.5057 66.3088C95.508 66.3745 95.4613 66.4255 95.3967 66.4278L87.529 66.7015C87.4644 66.7037 87.4142 66.6561 87.4118 66.5903L87.0165 55.3133C87.0142 55.2475 87.061 55.1965 87.1256 55.1943L94.9125 54.9234C94.9771 54.9211 95.0273 54.9688 95.0296 55.0345L95.0475 55.5441C95.0498 55.6099 95.0031 55.6609 94.9384 55.6631L87.7977 55.9115L87.9597 60.5308L94.0341 60.3195C94.0987 60.3173 94.1489 60.3649 94.1512 60.4307L94.1668 60.8745C94.1691 60.9403 94.1224 60.9913 94.0577 60.9935L87.9833 61.2048L88.1493 65.9392L95.3707 65.688Z" fill="white"/>
<path d="M102.939 66.3629C99.773 66.473 97.2142 64.0767 97.0915 60.5753C96.9699 57.1067 99.3241 54.5888 102.361 54.4832C104.025 54.4253 105.469 55.0005 106.625 56.1453C106.675 56.193 106.661 56.2593 106.615 56.3103L106.256 56.6849C106.225 56.7189 106.16 56.7211 106.11 56.6735C105.153 55.6699 103.873 55.1712 102.436 55.2213C99.7539 55.3145 97.7436 57.4912 97.8508 60.5489C97.9591 63.6394 100.183 65.7017 102.864 65.6084C104.528 65.5505 105.396 64.9278 106.318 63.9905C106.348 63.94 106.413 63.9378 106.446 63.9695L106.863 64.3171C106.913 64.3648 106.915 64.4305 106.869 64.4815C105.761 65.6557 104.571 66.3061 102.939 66.3629Z" fill="white"/>
<path d="M117.332 64.924C117.397 64.9218 117.447 64.9694 117.449 65.0352L117.467 65.5448C117.469 65.6105 117.423 65.6615 117.358 65.6638L109.49 65.9375C109.426 65.9397 109.375 65.8921 109.373 65.8263L108.978 54.5493C108.976 54.4835 109.022 54.4325 109.087 54.4303L116.874 54.1594C116.938 54.1571 116.989 54.2048 116.991 54.2705L117.009 54.7801C117.011 54.8459 116.964 54.8969 116.9 54.8991L109.759 55.1475L109.921 59.7669L115.995 59.5555C116.06 59.5533 116.11 59.6009 116.113 59.6667L116.128 60.1105C116.13 60.1763 116.084 60.2273 116.019 60.2295L109.945 60.4409L110.111 65.1752L117.332 64.924Z" fill="white"/>
<path d="M121.661 38.8152C121.659 38.7554 121.706 38.7088 121.77 38.7066L122.269 38.6892C122.333 38.687 122.383 38.7302 122.385 38.79L122.617 45.3978L127.137 45.2405L126.94 39.6194C126.938 39.5596 126.984 39.5131 127.049 39.5108L127.483 39.4957C127.547 39.4935 127.597 39.5367 127.599 39.5965L127.796 45.2176L133.041 45.0351C133.105 45.0329 133.155 45.0761 133.157 45.1359L133.174 45.6292C133.176 45.689 133.13 45.7355 133.065 45.7378L122.03 46.1217C121.965 46.1239 121.916 46.0807 121.914 46.0209L121.661 38.8152Z" fill="white"/>
<path d="M132.841 36.1104C132.843 36.1702 132.796 36.2167 132.732 36.219L121.696 36.6029C121.632 36.6051 121.582 36.5619 121.58 36.5021L121.563 36.0088C121.561 35.949 121.607 35.9025 121.672 35.9002L132.707 35.5163C132.771 35.5141 132.821 35.5573 132.823 35.6171L132.841 36.1104Z" fill="white"/>
<path d="M131.734 25.2198C131.732 25.16 131.779 25.1135 131.843 25.1112L132.342 25.0939C132.406 25.0916 132.456 25.1348 132.458 25.1946L132.713 32.4752C132.715 32.535 132.669 32.5815 132.604 32.5837L121.569 32.9676C121.504 32.9699 121.455 32.9267 121.452 32.8669L121.435 32.3735C121.433 32.3137 121.48 32.2672 121.544 32.265L131.968 31.9023L131.734 25.2198Z" fill="white"/>
<path d="M120.787 13.8863C120.785 13.8265 120.832 13.78 120.896 13.7777L131.932 13.3938C131.996 13.3916 132.046 13.4347 132.048 13.4945L132.066 14.0028C132.068 14.0626 132.021 14.1092 131.957 14.1114L122.482 14.441L129.482 17.9545C129.531 17.9677 129.549 18.012 129.55 18.0419L129.564 18.4456C129.565 18.4904 129.551 18.5358 129.503 18.5524L122.721 22.6352L132.244 22.3039C132.308 22.3016 132.358 22.3448 132.36 22.4046L132.377 22.898C132.38 22.9578 132.333 23.0043 132.269 23.0065L121.233 23.3904C121.169 23.3927 121.119 23.3495 121.117 23.2897L121.102 22.8561C121.1 22.8262 121.131 22.7653 121.162 22.7493L128.576 18.2853L120.87 14.4222C120.838 14.4084 120.804 14.3647 120.802 14.3198L120.787 13.8863Z" fill="white"/>
<path d="M132.027 7.3903C132.088 9.12447 131.323 10.2737 130.355 11.1456C130.292 11.1927 130.244 11.1943 130.195 11.1661L129.783 10.911C129.716 10.8535 129.715 10.8086 129.761 10.7471C130.68 9.86197 131.359 9.00016 131.306 7.49023C131.245 5.75605 130.29 4.71157 128.73 4.76585C127.17 4.82014 126.805 5.91051 126.404 7.79546C126.113 9.1527 125.796 11.1096 123.624 11.1851C121.79 11.2489 120.535 9.90059 120.463 7.85247C120.411 6.37244 120.986 5.30469 121.889 4.42009C121.935 4.35862 122 4.37133 122.049 4.3846L122.443 4.61036C122.509 4.65297 122.511 4.69782 122.48 4.75874C121.721 5.59345 121.12 6.39267 121.169 7.76805C121.227 9.42747 122.183 10.5168 123.583 10.4681C125.095 10.4155 125.387 9.11808 125.661 7.73151C126.033 5.93737 126.437 4.12717 128.737 4.04714C130.716 3.97831 131.952 5.25248 132.027 7.3903Z" fill="white"/>
<path fill-rule="evenodd" clip-rule="evenodd" d="M75.8518 44.472C75.8391 44.1105 75.8328 43.9298 75.7159 43.8214C75.599 43.713 75.4173 43.7194 75.0538 43.732L49.9148 44.6065L49.3925 29.7079L70.4795 28.9743C70.843 28.9617 71.0248 28.9554 71.1337 28.8392C71.2427 28.7229 71.2364 28.5422 71.2237 28.1807L71.1417 25.8414C71.1291 25.4799 71.1227 25.2992 71.0059 25.1908C70.889 25.0825 70.7072 25.0888 70.3437 25.1014L49.2568 25.835L48.7485 11.3358L73.6022 10.4712C73.9657 10.4585 74.1474 10.4522 74.2564 10.336C74.3654 10.2198 74.3591 10.039 74.3464 9.67757L74.2564 7.11003C74.2437 6.74856 74.2374 6.56783 74.1205 6.45946C74.0036 6.3511 73.8219 6.35742 73.4584 6.37007L45.1513 7.35481C44.7878 7.36746 44.6061 7.37378 44.4971 7.49C44.3881 7.60623 44.3945 7.78696 44.4071 8.14843L45.8072 48.0878C45.8198 48.4493 45.8262 48.63 45.943 48.7384C46.0599 48.8468 46.2416 48.8404 46.6051 48.8278L75.1975 47.8331C75.561 47.8205 75.7428 47.8141 75.8518 47.6979C75.9608 47.5817 75.9544 47.401 75.9418 47.0395L75.8518 44.472Z" fill="white"/>
<path fill-rule="evenodd" clip-rule="evenodd" d="M75.2106 27.3565C75.4333 33.7099 77.6352 38.9385 81.4435 42.524C85.2531 46.1107 90.596 47.9829 96.9638 47.7614C103.332 47.5399 108.53 45.301 112.08 41.4582C115.627 37.6169 117.458 32.2479 117.235 25.8945C117.012 19.542 114.809 14.2452 111.003 10.5897C107.194 6.93122 101.848 4.98257 95.472 5.20437C89.1255 5.42515 83.9288 7.72574 80.3777 11.6326C76.8289 15.5367 74.9869 20.9746 75.2106 27.3565ZM112.964 26.0431C113.148 31.3003 111.631 35.5881 108.851 38.601C106.072 41.6127 101.963 43.4243 96.818 43.6032C91.6442 43.7832 87.4187 42.2611 84.4433 39.4507C81.4665 36.639 79.6663 32.4668 79.4819 27.2079C79.2966 21.9205 80.8121 17.5583 83.5943 14.4802C86.3738 11.405 90.4806 9.54125 95.6177 9.36254C100.755 9.18383 104.982 10.7576 107.97 13.6322C110.961 16.5095 112.778 20.7558 112.964 26.0431Z" fill="white"/>
<path fill-rule="evenodd" clip-rule="evenodd" d="M36.6546 41.6322L9.25411 9.47993C8.89782 9.06186 8.71968 8.85282 8.47669 8.74596C8.23371 8.6391 7.95832 8.64868 7.40754 8.66784L5.07538 8.74897C4.71188 8.76162 4.53013 8.76794 4.42115 8.88416C4.31216 9.00039 4.31849 9.18112 4.33117 9.54259L5.7312 49.482C5.74387 49.8435 5.75021 50.0242 5.86707 50.1326C5.98393 50.2409 6.16568 50.2346 6.52917 50.222L9.2115 50.1286C9.57499 50.116 9.75674 50.1097 9.86573 49.9935C9.97472 49.8772 9.96838 49.6965 9.95571 49.335L8.79094 16.1071L36.1933 48.3123C36.5496 48.731 36.7278 48.9404 36.9709 49.0474C37.2141 49.1545 37.4897 49.1449 38.041 49.1257L40.4292 49.0426C40.7927 49.03 40.9744 49.0237 41.0834 48.9074C41.1924 48.7912 41.186 48.6105 41.1734 48.249L39.7733 8.30963C39.7607 7.94816 39.7543 7.76743 39.6375 7.65906C39.5206 7.55069 39.3389 7.55702 38.9754 7.56966L36.236 7.66496C35.8725 7.6776 35.6907 7.68393 35.5817 7.80015C35.4728 7.91637 35.4791 8.09711 35.4918 8.45858L36.6546 41.6322Z" fill="white"/>
<path d="M99.1095 26.3823C99.1651 27.9704 97.9156 29.3028 96.3187 29.3584C94.7217 29.4139 93.3819 28.1716 93.3263 26.5835C93.2706 24.9954 94.5201 23.663 96.1171 23.6074C97.7141 23.5519 99.0538 24.7942 99.1095 26.3823Z" fill="white"/>
<path fill-rule="evenodd" clip-rule="evenodd" d="M1.52186 4.67248L135.565 0.00939301C135.769 0.00228085 135.943 -0.00377567 136.087 0.00285933C136.237 0.0098301 136.384 0.0314495 136.526 0.0972994C136.74 0.196577 136.917 0.360719 137.032 0.566197C137.108 0.702488 137.139 0.846706 137.157 0.995482C137.174 1.13709 137.18 1.31006 137.187 1.5132L138.996 53.1144C139.001 53.272 139.006 53.405 138.979 53.5351C138.956 53.6495 138.915 53.7595 138.857 53.8611C138.791 53.9766 138.7 54.0739 138.591 54.1892L124.363 69.3623C124.255 69.4778 124.164 69.5752 124.052 69.6485C123.954 69.713 123.847 69.7617 123.734 69.7929C123.605 69.8284 123.471 69.8329 123.313 69.8383L3.95171 73.9906C3.74744 73.9977 3.5735 74.0038 3.43028 73.9971C3.27981 73.9902 3.13291 73.9685 2.99089 73.9027C2.77677 73.8034 2.59976 73.6393 2.48524 73.4338C2.40927 73.2975 2.37734 73.1533 2.35985 73.0045C2.3432 72.8629 2.33714 72.6899 2.33003 72.4868L0.00939813 6.28535C0.00227118 6.0822 -0.00379737 5.90922 0.0028929 5.76679C0.00992144 5.61717 0.0316804 5.47108 0.0979163 5.32984C0.197777 5.11691 0.36286 4.94086 0.569504 4.82695C0.706568 4.75139 0.851597 4.71961 1.00121 4.7022C1.14362 4.68563 1.31757 4.67959 1.52186 4.67248ZM1.08183 5.38806C0.975015 5.40049 0.931073 5.41713 0.906121 5.43088C0.827738 5.47409 0.765121 5.54087 0.727242 5.62164C0.715184 5.64735 0.701559 5.6921 0.696541 5.79893C0.691333 5.9098 0.696131 6.05437 0.703857 6.27479L3.02353 72.4491C3.03126 72.6695 3.0366 72.814 3.04956 72.9243C3.06204 73.0305 3.07877 73.0742 3.0926 73.099C3.13604 73.1769 3.20318 73.2392 3.2844 73.2768C3.31025 73.2888 3.35525 73.3024 3.46268 73.3074C3.57417 73.3125 3.71955 73.3077 3.94121 73.3L123.258 69.1492C123.463 69.1421 123.509 69.1383 123.548 69.1275C123.591 69.1156 123.632 69.0972 123.669 69.0727C123.703 69.0504 123.736 69.0184 123.876 68.8691L138.063 53.7406C138.203 53.5913 138.232 53.5563 138.252 53.5211C138.274 53.4826 138.29 53.4409 138.299 53.3975C138.307 53.3578 138.308 53.312 138.301 53.108L136.493 1.55095C136.486 1.33053 136.48 1.18598 136.467 1.07574C136.455 0.96952 136.438 0.925826 136.424 0.901014C136.381 0.823074 136.314 0.760813 136.232 0.723156C136.207 0.711168 136.162 0.697625 136.054 0.692647C135.943 0.687482 135.797 0.692271 135.576 0.699982L1.5597 5.36212C1.33805 5.36984 1.19269 5.37516 1.08183 5.38806Z" fill="#FAFAFA"/>
</svg>
