<svg width="48" height="48" viewBox="0 0 48 48" fill="none" xmlns="http://www.w3.org/2000/svg">
<g clip-path="url(#clip0_581_10150)">
<path d="M48.0008 43.4258H43.4258V45.7208H48.0008V43.4258Z" fill="#FAFAFA"/>
<path d="M43.4245 45.7188H41.1445V47.9988H43.4245V45.7188Z" fill="#FAFAFA"/>
<path d="M41.1466 29.7144H38.8516V31.9944H41.1466V34.2894H43.4266V22.8594H41.1466V29.7144Z" fill="#FAFAFA"/>
<path d="M41.1453 43.4258H36.5703V45.7208H41.1453V43.4258Z" fill="#FAFAFA"/>
<path d="M41.1466 20.5781H38.8516V22.8581H41.1466V20.5781Z" fill="#FAFAFA"/>
<path d="M36.5711 41.1445H31.9961V43.4245H36.5711V41.1445Z" fill="#FAFAFA"/>
<path d="M34.2891 31.9947H36.5691V29.7147H38.8491V27.4347H36.5691V20.5797H38.8491V18.2847H36.5691V11.4297H34.2891V31.9947Z" fill="#FAFAFA"/>
<path d="M31.9948 45.7188H29.7148V47.9988H31.9948V45.7188Z" fill="#FAFAFA"/>
<path d="M31.9948 27.4336H29.7148V29.7136H31.9948V27.4336Z" fill="#FAFAFA"/>
<path d="M31.9948 22.8594H29.7148V25.1394H31.9948V22.8594Z" fill="#FAFAFA"/>
<path d="M29.7169 41.1445H27.4219V45.7195H29.7169V41.1445Z" fill="#FAFAFA"/>
<path d="M29.7164 36.5703H20.5664V38.8653H29.7164V36.5703Z" fill="#FAFAFA"/>
<path d="M29.7169 2.28125H27.4219V4.57625H29.7169V2.28125Z" fill="#FAFAFA"/>
<path d="M27.4194 0H22.8594V2.28H27.4194V0Z" fill="#FAFAFA"/>
<path d="M29.7164 13.7097H27.4214V11.4297H22.8614V13.7097H25.1414V16.0047H22.8614V13.7097H20.5664V18.2847H22.8614V20.5797H27.4214V18.2847H29.7164V13.7097Z" fill="#FAFAFA"/>
<path d="M22.8614 41.1445H20.5664V45.7195H22.8614V41.1445Z" fill="#FAFAFA"/>
<path d="M15.9883 34.2911H18.2833V36.5711H20.5633V34.2911H29.7133V36.5711H31.9933V34.2911H34.2883V31.9961H15.9883V34.2911Z" fill="#FAFAFA"/>
<path d="M22.8614 2.28125H20.5664V4.57625H22.8614V2.28125Z" fill="#FAFAFA"/>
<path d="M20.5652 45.7188H18.2852V47.9988H20.5652V45.7188Z" fill="#FAFAFA"/>
<path d="M18.2859 41.1445H13.7109V43.4245H18.2859V41.1445Z" fill="#FAFAFA"/>
<path d="M20.5633 6.85422V4.57422H18.2833V6.85422H15.9883V11.4292H18.2833V9.14922H31.9933V11.4292H34.2883V6.85422H31.9933V4.57422H29.7133V6.85422H20.5633Z" fill="#FAFAFA"/>
<path d="M15.9897 11.4297H13.7097V18.2847H11.4297V20.5797H13.7097V27.4347H11.4297V29.7147H13.7097V31.9947H15.9897V11.4297Z" fill="#FAFAFA"/>
<path d="M13.7117 43.4258H9.13672V45.7208H13.7117V43.4258Z" fill="#FAFAFA"/>
<path d="M11.4317 20.5781H9.13672V22.8581H11.4317V20.5781Z" fill="#FAFAFA"/>
<path d="M9.13547 45.7188H6.85547V47.9988H9.13547V45.7188Z" fill="#FAFAFA"/>
<path d="M9.13547 22.8594H6.85547V34.2894H9.13547V31.9944H11.4305V29.7144H9.13547V22.8594Z" fill="#FAFAFA"/>
<path d="M6.85625 43.4258H2.28125V45.7208H6.85625V43.4258Z" fill="#FAFAFA"/>
<path d="M2.28 45.7188H0V47.9988H2.28V45.7188Z" fill="#FAFAFA"/>
</g>
<defs>
<clipPath id="clip0_581_10150">
<rect width="48" height="48" fill="white"/>
</clipPath>
</defs>
</svg>
