<svg width="40" height="40" viewBox="0 0 40 40" fill="none" xmlns="http://www.w3.org/2000/svg">
<path d="M14.7368 0H25.2632V2.10526H14.7368V0Z" fill="#FAFAFA"/>
<path d="M10.5263 4.21053V2.10526H14.7368V4.21053H10.5263Z" fill="#FAFAFA"/>
<path d="M8.42105 6.31579V4.21053H10.5263V6.31579H8.42105Z" fill="#FAFAFA"/>
<path d="M6.31579 8.42105V6.31579H8.42105V8.42105H6.31579Z" fill="#FAFAFA"/>
<path d="M4.21053 10.5263V8.42105H6.31579V10.5263H4.21053Z" fill="#FAFAFA"/>
<path d="M2.10526 14.7368V10.5263H4.21053V14.7368H2.10526Z" fill="#FAFAFA"/>
<path d="M2.10526 25.2632H0V14.7368H2.10526V25.2632Z" fill="#FAFAFA"/>
<path d="M4.21053 29.4737H2.10526V25.2632H4.21053V29.4737Z" fill="#FAFAFA"/>
<path d="M6.31579 31.5789H4.21053V29.4737H6.31579V31.5789Z" fill="#FAFAFA"/>
<path d="M8.42105 33.6842H6.31579V31.5789H8.42105V33.6842Z" fill="#FAFAFA"/>
<path d="M10.5263 35.7895H8.42105V33.6842H10.5263V35.7895Z" fill="#FAFAFA"/>
<path d="M14.7368 37.8947H10.5263V35.7895H14.7368V37.8947Z" fill="#FAFAFA"/>
<path d="M25.2632 37.8947V40H14.7368V37.8947H25.2632Z" fill="#FAFAFA"/>
<path d="M29.4737 35.7895V37.8947H25.2632V35.7895H29.4737Z" fill="#FAFAFA"/>
<path d="M31.5789 33.6842V35.7895H29.4737V33.6842H31.5789Z" fill="#FAFAFA"/>
<path d="M33.6842 31.5789V33.6842H31.5789V31.5789H33.6842Z" fill="#FAFAFA"/>
<path d="M35.7895 29.4737V31.5789H33.6842V29.4737H35.7895Z" fill="#FAFAFA"/>
<path d="M37.8947 25.2632V29.4737H35.7895V25.2632H37.8947Z" fill="#FAFAFA"/>
<path d="M37.8947 14.7368H40V25.2632H37.8947V14.7368Z" fill="#FAFAFA"/>
<path d="M35.7895 10.5263H37.8947V14.7368H35.7895V10.5263Z" fill="#FAFAFA"/>
<path d="M33.6842 8.42105H35.7895V10.5263H33.6842V8.42105Z" fill="#FAFAFA"/>
<path d="M31.5789 6.31579H33.6842V8.42105H31.5789V6.31579Z" fill="#FAFAFA"/>
<path d="M29.4737 4.21053H31.5789V6.31579H29.4737V4.21053Z" fill="#FAFAFA"/>
<path d="M29.4737 4.21053V2.10526H25.2632V4.21053H29.4737Z" fill="#FAFAFA"/>
<path d="M12.6316 8.42105H10.5263V10.5263H8.42105V12.6316H10.5263V14.7368H12.6316V16.8421H14.7368V18.9474H16.8421V21.0526H14.7368V23.1579H12.6316V25.2632H10.5263V27.3684H8.42105V29.4737H10.5263V31.5789H12.6316V29.4737H14.7368V27.3684H16.8421V25.2632H18.9474V23.1579H21.0526V25.2632H23.1579V27.3684H25.2632V29.4737H27.3684V31.5789H29.4737V29.4737H31.5789V27.3684H29.4737V25.2632H27.3684V23.1579H25.2632V21.0526H23.1579V18.9474H25.2632V16.8421H27.3684V14.7368H29.4737V12.6316H31.5789V10.5263H29.4737V8.42105H27.3684V10.5263H25.2632V12.6316H23.1579V14.7368H21.0526V16.8421H18.9474V14.7368H16.8421V12.6316H14.7368V10.5263H12.6316V8.42105Z" fill="#FAFAFA"/>
</svg>
