<svg width="40" height="40" viewBox="0 0 40 40" fill="none" xmlns="http://www.w3.org/2000/svg">
<path d="M14.7368 0H25.2632V2.10526H14.7368V0Z" fill="#0E0E0E"/>
<path d="M10.5263 4.21053V2.10526H14.7368V4.21053H10.5263Z" fill="#0E0E0E"/>
<path d="M8.42105 6.31579V4.21053H10.5263V6.31579H8.42105Z" fill="#0E0E0E"/>
<path d="M6.31579 8.42105V6.31579H8.42105V8.42105H6.31579Z" fill="#0E0E0E"/>
<path d="M4.21053 10.5263V8.42105H6.31579V10.5263H4.21053Z" fill="#0E0E0E"/>
<path d="M2.10526 14.7368V10.5263H4.21053V14.7368H2.10526Z" fill="#0E0E0E"/>
<path d="M2.10526 25.2632H0V14.7368H2.10526V25.2632Z" fill="#0E0E0E"/>
<path d="M4.21053 29.4737H2.10526V25.2632H4.21053V29.4737Z" fill="#0E0E0E"/>
<path d="M6.31579 31.5789H4.21053V29.4737H6.31579V31.5789Z" fill="#0E0E0E"/>
<path d="M8.42105 33.6842H6.31579V31.5789H8.42105V33.6842Z" fill="#0E0E0E"/>
<path d="M10.5263 35.7895H8.42105V33.6842H10.5263V35.7895Z" fill="#0E0E0E"/>
<path d="M14.7368 37.8947H10.5263V35.7895H14.7368V37.8947Z" fill="#0E0E0E"/>
<path d="M25.2632 37.8947V40H14.7368V37.8947H25.2632Z" fill="#0E0E0E"/>
<path d="M29.4737 35.7895V37.8947H25.2632V35.7895H29.4737Z" fill="#0E0E0E"/>
<path d="M31.5789 33.6842V35.7895H29.4737V33.6842H31.5789Z" fill="#0E0E0E"/>
<path d="M33.6842 31.5789V33.6842H31.5789V31.5789H33.6842Z" fill="#0E0E0E"/>
<path d="M35.7895 29.4737V31.5789H33.6842V29.4737H35.7895Z" fill="#0E0E0E"/>
<path d="M37.8947 25.2632V29.4737H35.7895V25.2632H37.8947Z" fill="#0E0E0E"/>
<path d="M37.8947 14.7368H40V25.2632H37.8947V14.7368Z" fill="#0E0E0E"/>
<path d="M35.7895 10.5263H37.8947V14.7368H35.7895V10.5263Z" fill="#0E0E0E"/>
<path d="M33.6842 8.42105H35.7895V10.5263H33.6842V8.42105Z" fill="#0E0E0E"/>
<path d="M31.5789 6.31579H33.6842V8.42105H31.5789V6.31579Z" fill="#0E0E0E"/>
<path d="M29.4737 4.21053H31.5789V6.31579H29.4737V4.21053Z" fill="#0E0E0E"/>
<path d="M29.4737 4.21053V2.10526H25.2632V4.21053H29.4737Z" fill="#0E0E0E"/>
<path d="M29.4737 10.5263H31.5789V12.6316H33.6842V14.7368H31.5789V16.8421H29.4737V18.9474H27.3684V21.0526H25.2632V23.1579H23.1579V25.2632H21.0526V27.3684H18.9474V29.4737H16.8421V31.5789H14.7368V29.4737H12.6316V27.3684H10.5263V25.2632H8.42105V23.1579H6.31579V21.0526H8.42105V18.9474H10.5263V21.0526H12.6316V23.1579H14.7368V25.2632H16.8421V23.1579H18.9474V21.0526H21.0526V18.9474H23.1579V16.8421H25.2632V14.7368H27.3684V12.6316H29.4737V10.5263Z" fill="#0E0E0E"/>
</svg>
