<svg width="812" height="405" viewBox="0 0 812 405" fill="none" xmlns="http://www.w3.org/2000/svg">
<g opacity="0.3">
<mask id="path-1-outside-1_581_8059" maskUnits="userSpaceOnUse" x="0" y="0" width="812" height="405" fill="black">
<rect fill="white" width="812" height="405"/>
<path d="M177.742 135.995H218.955V130.039L173.779 131.628L177.742 135.995ZM236.391 290.445V296.798H289.889L289.493 290.445H236.391ZM236.391 251.932H289.889V245.976H236.391V251.932ZM321.592 135.995H405.207V193.566H133.754L128.206 162.2L129.395 404H27.9472L29.5323 251.932L25.9658 276.549L1 268.211L3.77397 93.5113L29.5323 95.8936L27.9472 1L129.792 1.39704L128.206 88.3498L153.172 76.8355L156.739 81.997L218.955 83.5852V76.0414L139.302 77.6296V18.0729L218.955 19.6611L217.766 2.19113H323.573L321.592 19.6611L397.282 18.4699V78.0266L321.592 76.0414V83.5852L388.96 81.997V131.628L321.592 130.039V135.995ZM289.493 340.87L289.889 333.723H236.391V404H140.887L141.284 199.125H388.96V404L260.961 403.603L263.735 340.87H289.493ZM495.956 208.654H499.919L503.882 186.42H492.389L495.956 208.654ZM586.308 207.066V186.023L582.345 185.626L577.194 208.654L586.308 207.066ZM732.14 233.271L734.518 254.711L738.084 233.271H732.14ZM677.453 280.519L677.849 305.93L683.794 304.342L677.453 280.519ZM692.908 233.271L677.057 233.668L677.453 243.991L692.908 233.271ZM807.83 152.274L681.02 150.686L681.812 86.7616L716.289 87.1586V82.7911L676.264 83.1882L676.661 155.45H807.83L808.226 210.242L795.149 301.96L811 304.342L802.678 404L734.518 374.222L684.586 404L678.246 375.81L679.831 404H583.931L586.308 294.019L551.039 292.828L551.435 297.592L578.779 296.004V379.383L551.832 377.795L553.813 404H447.61L449.987 378.192L418.285 380.177V296.798L449.987 297.989L449.591 293.225L411.944 295.21V207.86L423.436 208.654L417.888 187.214L406.396 188.802V101.055L448.402 102.643V98.6729L418.681 100.658V17.2788L448.006 18.4699L446.025 2.19113H550.643L549.454 17.6759L576.401 15.6906L576.797 99.0699L549.85 97.8788V101.849L586.308 100.261V6.55862H808.622L807.83 152.274Z"/>
</mask>
<path d="M177.742 135.995H218.955V130.039L173.779 131.628L177.742 135.995ZM236.391 290.445V296.798H289.889L289.493 290.445H236.391ZM236.391 251.932H289.889V245.976H236.391V251.932ZM321.592 135.995H405.207V193.566H133.754L128.206 162.2L129.395 404H27.9472L29.5323 251.932L25.9658 276.549L1 268.211L3.77397 93.5113L29.5323 95.8936L27.9472 1L129.792 1.39704L128.206 88.3498L153.172 76.8355L156.739 81.997L218.955 83.5852V76.0414L139.302 77.6296V18.0729L218.955 19.6611L217.766 2.19113H323.573L321.592 19.6611L397.282 18.4699V78.0266L321.592 76.0414V83.5852L388.96 81.997V131.628L321.592 130.039V135.995ZM289.493 340.87L289.889 333.723H236.391V404H140.887L141.284 199.125H388.96V404L260.961 403.603L263.735 340.87H289.493ZM495.956 208.654H499.919L503.882 186.42H492.389L495.956 208.654ZM586.308 207.066V186.023L582.345 185.626L577.194 208.654L586.308 207.066ZM732.14 233.271L734.518 254.711L738.084 233.271H732.14ZM677.453 280.519L677.849 305.93L683.794 304.342L677.453 280.519ZM692.908 233.271L677.057 233.668L677.453 243.991L692.908 233.271ZM807.83 152.274L681.02 150.686L681.812 86.7616L716.289 87.1586V82.7911L676.264 83.1882L676.661 155.45H807.83L808.226 210.242L795.149 301.96L811 304.342L802.678 404L734.518 374.222L684.586 404L678.246 375.81L679.831 404H583.931L586.308 294.019L551.039 292.828L551.435 297.592L578.779 296.004V379.383L551.832 377.795L553.813 404H447.61L449.987 378.192L418.285 380.177V296.798L449.987 297.989L449.591 293.225L411.944 295.21V207.86L423.436 208.654L417.888 187.214L406.396 188.802V101.055L448.402 102.643V98.6729L418.681 100.658V17.2788L448.006 18.4699L446.025 2.19113H550.643L549.454 17.6759L576.401 15.6906L576.797 99.0699L549.85 97.8788V101.849L586.308 100.261V6.55862H808.622L807.83 152.274Z" stroke="white" mask="url(#path-1-outside-1_581_8059)"/>
</g>
</svg>
