<svg width="555" height="180" viewBox="0 0 555 180" fill="none" xmlns="http://www.w3.org/2000/svg">
<path d="M12.2075 0H15V180H5C2.23858 180 0 177.761 0 175V12.905C0 11.6586 0.465487 10.4572 1.30522 9.53619L8.5127 1.63123C9.46012 0.592133 10.8013 0 12.2075 0Z" fill="#FAFAFA" fill-opacity="0.1"/>
<rect width="525" height="180" transform="translate(15)" fill="#FAFAFA" fill-opacity="0.1"/>
<path opacity="0.4" d="M27.496 13.8V25H26.216V13.8H27.496ZM32.2566 18.2V21.256C32.2566 23.208 33.0086 24.024 34.6886 24.024V25.24C32.0646 25.24 30.9766 23.896 30.9766 21.256V18.2H29.2966V17.656L31.7286 15.208H32.2566V17H34.6886V18.2H32.2566ZM48.3659 25H47.2619L47.1019 23.352C46.4619 24.536 45.3099 25.24 43.9499 25.24C41.7579 25.24 40.0939 23.432 40.0939 21.016C40.0939 18.568 41.7579 16.76 43.9499 16.76C45.3099 16.76 46.4459 17.464 47.0859 18.648L47.2619 17H48.3659V25ZM41.3739 21C41.3739 22.776 42.6059 24.072 44.2859 24.072C45.9339 24.072 47.0859 22.824 47.0859 21C47.0859 19.192 45.9339 17.912 44.2859 17.912C42.5739 17.912 41.3739 19.192 41.3739 21ZM52.0901 13.8V25H50.8101V13.8H52.0901ZM55.8401 13.8V25H54.5601V13.8H55.8401ZM68.5661 22.872C68.5661 24.216 67.2701 25.24 65.4141 25.24C63.3821 25.24 61.9581 24.376 61.7661 22.744H62.9821C63.1581 23.736 63.9901 24.264 65.4301 24.264C66.5181 24.264 67.3501 23.656 67.3501 22.888C67.3501 20.52 62.0221 22.328 62.0221 19.112C62.0221 17.816 63.2861 16.76 65.1421 16.76C67.1101 16.76 68.3581 17.704 68.4861 19.288H67.3021C67.2381 18.408 66.5501 17.72 65.1261 17.72C64.1021 17.72 63.2541 18.328 63.2541 19.096C63.2541 21.384 68.5661 19.448 68.5661 22.872ZM72.8191 18.2V21.256C72.8191 23.208 73.5711 24.024 75.2511 24.024V25.24C72.6271 25.24 71.5391 23.896 71.5391 21.256V18.2H69.8591V17.656L72.2911 15.208H72.8191V17H75.2511V18.2H72.8191ZM84.8659 25H83.7619L83.6019 23.352C82.9619 24.536 81.8099 25.24 80.4499 25.24C78.2579 25.24 76.5939 23.432 76.5939 21.016C76.5939 18.568 78.2579 16.76 80.4499 16.76C81.8099 16.76 82.9459 17.464 83.5859 18.648L83.7619 17H84.8659V25ZM77.8739 21C77.8739 22.776 79.1059 24.072 80.7859 24.072C82.4339 24.072 83.5859 22.824 83.5859 21C83.5859 19.192 82.4339 17.912 80.7859 17.912C79.0739 17.912 77.8739 19.192 77.8739 21ZM92.2701 16.76V18.104C90.0301 18.104 88.5901 19.88 88.5901 22.728V25H87.3101V17H88.4141L88.5901 19.544C89.2621 17.816 90.5901 16.76 92.2701 16.76ZM96.3035 18.2V21.256C96.3035 23.208 97.0555 24.024 98.7355 24.024V25.24C96.1115 25.24 95.0235 23.896 95.0235 21.256V18.2H93.3435V17.656L95.7755 15.208H96.3035V17H98.7355V18.2H96.3035ZM106.957 22.872C106.957 24.216 105.661 25.24 103.805 25.24C101.773 25.24 100.349 24.376 100.157 22.744H101.373C101.549 23.736 102.381 24.264 103.821 24.264C104.909 24.264 105.741 23.656 105.741 22.888C105.741 20.52 100.413 22.328 100.413 19.112C100.413 17.816 101.677 16.76 103.533 16.76C105.501 16.76 106.749 17.704 106.877 19.288H105.693C105.629 18.408 104.941 17.72 103.517 17.72C102.493 17.72 101.645 18.328 101.645 19.096C101.645 21.384 106.957 19.448 106.957 22.872ZM114.858 17H117.37V18.2H114.858V25H113.578V18.2H111.866V17H113.578C113.578 14.792 114.97 13.56 117.37 13.56V14.616C115.722 14.616 114.858 15.416 114.858 17ZM126.85 25H125.746L125.586 23.352C124.946 24.536 123.794 25.24 122.434 25.24C120.242 25.24 118.578 23.432 118.578 21.016C118.578 18.568 120.242 16.76 122.434 16.76C123.794 16.76 124.93 17.464 125.57 18.648L125.746 17H126.85V25ZM119.858 21C119.858 22.776 121.09 24.072 122.77 24.072C124.418 24.072 125.57 22.824 125.57 21C125.57 19.192 124.418 17.912 122.77 17.912C121.058 17.912 119.858 19.192 119.858 21ZM134.255 16.76V18.104C132.015 18.104 130.575 19.88 130.575 22.728V25H129.295V17H130.399L130.575 19.544C131.247 17.816 132.575 16.76 134.255 16.76ZM141.936 17H144.448V18.2H141.936V25H140.656V18.2H138.944V17H140.656C140.656 14.792 142.048 13.56 144.448 13.56V14.616C142.8 14.616 141.936 15.416 141.936 17ZM153.928 25H152.824L152.664 23.352C152.024 24.536 150.872 25.24 149.512 25.24C147.32 25.24 145.656 23.432 145.656 21.016C145.656 18.568 147.32 16.76 149.512 16.76C150.872 16.76 152.008 17.464 152.648 18.648L152.824 17H153.928V25ZM146.936 21C146.936 22.776 148.168 24.072 149.848 24.072C151.496 24.072 152.648 22.824 152.648 21C152.648 19.192 151.496 17.912 149.848 17.912C148.136 17.912 146.936 19.192 146.936 21ZM161.333 16.76V18.104C159.093 18.104 157.653 19.88 157.653 22.728V25H156.373V17H157.477L157.653 19.544C158.325 17.816 159.653 16.76 161.333 16.76ZM174.694 25H173.59L173.43 23.352C172.79 24.536 171.638 25.24 170.278 25.24C168.086 25.24 166.422 23.432 166.422 21.016C166.422 18.568 168.086 16.76 170.278 16.76C171.638 16.76 172.774 17.464 173.414 18.648L173.59 17H174.694V25ZM167.702 21C167.702 22.776 168.934 24.072 170.614 24.072C172.262 24.072 173.414 22.824 173.414 21C173.414 19.192 172.262 17.912 170.614 17.912C168.902 17.912 167.702 19.192 167.702 21ZM175.906 17H177.234L179.506 23.224L181.778 17H183.106L185.378 23.224L187.682 17H188.978L186.034 25H184.722L182.434 18.792L180.146 25H178.85L175.906 17ZM197.647 25H196.543L196.383 23.352C195.743 24.536 194.591 25.24 193.231 25.24C191.039 25.24 189.375 23.432 189.375 21.016C189.375 18.568 191.039 16.76 193.231 16.76C194.591 16.76 195.727 17.464 196.367 18.648L196.543 17H197.647V25ZM190.655 21C190.655 22.776 191.887 24.072 193.567 24.072C195.215 24.072 196.367 22.824 196.367 21C196.367 19.192 195.215 17.912 193.567 17.912C191.855 17.912 190.655 19.192 190.655 21ZM203.899 28.152H202.555L203.643 25H201.579L198.859 17H200.171L202.459 23.672H204.091L206.379 17H207.675L203.899 28.152ZM207.672 24.424C207.672 23.96 207.992 23.64 208.456 23.64C208.968 23.64 209.288 23.96 209.288 24.424C209.288 24.936 208.968 25.24 208.456 25.24C207.992 25.24 207.672 24.936 207.672 24.424ZM210.626 24.424C210.626 23.96 210.946 23.64 211.41 23.64C211.922 23.64 212.242 23.96 212.242 24.424C212.242 24.936 211.922 25.24 211.41 25.24C210.946 25.24 210.626 24.936 210.626 24.424ZM213.579 24.424C213.579 23.96 213.899 23.64 214.363 23.64C214.875 23.64 215.195 23.96 215.195 24.424C215.195 24.936 214.875 25.24 214.363 25.24C213.899 25.24 213.579 24.936 213.579 24.424Z" fill="#FAFAFA"/>
<path d="M542.793 180H540V0H550C552.761 0 555 2.23858 555 5V167.095C555 168.341 554.535 169.543 553.695 170.464L546.487 178.369C545.54 179.408 544.199 180 542.793 180Z" fill="#FAFAFA" fill-opacity="0.1"/>
</svg>
