<svg width="55" height="20" viewBox="0 0 55 20" fill="none" xmlns="http://www.w3.org/2000/svg">
<path d="M7.89716 1.29305C8.43862 0.980442 9.10571 0.980442 9.64716 1.29305L15.8744 4.88835C16.4159 5.20096 16.7494 5.77868 16.7494 6.40389V13.5945C16.7494 14.2197 16.4159 14.7974 15.8744 15.11L9.64716 18.7053C9.10571 19.0179 8.43862 19.0179 7.89716 18.7053L1.66992 15.11C1.12847 14.7974 0.794922 14.2197 0.794922 13.5945V6.40389C0.794922 5.77868 1.12847 5.20096 1.66992 4.88835L7.89716 1.29305Z" stroke="#FAFAFA" stroke-width="0.5"/>
<path d="M8.27174 3.78632C8.58114 3.60769 8.96234 3.60769 9.27174 3.78632L13.9009 6.45897C14.2103 6.6376 14.4009 6.96773 14.4009 7.32499V12.6703C14.4009 13.0276 14.2103 13.3577 13.9009 13.5363L9.27174 16.209C8.96234 16.3876 8.58114 16.3876 8.27174 16.209L3.64258 13.5363C3.33318 13.3577 3.14258 13.0276 3.14258 12.6703V7.32499C3.14258 6.96773 3.33318 6.6376 3.64258 6.45897L8.27174 3.78632Z" fill="#FAFAFA"/>
<path d="M26.7722 1.07654C27.391 0.719277 28.1534 0.719277 28.7722 1.07654L34.9994 4.67184C35.6182 5.02911 35.9994 5.68936 35.9994 6.40389V13.5945C35.9994 14.309 35.6182 14.9693 34.9994 15.3265L28.7722 18.9218C28.1534 19.2791 27.391 19.2791 26.7722 18.9218L20.5449 15.3265C19.9261 14.9693 19.5449 14.309 19.5449 13.5945V6.40389C19.5449 5.68936 19.9261 5.02911 20.5449 4.67184L26.7722 1.07654Z" fill="#FAFAFA"/>
<path d="M46.2722 1.94257C46.5816 1.76394 46.9628 1.76394 47.2722 1.94257L53.4994 5.53787C53.8088 5.7165 53.9994 6.04663 53.9994 6.40389V13.5945C53.9994 13.9518 53.8088 14.2819 53.4994 14.4605L47.2722 18.0558C46.9628 18.2344 46.5816 18.2344 46.2722 18.0558L40.0449 14.4605C39.7355 14.2819 39.5449 13.9518 39.5449 13.5945V6.40389C39.5449 6.04663 39.7355 5.7165 40.0449 5.53787L46.2722 1.94257Z" stroke="#FAFAFA" stroke-width="2"/>
</svg>
