<svg width="126" height="26" viewBox="0 0 126 26" fill="none" xmlns="http://www.w3.org/2000/svg">
<path d="M5.45455 25L12 18.4545L18.5455 25H24V19.5455L17.4545 13L24 6.45455V1H18.5455L12 7.54545L5.45455 1H0V6.45455L6.54545 13L0 19.5455V25H5.45455Z" fill="#FAFAFA"/>
<path d="M39.4545 25L46 18.4545L52.5455 25H58V19.5455L51.4545 13L58 6.45455V1H52.5455L46 7.54545L39.4545 1H34V6.45455L40.5455 13L34 19.5455V25H39.4545Z" fill="#FAFAFA"/>
<path d="M73.4545 25L80 18.4545L86.5455 25H92V19.5455L85.4545 13L92 6.45455V1H86.5455L80 7.54545L73.4545 1H68V6.45455L74.5455 13L68 19.5455V25H73.4545Z" stroke="#FAFAFA"/>
<path d="M107.455 25L114 18.4545L120.545 25H126V19.5455L119.455 13L126 6.45455V1H120.545L114 7.54545L107.455 1H102V6.45455L108.545 13L102 19.5455V25H107.455Z" fill="#FAFAFA"/>
</svg>
