<svg width="1026" height="533" viewBox="0 0 1026 533" fill="none" xmlns="http://www.w3.org/2000/svg">
<path d="M164.996 527.75L164.988 528.008H165.246H326.379H326.633L326.629 527.754L324.882 413.644L411.144 522.054L411.371 522.339L411.555 522.025L505.305 362.65L505.419 362.458L505.24 362.323L383.614 271.104L470.096 196.893L470.174 196.826L470.183 196.724L481.316 65.4743L481.339 65.2021L481.065 65.2031L326.058 65.7881L329.558 5.11596L329.573 4.8581L329.315 4.85164L165.252 0.750078L164.987 0.743432L164.996 1.00917L167.33 64.6162L9.38764 64.0312L9.12322 64.0303L9.13706 64.2943L16.7542 209.607L16.7667 209.844H17.0039H221.292L1.03983 364.663L0.871178 364.781L0.955423 364.969L71.2679 522.001L71.4119 522.322L71.6678 522.08L167.908 431.09L164.996 527.75ZM981.449 532.109L981.704 532.117L981.707 531.863L985.805 232.113L1023.64 232.695L1023.89 232.699L1023.89 232.447L1025.07 75.4159L1025.07 75.1567L1024.81 75.1642L984.645 76.3284L986.394 17.9997L986.402 17.7494L986.152 17.7423L821.503 13.0548L821.255 13.0477L821.246 13.2964L819.497 65.7805L532.638 55.8283L532.384 55.8195L532.379 56.0727L528.863 218.963L528.858 219.211L529.106 219.219L645.854 222.721L528.902 406.921L528.772 407.126L528.974 407.262L677.216 506.872L677.452 507.03L677.579 506.776L811.808 237.734L796.637 525.987L796.624 526.242L796.879 526.25L981.449 532.109Z" stroke="white" stroke-width="0.5"/>
</svg>
